SplineFontDB: 3.2
FontName: mbm-OW-Font
FullName: mbm OW Font
FamilyName: mbm OW Font
Weight: Medium
Copyright: Copyright 2025 Martino Bariselli Maffignoli
UComments: "This font is a modified version of Poppins (https://fonts.google.com/specimen/Poppins) which was designed by Indian Type Foundry, Jonny Pinhorn, Ninad Kale "
Version: 1.000
ItalicAngle: 0
UnderlinePosition: -100
UnderlineWidth: 50
Ascent: 800
Descent: 200
InvalidEm: 0
LayerCount: 2
Layer: 0 1 "Sfondo" 1
Layer: 1 1 "Fore" 0
XUID: [1021 486 -1411927798 11334]
StyleMap: 0x0040
FSType: 0
OS2Version: 4
OS2_WeightWidthSlopeOnly: 0
OS2_UseTypoMetrics: 1
CreationTime: 1551825218
ModificationTime: 1754514697
PfmFamily: 81
TTFWeight: 500
TTFWidth: 5
LineGap: 100
VLineGap: 0
Panose: 0 0 6 0 0 0 0 0 0 0
OS2TypoAscent: 1050
OS2TypoAOffset: 0
OS2TypoDescent: -350
OS2TypoDOffset: 0
OS2TypoLinegap: 100
OS2WinAscent: 1135
OS2WinAOffset: 0
OS2WinDescent: 627
OS2WinDOffset: 0
HheadAscent: 1050
HheadAOffset: 0
HheadDescent: -350
HheadDOffset: 0
OS2SubXSize: 650
OS2SubYSize: 600
OS2SubXOff: 0
OS2SubYOff: 75
OS2SupXSize: 650
OS2SupYSize: 600
OS2SupXOff: 0
OS2SupYOff: 350
OS2StrikeYSize: 50
OS2StrikeYPos: 330
OS2CapHeight: 697
OS2XHeight: 551
OS2Vendor: 'ITFO'
OS2CodePages: 20000093.00000000
OS2UnicodeRanges: 00008007.00000000.00000000.00000000
Lookup: 4 0 0 "'nukt' Forme Nukta lookup 0" { "'nukt' Forme Nukta lookup 0 subtable"  } ['nukt' ('DFLT' <'dflt' > 'dev2' <'dflt' > 'deva' <'dflt' > ) ]
Lookup: 4 0 0 "'akhn' Akhand lookup 1" { "'akhn' Akhand lookup 1 subtable"  } ['akhn' ('DFLT' <'dflt' > 'dev2' <'dflt' > 'deva' <'dflt' > ) ]
Lookup: 6 0 0 "'akhn' Akhand in Devanagari lookup 2" { "'akhn' Akhand in Devanagari lookup 2 subtable"  } ['akhn' ('DFLT' <'dflt' > 'dev2' <'dflt' > ) ]
Lookup: 4 0 0 "'rphf' Forma Reph lookup 3" { "'rphf' Forma Reph lookup 3 subtable"  } ['rphf' ('DFLT' <'dflt' > 'dev2' <'dflt' > 'deva' <'dflt' > ) ]

StartChar: .notdef
Encoding: 65536 -1 0
Width: 500
GlyphClass: 1
Flags: W
LayerCount: 2
Fore
SplineSet
0 700 m 1,0,-1
 500 700 l 1,1,-1
 500 0 l 1,2,-1
 0 0 l 1,3,-1
 0 700 l 1,0,-1
420 650 m 1,4,-1
 80 650 l 1,5,-1
 250 395 l 1,6,-1
 420 650 l 1,4,-1
50 95 m 1,7,-1
 220 350 l 1,8,-1
 50 605 l 1,9,-1
 50 95 l 1,7,-1
450 95 m 1,10,-1
 450 605 l 1,11,-1
 280 350 l 1,12,-1
 450 95 l 1,10,-1
420 50 m 1,13,-1
 250 305 l 1,14,-1
 80 50 l 1,15,-1
 420 50 l 1,13,-1
EndSplineSet
Validated: 1
EndChar

StartChar: dvAnusvara
Encoding: 2306 2306 4
Width: 0
GlyphClass: 4
Flags: W
AnchorPoint: "Ancora-0" -98 740 mark 0
LayerCount: 2
Fore
SplineSet
-104 848 m 128,-1,1
 -123 829 -123 829 -151 829 c 256,2,3
 -179 829 -179 829 -198.5 848 c 128,-1,4
 -218 867 -218 867 -218 895 c 256,5,6
 -218 923 -218 923 -198.5 942 c 128,-1,7
 -179 961 -179 961 -151 961 c 256,8,9
 -123 961 -123 961 -104 942 c 128,-1,10
 -85 923 -85 923 -85 895 c 256,11,0
 -85 867 -85 867 -104 848 c 128,-1,1
EndSplineSet
Validated: 1
Substitution2: "Sostituzione singola lookup 51 subtable" dvAnusvara.amI
EndChar

StartChar: dvCandrabindu
Encoding: 2305 2305 5
Width: 0
GlyphClass: 4
Flags: W
AnchorPoint: "Ancora-0" -98 740 mark 0
LayerCount: 2
Fore
SplineSet
-122.5 996.5 m 128,-1,1
 -136 983 -136 983 -156 983 c 256,2,3
 -176 983 -176 983 -189.5 997 c 128,-1,4
 -203 1011 -203 1011 -203 1030 c 0,5,6
 -203 1050 -203 1050 -189.5 1063.5 c 128,-1,7
 -176 1077 -176 1077 -156 1077 c 256,8,9
 -136 1077 -136 1077 -122.5 1063.5 c 128,-1,10
 -109 1050 -109 1050 -109 1030 c 256,11,0
 -109 1010 -109 1010 -122.5 996.5 c 128,-1,1
2.5 868 m 128,-1,13
 -53 816 -53 816 -156 816 c 256,14,15
 -259 816 -259 816 -314.5 868 c 128,-1,16
 -370 920 -370 920 -370 1002 c 1,17,-1
 -285 1002 l 1,18,19
 -285 957 -285 957 -251 924.5 c 128,-1,20
 -217 892 -217 892 -156 892 c 256,21,22
 -95 892 -95 892 -61 924.5 c 128,-1,23
 -27 957 -27 957 -27 1002 c 1,24,-1
 58 1002 l 1,25,12
 58 920 58 920 2.5 868 c 128,-1,13
EndSplineSet
Validated: 1
EndChar

StartChar: dvVisarga
Encoding: 2307 2307 6
Width: 246
GlyphClass: 1
Flags: W
LayerCount: 2
Fore
SplineSet
170.5 438 m 128,-1,1
 151 419 151 419 123 419 c 256,2,3
 95 419 95 419 75.5 438 c 128,-1,4
 56 457 56 457 56 485 c 256,5,6
 56 513 56 513 75.5 532 c 128,-1,7
 95 551 95 551 123 551 c 256,8,9
 151 551 151 551 170.5 532 c 128,-1,10
 190 513 190 513 190 485 c 256,11,0
 190 457 190 457 170.5 438 c 128,-1,1
170.5 138 m 128,-1,13
 151 119 151 119 123 119 c 256,14,15
 95 119 95 119 75.5 138 c 128,-1,16
 56 157 56 157 56 185 c 256,17,18
 56 213 56 213 75.5 232 c 128,-1,19
 95 251 95 251 123 251 c 256,20,21
 151 251 151 251 170.5 232 c 128,-1,22
 190 213 190 213 190 185 c 256,23,12
 190 157 190 157 170.5 138 c 128,-1,13
EndSplineSet
Validated: 1
EndChar

StartChar: rupee
Encoding: 8360 8360 7
Width: 1147
GlyphClass: 1
Flags: W
LayerCount: 2
Fore
SplineSet
518.5 362 m 128,-1,1
 476 306 476 306 388 289 c 1,2,-1
 572 0 l 1,3,-1
 433 0 l 1,4,-1
 259 282 l 1,5,-1
 189 282 l 1,6,-1
 189 0 l 1,7,-1
 75 0 l 1,8,-1
 75 695 l 1,9,-1
 315 695 l 2,10,11
 395 695 395 695 450.5 667.5 c 128,-1,12
 506 640 506 640 533.5 593 c 128,-1,13
 561 546 561 546 561 488 c 0,14,0
 561 418 561 418 518.5 362 c 128,-1,1
189 371 m 1,15,-1
 315 371 l 2,16,17
 380 371 380 371 412 402 c 128,-1,18
 444 433 444 433 444 488 c 0,19,20
 444 544 444 544 412 575 c 128,-1,21
 380 606 380 606 315 606 c 2,22,-1
 189 606 l 1,23,-1
 189 371 l 1,15,-1
753 355 m 128,-1,25
 770 339 770 339 796.5 330.5 c 128,-1,26
 823 322 823 322 868 312 c 0,27,28
 929 298 929 298 966.5 284 c 128,-1,29
 1004 270 1004 270 1031 238.5 c 128,-1,30
 1058 207 1058 207 1058 153 c 0,31,32
 1058 106 1058 106 1030.5 69 c 128,-1,33
 1003 32 1003 32 954 11.5 c 128,-1,34
 905 -9 905 -9 843 -9 c 0,35,36
 747 -9 747 -9 688 37 c 128,-1,37
 629 83 629 83 623 168 c 1,38,-1
 741 168 l 1,39,40
 744 127 744 127 771 104 c 128,-1,41
 798 81 798 81 843 81 c 0,42,43
 891 81 891 81 918.5 101.5 c 128,-1,44
 946 122 946 122 946 155 c 0,45,46
 946 182 946 182 928.5 198 c 128,-1,47
 911 214 911 214 884 222.5 c 128,-1,48
 857 231 857 231 811 241 c 0,49,50
 751 255 751 255 714 268.5 c 128,-1,51
 677 282 677 282 650.5 312 c 128,-1,52
 624 342 624 342 624 393 c 0,53,54
 624 439 624 439 650 477 c 128,-1,55
 676 515 676 515 725.5 537.5 c 128,-1,56
 775 560 775 560 842 560 c 0,57,58
 934 560 934 560 990.5 512.5 c 128,-1,59
 1047 465 1047 465 1051 383 c 1,60,-1
 934 383 l 1,61,62
 931 424 931 424 905.5 447 c 128,-1,63
 880 470 880 470 834 470 c 256,64,65
 788 470 788 470 762 449.5 c 128,-1,66
 736 429 736 429 736 397 c 0,67,24
 736 371 736 371 753 355 c 128,-1,25
EndSplineSet
Validated: 1
EndChar

StartChar: indianrupee
Encoding: 8377 8377 8
Width: 622
GlyphClass: 1
Flags: W
LayerCount: 2
Fore
SplineSet
474 538 m 1,0,-1
 474 524 l 1,1,-1
 590 524 l 1,2,-1
 590 442 l 1,3,-1
 468 442 l 1,4,5
 457 375 457 375 426.5 335.5 c 128,-1,6
 396 296 396 296 340 278.5 c 128,-1,7
 284 261 284 261 195 261 c 1,8,-1
 195 198 l 2,9,10
 195 143 195 143 218.5 111 c 128,-1,11
 242 79 242 79 298 79 c 0,12,13
 400 79 400 79 400 194 c 1,14,-1
 505 194 l 1,15,16
 504 93 504 93 450.5 41.5 c 128,-1,17
 397 -10 397 -10 296 -10 c 256,18,19
 195 -10 195 -10 141.5 46 c 128,-1,20
 88 102 88 102 88 203 c 2,21,-1
 88 340 l 1,22,23
 199 340 199 340 251 346.5 c 128,-1,24
 303 353 303 353 328.5 374 c 128,-1,25
 354 395 354 395 362 442 c 1,26,-1
 46 442 l 1,27,-1
 46 524 l 1,28,-1
 367 524 l 1,29,-1
 367 538 l 1,30,-1
 367 613 l 1,31,-1
 46 613 l 1,32,-1
 46 696 l 1,33,-1
 590 696 l 1,34,-1
 590 613 l 1,35,-1
 474 613 l 1,36,-1
 474 538 l 1,0,-1
EndSplineSet
Validated: 1
EndChar

StartChar: zerowidthnonjoiner
Encoding: 8204 8204 9
Width: 0
GlyphClass: 1
Flags: W
LayerCount: 2
Fore
SplineSet
-23 -230 m 1,0,-1
 -23 811 l 1,1,-1
 24 811 l 1,2,-1
 24 -230 l 1,3,-1
 -23 -230 l 1,0,-1
EndSplineSet
Validated: 1
EndChar

StartChar: zerowidthjoiner
Encoding: 8205 8205 10
Width: 0
GlyphClass: 1
Flags: W
LayerCount: 2
Fore
SplineSet
95 560 m 1,0,-1
 23 635 l 1,1,-1
 23 -230 l 1,2,-1
 -24 -230 l 1,3,-1
 -24 635 l 1,4,-1
 -93 562 l 1,5,-1
 -126 595 l 1,6,-1
 -33 688 l 1,7,-1
 -128 783 l 1,8,-1
 -95 816 l 1,9,-1
 0 721 l 1,10,-1
 96 816 l 1,11,-1
 128 784 l 1,12,-1
 32 688 l 1,13,-1
 128 593 l 1,14,-1
 95 560 l 1,0,-1
EndSplineSet
Validated: 1
EndChar

StartChar: dottedcircle
Encoding: 9676 9676 11
Width: 651
GlyphClass: 1
Flags: W
LayerCount: 2
Fore
SplineSet
332 467.5 m 128,-1,1
 320 456 320 456 301 456 c 256,2,3
 282 456 282 456 270 467.5 c 128,-1,4
 258 479 258 479 258 498 c 256,5,6
 258 517 258 517 270 528.5 c 128,-1,7
 282 540 282 540 301 540 c 256,8,9
 320 540 320 540 332 528.5 c 128,-1,10
 344 517 344 517 344 498 c 256,11,0
 344 479 344 479 332 467.5 c 128,-1,1
453 452.5 m 128,-1,13
 441 441 441 441 422 441 c 256,14,15
 403 441 403 441 391 452.5 c 128,-1,16
 379 464 379 464 379 483 c 256,17,18
 379 502 379 502 391 513.5 c 128,-1,19
 403 525 403 525 422 525 c 256,20,21
 441 525 441 525 453 513.5 c 128,-1,22
 465 502 465 502 465 483 c 256,23,12
 465 464 465 464 453 452.5 c 128,-1,13
215 425.5 m 128,-1,25
 203 414 203 414 184 414 c 256,26,27
 165 414 165 414 153 425.5 c 128,-1,28
 141 437 141 437 141 456 c 256,29,30
 141 475 141 475 153 486.5 c 128,-1,31
 165 498 165 498 184 498 c 256,32,33
 203 498 203 498 215 486.5 c 128,-1,34
 227 475 227 475 227 456 c 256,35,24
 227 437 227 437 215 425.5 c 128,-1,25
545 378.5 m 128,-1,37
 533 367 533 367 514 367 c 256,38,39
 495 367 495 367 483 378.5 c 128,-1,40
 471 390 471 390 471 409 c 256,41,42
 471 428 471 428 483 439.5 c 128,-1,43
 495 451 495 451 514 451 c 256,44,45
 533 451 533 451 545 439.5 c 128,-1,46
 557 428 557 428 557 409 c 256,47,36
 557 390 557 390 545 378.5 c 128,-1,37
139 326.5 m 128,-1,49
 127 315 127 315 108 315 c 256,50,51
 89 315 89 315 77 326.5 c 128,-1,52
 65 338 65 338 65 357 c 256,53,54
 65 376 65 376 77 387.5 c 128,-1,55
 89 399 89 399 108 399 c 256,56,57
 127 399 127 399 139 387.5 c 128,-1,58
 151 376 151 376 151 357 c 256,59,48
 151 338 151 338 139 326.5 c 128,-1,49
589 264.5 m 128,-1,61
 577 253 577 253 558 253 c 256,62,63
 539 253 539 253 527 264.5 c 128,-1,64
 515 276 515 276 515 295 c 256,65,66
 515 314 515 314 527 325.5 c 128,-1,67
 539 337 539 337 558 337 c 256,68,69
 577 337 577 337 589 325.5 c 128,-1,70
 601 314 601 314 601 295 c 256,71,60
 601 276 601 276 589 264.5 c 128,-1,61
124 205.5 m 128,-1,73
 112 194 112 194 93 194 c 256,74,75
 74 194 74 194 62 205.5 c 128,-1,76
 50 217 50 217 50 236 c 256,77,78
 50 255 50 255 62 266.5 c 128,-1,79
 74 278 74 278 93 278 c 256,80,81
 112 278 112 278 124 266.5 c 128,-1,82
 136 255 136 255 136 236 c 256,83,72
 136 217 136 217 124 205.5 c 128,-1,73
579 144.5 m 128,-1,85
 567 133 567 133 548 133 c 256,86,87
 529 133 529 133 517 144.5 c 128,-1,88
 505 156 505 156 505 175 c 256,89,90
 505 194 505 194 517 205.5 c 128,-1,91
 529 217 529 217 548 217 c 256,92,93
 567 217 567 217 579 205.5 c 128,-1,94
 591 194 591 194 591 175 c 256,95,84
 591 156 591 156 579 144.5 c 128,-1,85
169 92.5 m 128,-1,97
 157 81 157 81 138 81 c 256,98,99
 119 81 119 81 107 92.5 c 128,-1,100
 95 104 95 104 95 123 c 256,101,102
 95 142 95 142 107 153.5 c 128,-1,103
 119 165 119 165 138 165 c 256,104,105
 157 165 157 165 169 153.5 c 128,-1,106
 181 142 181 142 181 123 c 256,107,96
 181 104 181 104 169 92.5 c 128,-1,97
506 48.5 m 128,-1,109
 494 37 494 37 475 37 c 256,110,111
 456 37 456 37 444 48.5 c 128,-1,112
 432 60 432 60 432 79 c 256,113,114
 432 98 432 98 444 109.5 c 128,-1,115
 456 121 456 121 475 121 c 256,116,117
 494 121 494 121 506 109.5 c 128,-1,118
 518 98 518 98 518 79 c 256,119,108
 518 60 518 60 506 48.5 c 128,-1,109
267 16.5 m 128,-1,121
 255 5 255 5 236 5 c 256,122,123
 217 5 217 5 205 16.5 c 128,-1,124
 193 28 193 28 193 47 c 256,125,126
 193 66 193 66 205 77.5 c 128,-1,127
 217 89 217 89 236 89 c 256,128,129
 255 89 255 89 267 77.5 c 128,-1,130
 279 66 279 66 279 47 c 256,131,120
 279 28 279 28 267 16.5 c 128,-1,121
391 2.5 m 128,-1,133
 379 -9 379 -9 360 -9 c 256,134,135
 341 -9 341 -9 329 2.5 c 128,-1,136
 317 14 317 14 317 33 c 256,137,138
 317 52 317 52 329 63.5 c 128,-1,139
 341 75 341 75 360 75 c 256,140,141
 379 75 379 75 391 63.5 c 128,-1,142
 403 52 403 52 403 33 c 256,143,132
 403 14 403 14 391 2.5 c 128,-1,133
EndSplineSet
Validated: 1
EndChar

StartChar: exclam
Encoding: 33 33 12
Width: 321
GlyphClass: 1
Flags: W
LayerCount: 2
Fore
SplineSet
218 695 m 1,0,-1
 205 210 l 1,1,-1
 110 210 l 1,2,-1
 97 695 l 1,3,-1
 218 695 l 1,0,-1
109 14 m 128,-1,5
 88 35 88 35 88 66 c 256,6,7
 88 97 88 97 109 118 c 128,-1,8
 130 139 130 139 161 139 c 0,9,10
 191 139 191 139 212 118 c 128,-1,11
 233 97 233 97 233 66 c 256,12,13
 233 35 233 35 212 14 c 128,-1,14
 191 -7 191 -7 161 -7 c 0,15,4
 130 -7 130 -7 109 14 c 128,-1,5
EndSplineSet
Validated: 1
Substitution2: "'ss01' Style Set 1 lookup 20 subtable" exclam.ss01
EndChar

StartChar: quotedbl
Encoding: 34 34 13
Width: 323
GlyphClass: 1
Flags: W
LayerCount: 2
Fore
SplineSet
137 797 m 1,0,-1
 125 592 l 1,1,-1
 47 592 l 1,2,-1
 34 797 l 1,3,-1
 137 797 l 1,0,-1
288 797 m 1,4,-1
 276 592 l 1,5,-1
 198 592 l 1,6,-1
 185 797 l 1,7,-1
 288 797 l 1,4,-1
EndSplineSet
Validated: 1
EndChar

StartChar: numbersign
Encoding: 35 35 14
Width: 872
GlyphClass: 1
Flags: W
LayerCount: 2
Fore
SplineSet
658 458 m 1,0,-1
 621 285 l 1,1,-1
 753 285 l 1,2,-1
 753 185 l 1,3,-1
 600 185 l 1,4,-1
 560 0 l 1,5,-1
 451 0 l 1,6,-1
 491 185 l 1,7,-1
 295 185 l 1,8,-1
 255 0 l 1,9,-1
 146 0 l 1,10,-1
 186 185 l 1,11,-1
 31 185 l 1,12,-1
 31 285 l 1,13,-1
 207 285 l 1,14,-1
 244 458 l 1,15,-1
 90 458 l 1,16,-1
 90 558 l 1,17,-1
 265 558 l 1,18,-1
 304 740 l 1,19,-1
 413 740 l 1,20,-1
 374 558 l 1,21,-1
 570 558 l 1,22,-1
 609 740 l 1,23,-1
 718 740 l 1,24,-1
 679 558 l 1,25,-1
 812 558 l 1,26,-1
 812 458 l 1,27,-1
 658 458 l 1,0,-1
549 458 m 1,28,-1
 353 458 l 1,29,-1
 316 285 l 1,30,-1
 512 285 l 1,31,-1
 549 458 l 1,28,-1
EndSplineSet
Validated: 1
EndChar

StartChar: dollar
Encoding: 36 36 15
Width: 650
GlyphClass: 1
Flags: W
LayerCount: 2
Fore
SplineSet
519.5 104 m 128,-1,1
 495 60 495 60 447.5 30 c 128,-1,2
 400 0 400 0 335 -6 c 1,3,-1
 335 -87 l 1,4,-1
 270 -87 l 1,5,-1
 270 -6 l 1,6,7
 176 3 176 3 118 53 c 128,-1,8
 60 103 60 103 60 185 c 1,9,-1
 182 185 l 1,10,11
 185 146 185 146 207 120.5 c 128,-1,12
 229 95 229 95 270 88 c 1,13,-1
 270 308 l 1,14,15
 203 325 203 325 161 342.5 c 128,-1,16
 119 360 119 360 89.5 398 c 128,-1,17
 60 436 60 436 60 502 c 0,18,19
 60 585 60 585 118 639.5 c 128,-1,20
 176 694 176 694 270 703 c 1,21,-1
 270 784 l 1,22,-1
 335 784 l 1,23,-1
 335 703 l 1,24,25
 423 695 423 695 476.5 647.5 c 128,-1,26
 530 600 530 600 537 517 c 1,27,-1
 415 517 l 1,28,29
 412 548 412 548 391 572.5 c 128,-1,30
 370 597 370 597 335 606 c 1,31,-1
 335 390 l 1,32,33
 402 374 402 374 444 356.5 c 128,-1,34
 486 339 486 339 515 301.5 c 128,-1,35
 544 264 544 264 544 198 c 0,36,0
 544 148 544 148 519.5 104 c 128,-1,1
200.5 444 m 128,-1,38
 225 421 225 421 270 407 c 1,39,-1
 270 609 l 1,40,41
 227 604 227 604 201.5 578 c 128,-1,42
 176 552 176 552 176 508 c 0,43,37
 176 467 176 467 200.5 444 c 128,-1,38
404 123.5 m 128,-1,45
 429 152 429 152 429 192 c 256,46,47
 429 232 429 232 404.5 254.5 c 128,-1,48
 380 277 380 277 335 291 c 1,49,-1
 335 88 l 1,50,44
 379 95 379 95 404 123.5 c 128,-1,45
EndSplineSet
Validated: 1
EndChar

StartChar: percent
Encoding: 37 37 16
Width: 794
GlyphClass: 1
Flags: W
LayerCount: 2
Fore
SplineSet
84.5 667.5 m 128,-1,1
 127 709 127 709 194 709 c 256,2,3
 261 709 261 709 303.5 667.5 c 128,-1,4
 346 626 346 626 346 553 c 256,5,6
 346 480 346 480 303.5 438 c 128,-1,7
 261 396 261 396 194 396 c 256,8,9
 127 396 127 396 84.5 438 c 128,-1,10
 42 480 42 480 42 553 c 256,11,0
 42 626 42 626 84.5 667.5 c 128,-1,1
652 696 m 1,12,-1
 253 0 l 1,13,-1
 141 0 l 1,14,-1
 540 696 l 1,15,-1
 652 696 l 1,12,-1
131 553 m 0,17,18
 131 465 131 465 194 465 c 0,19,20
 224 465 224 465 240.5 486.5 c 128,-1,21
 257 508 257 508 257 553 c 0,22,23
 257 640 257 640 194 640 c 256,24,16
 131 640 131 640 131 553 c 0,17,18
491.5 258.5 m 128,-1,26
 534 300 534 300 601 300 c 0,27,28
 667 300 667 300 709.5 258.5 c 128,-1,29
 752 217 752 217 752 144 c 256,30,31
 752 71 752 71 709.5 29 c 128,-1,32
 667 -13 667 -13 601 -13 c 0,33,34
 534 -13 534 -13 491.5 29 c 128,-1,35
 449 71 449 71 449 144 c 256,36,25
 449 217 449 217 491.5 258.5 c 128,-1,26
537 144 m 256,38,39
 537 57 537 57 600 57 c 256,40,41
 663 57 663 57 663 144 c 256,42,43
 663 231 663 231 600 231 c 256,44,37
 537 231 537 231 537 144 c 256,38,39
EndSplineSet
Validated: 1
EndChar

StartChar: ampersand
Encoding: 38 38 17
Width: 761
GlyphClass: 1
Flags: W
LayerCount: 2
Fore
SplineSet
612 0 m 1,0,-1
 526 86 l 1,1,2
 476 36 476 36 417 11.5 c 128,-1,3
 358 -13 358 -13 285 -13 c 0,4,5
 211 -13 211 -13 154 13 c 128,-1,6
 97 39 97 39 66 87.5 c 128,-1,7
 35 136 35 136 35 200 c 0,8,9
 35 272 35 272 76 328.5 c 128,-1,10
 117 385 117 385 198 418 c 1,11,12
 169 453 169 453 157 483.5 c 128,-1,13
 145 514 145 514 145 551 c 0,14,15
 145 597 145 597 168.5 633 c 128,-1,16
 192 669 192 669 236 690 c 128,-1,17
 280 711 280 711 338 711 c 0,18,19
 397 711 397 711 438.5 688.5 c 128,-1,20
 480 666 480 666 500.5 627 c 128,-1,21
 521 588 521 588 517 540 c 1,22,-1
 403 540 l 1,23,24
 404 577 404 577 385 597.5 c 128,-1,25
 366 618 366 618 333 618 c 256,26,27
 300 618 300 618 279.5 598.5 c 128,-1,28
 259 579 259 579 259 551 c 0,29,30
 259 524 259 524 274.5 497.5 c 128,-1,31
 290 471 290 471 329 429 c 2,32,-1
 513 246 l 1,33,-1
 584 363 l 1,34,-1
 707 363 l 1,35,-1
 617 209 l 1,36,-1
 592 168 l 1,37,-1
 761 0 l 1,38,-1
 612 0 l 1,0,-1
451 161 m 1,40,-1
 267 346 l 1,41,42
 149 299 149 299 149 204 c 0,43,44
 149 153 149 153 187 118.5 c 128,-1,45
 225 84 225 84 285 84 c 0,46,39
 379 84 379 84 451 161 c 1,40,-1
EndSplineSet
Validated: 33
Substitution2: "'ss03' Style Set 3 lookup 22 subtable" ampersand.ss03
EndChar

StartChar: quotesingle
Encoding: 39 39 18
Width: 172
GlyphClass: 1
Flags: W
LayerCount: 2
Fore
SplineSet
137 797 m 1,0,-1
 125 592 l 1,1,-1
 47 592 l 1,2,-1
 34 797 l 1,3,-1
 137 797 l 1,0,-1
EndSplineSet
Validated: 1
EndChar

StartChar: parenleft
Encoding: 40 40 19
Width: 492
GlyphClass: 1
Flags: W
LayerCount: 2
Fore
SplineSet
176.5 53 m 128,-1,1
 124 198 124 198 124 364 c 0,2,3
 124 534 124 534 180.5 685 c 128,-1,4
 237 836 237 836 347 934 c 1,5,-1
 465 934 l 1,6,-1
 465 923 l 1,7,8
 350 817 350 817 292 669 c 128,-1,9
 234 521 234 521 234 364 c 0,10,11
 234 213 234 213 288 72 c 128,-1,12
 342 -69 342 -69 445 -175 c 1,13,-1
 445 -186 l 1,14,-1
 327 -186 l 1,15,0
 229 -92 229 -92 176.5 53 c 128,-1,1
EndSplineSet
Validated: 1
EndChar

StartChar: parenright
Encoding: 41 41 20
Width: 492
GlyphClass: 1
Flags: W
LayerCount: 2
Fore
SplineSet
47 -186 m 1,0,-1
 47 -175 l 1,1,2
 150 -69 150 -69 204 72 c 128,-1,3
 258 213 258 213 258 364 c 0,4,5
 258 521 258 521 200 669 c 128,-1,6
 142 817 142 817 27 923 c 1,7,-1
 27 934 l 1,8,-1
 145 934 l 1,9,10
 255 836 255 836 311.5 685 c 128,-1,11
 368 534 368 534 368 364 c 0,12,13
 368 198 368 198 315.5 53 c 128,-1,14
 263 -92 263 -92 165 -186 c 1,15,-1
 47 -186 l 1,0,-1
EndSplineSet
Validated: 1
EndChar

StartChar: asterisk
Encoding: 42 42 21
Width: 504
GlyphClass: 1
Flags: W
LayerCount: 2
Fore
SplineSet
392 679 m 1,0,-1
 437 599 l 1,1,-1
 300 548 l 1,2,-1
 437 497 l 1,3,-1
 391 415 l 1,4,-1
 277 505 l 1,5,-1
 298 360 l 1,6,-1
 206 360 l 1,7,-1
 225 505 l 1,8,-1
 111 413 l 1,9,-1
 63 498 l 1,10,-1
 199 549 l 1,11,-1
 63 598 l 1,12,-1
 109 680 l 1,13,-1
 226 590 l 1,14,-1
 206 736 l 1,15,-1
 299 736 l 1,16,-1
 277 590 l 1,17,-1
 392 679 l 1,0,-1
EndSplineSet
Validated: 1
EndChar

StartChar: plus
Encoding: 43 43 22
Width: 714
GlyphClass: 1
Flags: W
LayerCount: 2
Fore
SplineSet
612 313 m 1,0,-1
 410 313 l 1,1,-1
 410 106 l 1,2,-1
 304 106 l 1,3,-1
 304 313 l 1,4,-1
 102 313 l 1,5,-1
 102 409 l 1,6,-1
 304 409 l 1,7,-1
 304 616 l 1,8,-1
 410 616 l 1,9,-1
 410 409 l 1,10,-1
 612 409 l 1,11,-1
 612 313 l 1,0,-1
EndSplineSet
Validated: 1
EndChar

StartChar: comma
Encoding: 44 44 23
Width: 225
GlyphClass: 1
Flags: W
LayerCount: 2
Fore
SplineSet
200 137 m 1,0,-1
 79 -139 l 1,1,-1
 5 -139 l 1,2,-1
 76 137 l 1,3,-1
 200 137 l 1,0,-1
EndSplineSet
Validated: 1
Substitution2: "'ss01' Style Set 1 lookup 20 subtable" comma.ss01
EndChar

StartChar: period
Encoding: 46 46 25
Width: 241
GlyphClass: 1
Flags: W
LayerCount: 2
Fore
SplineSet
69 14 m 128,-1,1
 48 35 48 35 48 66 c 256,2,3
 48 97 48 97 69 118 c 128,-1,4
 90 139 90 139 121 139 c 0,5,6
 151 139 151 139 172 118 c 128,-1,7
 193 97 193 97 193 66 c 256,8,9
 193 35 193 35 172 14 c 128,-1,10
 151 -7 151 -7 121 -7 c 0,11,0
 90 -7 90 -7 69 14 c 128,-1,1
EndSplineSet
Validated: 1
Substitution2: "'ss01' Style Set 1 lookup 20 subtable" period.ss01
EndChar

StartChar: slash
Encoding: 47 47 26
Width: 514
GlyphClass: 1
Flags: W
LayerCount: 2
Fore
SplineSet
445 944 m 1,0,-1
 173 -175 l 1,1,-1
 61 -175 l 1,2,-1
 332 944 l 1,3,-1
 445 944 l 1,0,-1
EndSplineSet
Validated: 1
EndChar

StartChar: zero
Encoding: 48 48 27
Width: 641
GlyphClass: 1
Flags: W
LayerCount: 2
Fore
SplineSet
118.5 644.5 m 128,-1,1
 177 742 177 742 320 742 c 256,2,3
 463 742 463 742 521.5 644.5 c 128,-1,4
 580 547 580 547 580 374 c 0,5,6
 580 199 580 199 521.5 100.5 c 128,-1,7
 463 2 463 2 320 2 c 256,8,9
 177 2 177 2 118.5 100.5 c 128,-1,10
 60 199 60 199 60 374 c 0,11,0
 60 547 60 547 118.5 644.5 c 128,-1,1
457.5 511 m 128,-1,13
 447 567 447 567 415 602.5 c 128,-1,14
 383 638 383 638 320 638 c 256,15,16
 257 638 257 638 225 602.5 c 128,-1,17
 193 567 193 567 182.5 511 c 128,-1,18
 172 455 172 455 172 374 c 0,19,20
 172 290 172 290 182 233 c 128,-1,21
 192 176 192 176 224.5 141 c 128,-1,22
 257 106 257 106 320 106 c 256,23,24
 383 106 383 106 415.5 141 c 128,-1,25
 448 176 448 176 458 233 c 128,-1,26
 468 290 468 290 468 374 c 0,27,12
 468 455 468 455 457.5 511 c 128,-1,13
EndSplineSet
Validated: 1
EndChar

StartChar: one
Encoding: 49 49 28
Width: 350
GlyphClass: 1
Flags: W
LayerCount: 2
Fore
SplineSet
45 625 m 1,0,-1
 45 729 l 1,1,-1
 253 729 l 1,2,-1
 253 0 l 1,3,-1
 138 0 l 1,4,-1
 138 625 l 1,5,-1
 45 625 l 1,0,-1
EndSplineSet
Validated: 1
EndChar

StartChar: two
Encoding: 50 50 29
Width: 577
GlyphClass: 1
Flags: W
LayerCount: 2
Fore
SplineSet
123 155 m 2,0,1
 219 238 219 238 274.5 291.5 c 128,-1,2
 330 345 330 345 367 403 c 128,-1,3
 404 461 404 461 404 519 c 0,4,5
 404 579 404 579 375.5 613 c 128,-1,6
 347 647 347 647 286 647 c 0,7,8
 227 647 227 647 194.5 609.5 c 128,-1,9
 162 572 162 572 160 509 c 1,10,-1
 50 509 l 1,11,12
 53 623 53 623 118.5 683.5 c 128,-1,13
 184 744 184 744 285 744 c 0,14,15
 394 744 394 744 455.5 684 c 128,-1,16
 517 624 517 624 517 524 c 0,17,18
 517 452 517 452 480.5 385.5 c 128,-1,19
 444 319 444 319 393.5 266.5 c 128,-1,20
 343 214 343 214 265 145 c 2,21,-1
 220 105 l 1,22,-1
 537 105 l 1,23,-1
 537 10 l 1,24,-1
 51 10 l 1,25,-1
 51 93 l 1,26,-1
 123 155 l 2,0,1
EndSplineSet
Validated: 1
Substitution2: "'ss04' Style Set 4 lookup 23 subtable" two.ss04
EndChar

StartChar: three
Encoding: 51 51 30
Width: 594
GlyphClass: 1
Flags: W
LayerCount: 2
Fore
SplineSet
129.5 694 m 128,-1,1
 195 746 195 746 297 746 c 0,2,3
 367 746 367 746 418 721 c 128,-1,4
 469 696 469 696 495 653 c 128,-1,5
 521 610 521 610 521 556 c 0,6,7
 521 494 521 494 488 450 c 128,-1,8
 455 406 455 406 409 391 c 1,9,-1
 409 387 l 1,10,11
 468 369 468 369 501 321.5 c 128,-1,12
 534 274 534 274 534 200 c 0,13,14
 534 141 534 141 507 95 c 128,-1,15
 480 49 480 49 427 22.5 c 128,-1,16
 374 -4 374 -4 300 -4 c 0,17,18
 192 -4 192 -4 122.5 51.5 c 128,-1,19
 53 107 53 107 48 211 c 1,20,-1
 158 211 l 1,21,22
 162 158 162 158 199 124.5 c 128,-1,23
 236 91 236 91 299 91 c 0,24,25
 360 91 360 91 393 124.5 c 128,-1,26
 426 158 426 158 426 211 c 0,27,28
 426 281 426 281 381.5 310.5 c 128,-1,29
 337 340 337 340 245 340 c 2,30,-1
 219 340 l 1,31,-1
 219 434 l 1,32,-1
 246 434 l 2,33,34
 327 435 327 435 369.5 461 c 128,-1,35
 412 487 412 487 412 543 c 0,36,37
 412 591 412 591 381 619.5 c 128,-1,38
 350 648 350 648 293 648 c 0,39,40
 237 648 237 648 206 619.5 c 128,-1,41
 175 591 175 591 169 549 c 1,42,-1
 58 549 l 1,43,0
 64 642 64 642 129.5 694 c 128,-1,1
EndSplineSet
Validated: 1
Substitution2: "'ss04' Style Set 4 lookup 23 subtable" three.ss04
EndChar

StartChar: four
Encoding: 52 52 31
Width: 647
GlyphClass: 1
Flags: W
LayerCount: 2
Fore
SplineSet
46 152 m 1,0,-1
 46 238 l 1,1,-1
 382 720 l 1,2,-1
 520 720 l 1,3,-1
 520 251 l 1,4,-1
 613 251 l 1,5,-1
 613 152 l 1,6,-1
 520 152 l 1,7,-1
 520 0 l 1,8,-1
 408 0 l 1,9,-1
 408 152 l 1,10,-1
 46 152 l 1,0,-1
413 604 m 1,11,-1
 177 251 l 1,12,-1
 413 251 l 1,13,-1
 413 604 l 1,11,-1
EndSplineSet
Validated: 1
EndChar

StartChar: five
Encoding: 53 53 32
Width: 639
GlyphClass: 1
Flags: W
LayerCount: 2
Fore
SplineSet
530 631 m 1,0,-1
 195 631 l 1,1,-1
 195 432 l 1,2,3
 216 460 216 460 257.5 479 c 128,-1,4
 299 498 299 498 346 498 c 0,5,6
 430 498 430 498 482.5 462 c 128,-1,7
 535 426 535 426 557.5 371 c 128,-1,8
 580 316 580 316 580 255 c 0,9,10
 580 181 580 181 551.5 123.5 c 128,-1,11
 523 66 523 66 466.5 33 c 128,-1,12
 410 0 410 0 328 0 c 0,13,14
 219 0 219 0 153 54 c 128,-1,15
 87 108 87 108 74 197 c 1,16,-1
 185 197 l 1,17,18
 196 150 196 150 234 122.5 c 128,-1,19
 272 95 272 95 329 95 c 0,20,21
 400 95 400 95 435.5 138 c 128,-1,22
 471 181 471 181 471 252 c 0,23,24
 471 324 471 324 435 362.5 c 128,-1,25
 399 401 399 401 329 401 c 0,26,27
 280 401 280 401 246.5 376.5 c 128,-1,28
 213 352 213 352 198 310 c 1,29,-1
 90 310 l 1,30,-1
 90 731 l 1,31,-1
 530 731 l 1,32,-1
 530 631 l 1,0,-1
EndSplineSet
Validated: 1
EndChar

StartChar: six
Encoding: 54 54 33
Width: 642
GlyphClass: 1
Flags: W
LayerCount: 2
Fore
SplineSet
412 629 m 128,-1,1
 383 652 383 652 331 652 c 0,2,3
 252 652 252 652 213 591.5 c 128,-1,4
 174 531 174 531 172 391 c 1,5,6
 198 435 198 435 248 459 c 128,-1,7
 298 483 298 483 356 483 c 0,8,9
 422 483 422 483 472.5 454.5 c 128,-1,10
 523 426 523 426 551.5 372 c 128,-1,11
 580 318 580 318 580 243 c 0,12,13
 580 173 580 173 552.5 118 c 128,-1,14
 525 63 525 63 471 31.5 c 128,-1,15
 417 0 417 0 341 0 c 0,16,17
 238 0 238 0 179.5 45.5 c 128,-1,18
 121 91 121 91 97.5 174 c 128,-1,19
 74 257 74 257 74 381 c 0,20,21
 74 747 74 747 332 747 c 0,22,23
 432 747 432 747 489.5 693 c 128,-1,24
 547 639 547 639 557 560 c 1,25,-1
 452 560 l 1,26,0
 441 606 441 606 412 629 c 128,-1,1
227.5 350.5 m 128,-1,28
 185 314 185 314 185 245 c 256,29,30
 185 176 185 176 224.5 135.5 c 128,-1,31
 264 95 264 95 335 95 c 0,32,33
 398 95 398 95 434.5 134 c 128,-1,34
 471 173 471 173 471 238 c 0,35,36
 471 306 471 306 435.5 346.5 c 128,-1,37
 400 387 400 387 331 387 c 0,38,27
 270 387 270 387 227.5 350.5 c 128,-1,28
EndSplineSet
Validated: 1
Substitution2: "'ss04' Style Set 4 lookup 23 subtable" six.ss04
EndChar

StartChar: seven
Encoding: 55 55 34
Width: 560
GlyphClass: 1
Flags: W
LayerCount: 2
Fore
SplineSet
522 641 m 1,0,-1
 244 0 l 1,1,-1
 129 0 l 1,2,-1
 410 629 l 1,3,-1
 40 629 l 1,4,-1
 40 726 l 1,5,-1
 522 726 l 1,6,-1
 522 641 l 1,0,-1
EndSplineSet
Validated: 1
EndChar

StartChar: eight
Encoding: 56 56 35
Width: 638
GlyphClass: 1
Flags: W
LayerCount: 2
Fore
SplineSet
79 545 m 0,1,2
 79 599 79 599 106 644 c 128,-1,3
 133 689 133 689 187 715.5 c 128,-1,4
 241 742 241 742 319 742 c 0,5,6
 396 742 396 742 450.5 715.5 c 128,-1,7
 505 689 505 689 532 644 c 128,-1,8
 559 599 559 599 559 545 c 0,9,10
 559 489 559 489 530.5 446.5 c 128,-1,11
 502 404 502 404 455 381 c 1,12,13
 512 360 512 360 545 312.5 c 128,-1,14
 578 265 578 265 578 201 c 0,15,16
 578 136 578 136 545 86 c 128,-1,17
 512 36 512 36 453 9 c 128,-1,18
 394 -18 394 -18 319 -18 c 256,19,20
 244 -18 244 -18 185.5 9 c 128,-1,21
 127 36 127 36 94 86 c 128,-1,22
 61 136 61 136 61 201 c 256,23,24
 61 266 61 266 94 313 c 128,-1,25
 127 360 127 360 183 381 c 1,26,0
 79 433 79 433 79 545 c 0,1,2
415 617 m 128,-1,28
 380 647 380 647 319 647 c 0,29,30
 259 647 259 647 224 617 c 128,-1,31
 189 587 189 587 189 530 c 0,32,33
 189 480 189 480 225.5 448.5 c 128,-1,34
 262 417 262 417 319 417 c 256,35,36
 376 417 376 417 413 449 c 128,-1,37
 450 481 450 481 450 531 c 0,38,27
 450 587 450 587 415 617 c 128,-1,28
211.5 298.5 m 128,-1,40
 170 266 170 266 170 205 c 0,41,42
 170 148 170 148 210 112.5 c 128,-1,43
 250 77 250 77 319 77 c 0,44,45
 387 77 387 77 426.5 113 c 128,-1,46
 466 149 466 149 466 205 c 0,47,48
 466 265 466 265 425.5 298 c 128,-1,49
 385 331 385 331 319 331 c 256,50,39
 253 331 253 331 211.5 298.5 c 128,-1,40
EndSplineSet
Validated: 1
EndChar

StartChar: nine
Encoding: 57 57 36
Width: 635
GlyphClass: 1
Flags: W
LayerCount: 2
Fore
SplineSet
245 122 m 128,-1,1
 278 96 278 96 334 96 c 0,2,3
 405 96 405 96 438 152 c 128,-1,4
 471 208 471 208 471 343 c 1,5,6
 447 309 447 309 403.5 290.5 c 128,-1,7
 360 272 360 272 309 272 c 0,8,9
 244 272 244 272 191 298.5 c 128,-1,10
 138 325 138 325 107.5 377.5 c 128,-1,11
 77 430 77 430 77 505 c 0,12,13
 77 615 77 615 141.5 680.5 c 128,-1,14
 206 746 206 746 319 746 c 0,15,16
 455 746 455 746 512.5 655.5 c 128,-1,17
 570 565 570 565 570 378 c 0,18,19
 570 249 570 249 548.5 167 c 128,-1,20
 527 85 527 85 474 43 c 128,-1,21
 421 1 421 1 327 1 c 0,22,23
 220 1 220 1 162 57 c 128,-1,24
 104 113 104 113 97 198 c 1,25,-1
 202 198 l 1,26,0
 212 148 212 148 245 122 c 128,-1,1
423.5 405.5 m 128,-1,28
 458 443 458 443 458 505 c 0,29,30
 458 574 458 574 421.5 612.5 c 128,-1,31
 385 651 385 651 322 651 c 256,32,33
 259 651 259 651 222.5 611.5 c 128,-1,34
 186 572 186 572 186 508 c 0,35,36
 186 447 186 447 221.5 407.5 c 128,-1,37
 257 368 257 368 329 368 c 0,38,27
 389 368 389 368 423.5 405.5 c 128,-1,28
EndSplineSet
Validated: 1
Substitution2: "'ss04' Style Set 4 lookup 23 subtable" nine.ss04
EndChar

StartChar: less
Encoding: 60 60 39
Width: 612
GlyphClass: 1
Flags: W
LayerCount: 2
Fore
SplineSet
328 134 m 1,0,-1
 98 361 l 1,1,-1
 328 588 l 1,2,-1
 472 588 l 1,3,-1
 241 361 l 1,4,-1
 472 134 l 1,5,-1
 328 134 l 1,0,-1
EndSplineSet
Validated: 1
EndChar

StartChar: equal
Encoding: 61 61 40
Width: 774
GlyphClass: 1
Flags: W
LayerCount: 2
Fore
SplineSet
653 523 m 1,0,-1
 653 427 l 1,1,-1
 121 427 l 1,2,-1
 121 523 l 1,3,-1
 653 523 l 1,0,-1
653 296 m 1,4,-1
 653 200 l 1,5,-1
 121 200 l 1,6,-1
 121 296 l 1,7,-1
 653 296 l 1,4,-1
EndSplineSet
Validated: 1
EndChar

StartChar: greater
Encoding: 62 62 41
Width: 590
GlyphClass: 1
Flags: W
LayerCount: 2
Fore
SplineSet
112 588 m 1,0,-1
 256 588 l 1,1,-1
 486 361 l 1,2,-1
 256 134 l 1,3,-1
 112 134 l 1,4,-1
 343 361 l 1,5,-1
 112 588 l 1,0,-1
EndSplineSet
Validated: 1
EndChar

StartChar: question
Encoding: 63 63 42
Width: 538
GlyphClass: 1
Flags: W
LayerCount: 2
Fore
SplineSet
425.5 649 m 128,-1,1
 487 593 487 593 487 496 c 0,2,3
 487 395 487 395 423 344 c 128,-1,4
 359 293 359 293 253 293 c 1,5,-1
 249 214 l 1,6,-1
 150 214 l 1,7,-1
 145 371 l 1,8,-1
 178 371 l 2,9,10
 275 371 275 371 326.5 397 c 128,-1,11
 378 423 378 423 378 496 c 0,12,13
 378 549 378 549 347.5 579 c 128,-1,14
 317 609 317 609 263 609 c 256,15,16
 209 609 209 609 178 580 c 128,-1,17
 147 551 147 551 147 499 c 1,18,-1
 40 499 l 1,19,20
 40 559 40 559 67 606 c 128,-1,21
 94 653 94 653 144.5 679 c 128,-1,22
 195 705 195 705 262 705 c 0,23,0
 364 705 364 705 425.5 649 c 128,-1,1
146 14 m 128,-1,25
 125 35 125 35 125 66 c 256,26,27
 125 97 125 97 146 118 c 128,-1,28
 167 139 167 139 198 139 c 0,29,30
 228 139 228 139 249 118 c 128,-1,31
 270 97 270 97 270 66 c 256,32,33
 270 35 270 35 249 14 c 128,-1,34
 228 -7 228 -7 198 -7 c 0,35,24
 167 -7 167 -7 146 14 c 128,-1,25
EndSplineSet
Validated: 1
Substitution2: "'ss01' Style Set 1 lookup 20 subtable" question.ss01
EndChar

StartChar: at
Encoding: 64 64 43
Width: 1025
GlyphClass: 1
Flags: W
LayerCount: 2
Fore
SplineSet
785 604 m 128,-1,1
 868 562 868 562 911.5 486.5 c 128,-1,2
 955 411 955 411 955 311 c 0,3,4
 955 231 955 231 927.5 158 c 128,-1,5
 900 85 900 85 848.5 39 c 128,-1,6
 797 -7 797 -7 727 -7 c 0,7,8
 676 -7 676 -7 647 15.5 c 128,-1,9
 618 38 618 38 611 79 c 1,10,11
 580 39 580 39 533 16 c 128,-1,12
 486 -7 486 -7 435 -7 c 0,13,14
 358 -7 358 -7 314.5 39.5 c 128,-1,15
 271 86 271 86 271 166 c 0,16,17
 271 242 271 242 302.5 308 c 128,-1,18
 334 374 334 374 391 413.5 c 128,-1,19
 448 453 448 453 519 453 c 0,20,21
 606 453 606 453 641 394 c 1,22,-1
 650 444 l 1,23,-1
 749 444 l 1,24,-1
 699 158 l 2,25,26
 696 137 696 137 696 121 c 0,27,28
 696 95 696 95 706.5 82 c 128,-1,29
 717 69 717 69 744 69 c 0,30,31
 782 69 782 69 809 106.5 c 128,-1,32
 836 144 836 144 849.5 199 c 128,-1,33
 863 254 863 254 863 306 c 0,34,35
 863 433 863 433 789 500 c 128,-1,36
 715 567 715 567 574 567 c 0,37,38
 456 567 456 567 362.5 511 c 128,-1,39
 269 455 269 455 216 357 c 128,-1,40
 163 259 163 259 163 139 c 0,41,42
 163 11 163 11 239 -56 c 128,-1,43
 315 -123 315 -123 456 -123 c 0,44,45
 551 -123 551 -123 622 -88 c 1,46,-1
 637 -164 l 1,47,48
 546 -203 546 -203 433 -203 c 0,49,50
 324 -203 324 -203 242 -162 c 128,-1,51
 160 -121 160 -121 115 -45.5 c 128,-1,52
 70 30 70 30 70 130 c 0,53,54
 70 273 70 273 136.5 391 c 128,-1,55
 203 509 203 509 321 577.5 c 128,-1,56
 439 646 439 646 588 646 c 0,57,0
 702 646 702 646 785 604 c 128,-1,1
546.5 105.5 m 128,-1,59
 581 130 581 130 601 170.5 c 128,-1,60
 621 211 621 211 621 257 c 0,61,62
 621 305 621 305 594.5 335.5 c 128,-1,63
 568 366 568 366 520 366 c 0,64,65
 477 366 477 366 444.5 339.5 c 128,-1,66
 412 313 412 313 394.5 271 c 128,-1,67
 377 229 377 229 377 183 c 0,68,69
 377 136 377 136 400 108.5 c 128,-1,70
 423 81 423 81 470 81 c 0,71,58
 512 81 512 81 546.5 105.5 c 128,-1,59
EndSplineSet
Validated: 1
EndChar

StartChar: A
Encoding: 65 65 44
Width: 697
GlyphClass: 1
Flags: W
LayerCount: 2
Fore
SplineSet
455 -208 m 128,-1,1
 455 -193 455 -193 467 -181 c 128,-1,2
 479 -169 479 -169 494.5 -169 c 0,3,4
 509 -169 509 -169 521 -181 c 128,-1,5
 533 -193 533 -193 533 -208.5 c 0,6,7
 533 -223 533 -223 521 -235 c 128,-1,8
 509 -247 509 -247 493.5 -247 c 0,9,10
 479 -247 479 -247 467 -235 c 128,-1,0
 455 -223 455 -223 455 -208 c 128,-1,1
103.5 819 m 4,11,12
 104 834 104 834 115.5 846 c 4,13,14
 128 858 128 858 143 858 c 132,-1,15
 158 858 158 858 169.5 846 c 4,16,17
 181 835 181 835 181.5 818.5 c 4,18,19
 182 804 182 804 169.5 792 c 4,20,21
 158 780 158 780 142 780 c 4,22,23
 128 780 128 780 115.5 792 c 4,24,25
 104 804 104 804 103.5 819 c 4,11,12
203 142 m 1,26,-1
 153 0 l 1,27,-1
 34 0 l 1,28,-1
 283 696 l 1,29,-1
 415 696 l 1,30,-1
 664 0 l 1,31,-1
 544 0 l 1,32,-1
 494 142 l 1,33,-1
 349 558 l 1,34,-1
 203 142 l 1,26,-1
EndSplineSet
Validated: 1
EndChar

StartChar: B
Encoding: 66 66 45
Width: 630
GlyphClass: 1
Flags: W
LayerCount: 2
Fore
SplineSet
393 -109 m 132,-1,1
 393 -94 393 -94 405 -82 c 132,-1,2
 417 -70 417 -70 432.5 -70 c 4,3,4
 447 -70 447 -70 459 -82 c 132,-1,5
 471 -94 471 -94 471 -109.5 c 4,6,7
 471 -124 471 -124 459 -136 c 132,-1,8
 447 -148 447 -148 431.5 -148 c 4,9,10
 417 -148 417 -148 405 -136 c 132,-1,0
 393 -124 393 -124 393 -109 c 132,-1,1
75 93 m 1,11,-1
 75 0 l 1,12,-1
 353 0 l 2,13,14
 422 0 422 0 474 24.5 c 128,-1,15
 526 49 526 49 553.5 91.5 c 128,-1,16
 581 134 581 134 581 187 c 0,17,18
 581 249 581 249 542 298 c 128,-1,19
 503 347 503 347 447 357 c 1,20,21
 501 376 501 376 533 416 c 128,-1,22
 565 456 565 456 565 516 c 0,23,24
 565 566 565 566 539 606.5 c 128,-1,25
 513 647 513 647 462 671 c 128,-1,26
 411 695 411 695 340 695 c 2,27,28
 340 695 340 695 75 695 c 1,29,-1
 75 602 l 1,30,-1
 330 602 l 2,31,32
 391 602 391 602 417.5 575.5 c 0,33,34
 449 544 449 544 449 502 c 0,35,36
 449 454 449 454 417.498892493 428.676093663 c 0,37,38
 386 403 386 403 330 403 c 2,39,40
 330 403 330 403 75 403 c 1,41,-1
 75 310 l 1,42,-1
 339 310 l 2,43,44
 394 310 394 310 432 280 c 0,45,46
 467 252 467 252 467 199 c 0,47,48
 467 149 467 149 434 121 c 0,49,50
 400 93 400 93 343 93 c 2,51,52
 343 93 343 93 75 93 c 1,11,-1
EndSplineSet
Validated: 9
EndChar

StartChar: C
Encoding: 67 67 46
Width: 773
GlyphClass: 1
Flags: W
LayerCount: 2
Fore
SplineSet
149.5 863 m 132,-1,1
 149.5 878 149.5 878 161.5 890 c 132,-1,2
 173.5 902 173.5 902 189 902 c 4,3,4
 203.5 902 203.5 902 215.5 890 c 132,-1,5
 227.5 878 227.5 878 227.5 862.5 c 4,6,7
 227.5 848 227.5 848 215.5 836 c 132,-1,8
 203.5 824 203.5 824 188 824 c 4,9,10
 173.5 824 173.5 824 161.5 836 c 132,-1,0
 149.5 848 149.5 848 149.5 863 c 132,-1,1
84.5 532 m 128,-1,12
 132 613 132 613 213.5 658.5 c 128,-1,13
 295 704 295 704 392 704 c 0,14,15
 503 704 503 704 589.5 649.5 c 128,-1,16
 676 595 676 595 715 495 c 1,17,-1
 578 495 l 1,18,19
 551 550 551 550 503 577 c 128,-1,20
 455 604 455 604 392 604 c 0,21,22
 323 604 323 604 269 573 c 128,-1,23
 215 542 215 542 184.5 484 c 128,-1,24
 154 426 154 426 154 349 c 256,25,26
 154 272 154 272 184.5 214 c 128,-1,27
 215 156 215 156 269 124.5 c 128,-1,28
 323 93 323 93 392 93 c 0,29,30
 455 93 455 93 503 120 c 128,-1,31
 551 147 551 147 578 202 c 1,32,-1
 715 202 l 1,33,34
 676 102 676 102 589.5 48 c 128,-1,35
 503 -6 503 -6 392 -6 c 0,36,37
 294 -6 294 -6 213 39.5 c 128,-1,38
 132 85 132 85 84.5 166 c 128,-1,39
 37 247 37 247 37 349 c 256,40,11
 37 451 37 451 84.5 532 c 128,-1,12
EndSplineSet
Validated: 1
EndChar

StartChar: D
Encoding: 68 68 47
Width: 709
GlyphClass: 1
Flags: W
LayerCount: 2
Fore
SplineSet
433 -145 m 132,-1,1
 433 -130 433 -130 445 -118 c 132,-1,2
 457 -106 457 -106 472.5 -106 c 4,3,4
 487 -106 487 -106 499 -118 c 132,-1,5
 511 -130 511 -130 511 -145.5 c 4,6,7
 511 -160 511 -160 499 -172 c 132,-1,8
 487 -184 487 -184 471.5 -184 c 4,9,10
 457 -184 457 -184 445 -172 c 132,-1,0
 433 -160 433 -160 433 -145 c 132,-1,1
496.5 652.5 m 128,-1,12
 580 610 580 610 625.5 530.5 c 128,-1,13
 671 451 671 451 671 345 c 256,14,15
 671 239 671 239 625.5 161 c 128,-1,16
 580 83 580 83 496.5 41.5 c 128,-1,17
 413 0 413 0 302 0 c 2,18,-1
 75 0 l 1,19,-1
 75 695 l 1,20,-1
 302 695 l 2,21,11
 413 695 413 695 496.5 652.5 c 128,-1,12
489 159 m 128,-1,23
 554 225 554 225 554 345 c 0,24,25
 554 466 554 466 489 534 c 128,-1,26
 424 602 424 602 302 602 c 2,27,-1
 189 602 l 1,28,-1
 189 93 l 1,29,-1
 302 93 l 2,30,22
 424 93 424 93 489 159 c 128,-1,23
EndSplineSet
Validated: 1
EndChar

StartChar: E
Encoding: 69 69 48
Width: 524
GlyphClass: 1
Flags: W
LayerCount: 2
Fore
SplineSet
83 -223 m 132,-1,1
 83 -208 83 -208 95 -196 c 132,-1,2
 107 -184 107 -184 122.5 -184 c 4,3,4
 137 -184 137 -184 149 -196 c 132,-1,5
 161 -208 161 -208 161 -223.5 c 4,6,7
 161 -238 161 -238 149 -250 c 132,-1,8
 137 -262 137 -262 121.5 -262 c 4,9,10
 107 -262 107 -262 95 -250 c 132,-1,0
 83 -238 83 -238 83 -223 c 132,-1,1
319.5 920 m 128,-1,12
 319.5 935 319.5 935 331.5 947 c 128,-1,13
 343.5 959 343.5 959 359 959 c 0,14,15
 373.5 959 373.5 959 385.5 947 c 128,-1,16
 397.5 935 397.5 935 397.5 919.5 c 0,17,18
 397.5 905 397.5 905 385.5 893 c 128,-1,19
 373.5 881 373.5 881 358 881 c 0,20,21
 343.5 881 343.5 881 331.5 893 c 128,-1,11
 319.5 905 319.5 905 319.5 920 c 128,-1,12
75 399 m 1,22,-1
 75 306 l 1,23,-1
 459 306 l 1,24,-1
 459 399 l 1,25,-1
 75 399 l 1,22,-1
75 93 m 1,26,-1
 75 0 l 1,27,-1
 459 0 l 1,28,-1
 459 93 l 1,29,-1
 75 93 l 1,26,-1
75 603 m 1,30,-1
 75 696 l 1,31,-1
 459 696 l 1,32,-1
 459 603 l 1,33,-1
 75 603 l 1,30,-1
EndSplineSet
Validated: 9
EndChar

StartChar: F
Encoding: 70 70 49
Width: 515
GlyphClass: 1
Flags: W
LayerCount: 2
Fore
SplineSet
309.5 913 m 132,-1,1
 309.5 928 309.5 928 321.5 940 c 132,-1,2
 333.5 952 333.5 952 349 952 c 4,3,4
 363.5 952 363.5 952 375.5 940 c 132,-1,5
 387.5 928 387.5 928 387.5 912.5 c 4,6,7
 387.5 898 387.5 898 375.5 886 c 132,-1,8
 363.5 874 363.5 874 348 874 c 4,9,10
 333.5 874 333.5 874 321.5 886 c 132,-1,0
 309.5 898 309.5 898 309.5 913 c 132,-1,1
484 695 m 1,11,-1
 484 602 l 1,12,-1
 189 602 l 1,13,-1
 189 397 l 1,14,-1
 419 397 l 1,15,-1
 419 304 l 1,16,-1
 189 304 l 1,17,-1
 189 0 l 1,18,-1
 75 0 l 1,19,-1
 75 695 l 1,20,-1
 484 695 l 1,11,-1
EndSplineSet
Validated: 1
EndChar

StartChar: G
Encoding: 71 71 50
Width: 773
GlyphClass: 1
Flags: W
LayerCount: 2
Fore
SplineSet
67.5 -39 m 132,-1,1
 67.5 -24 67.5 -24 79.5 -12 c 132,-1,2
 91.5 0 91.5 0 107 0 c 4,3,4
 121.5 0 121.5 0 133.5 -12 c 132,-1,5
 145.5 -24 145.5 -24 145.5 -39.5 c 4,6,7
 145.5 -54 145.5 -54 133.5 -66 c 132,-1,8
 121.5 -78 121.5 -78 106 -78 c 4,9,10
 91.5 -78 91.5 -78 79.5 -66 c 132,-1,0
 67.5 -54 67.5 -54 67.5 -39 c 132,-1,1
578 495 m 1,11,12
 551 547 551 547 503 573.5 c 128,-1,13
 455 600 455 600 392 600 c 0,14,15
 323 600 323 600 269 569 c 128,-1,16
 215 538 215 538 184.5 481 c 128,-1,17
 154 424 154 424 154 349 c 256,18,19
 154 274 154 274 184.5 216.5 c 128,-1,20
 215 159 215 159 269 128 c 128,-1,21
 323 97 323 97 392 97 c 0,22,23
 485 97 485 97 543 149 c 128,-1,24
 601 201 601 201 614 290 c 1,25,-1
 353 290 l 1,26,-1
 353 381 l 1,27,-1
 736 381 l 1,28,-1
 736 292 l 1,29,30
 725 211 725 211 678.5 143 c 128,-1,31
 632 75 632 75 557.5 34.5 c 128,-1,32
 483 -6 483 -6 392 -6 c 0,33,34
 294 -6 294 -6 213 39.5 c 128,-1,35
 132 85 132 85 84.5 166 c 128,-1,36
 37 247 37 247 37 349 c 256,37,38
 37 451 37 451 84.5 532 c 128,-1,39
 132 613 132 613 213.5 658.5 c 128,-1,40
 295 704 295 704 392 704 c 0,41,42
 503 704 503 704 589.5 649.5 c 128,-1,43
 676 595 676 595 715 495 c 1,44,-1
 578 495 l 1,11,12
EndSplineSet
Validated: 1
EndChar

StartChar: H
Encoding: 72 72 51
Width: 705
GlyphClass: 1
Flags: W
LayerCount: 2
Fore
SplineSet
145.5 999 m 132,-1,1
 145.5 1014 145.5 1014 157.5 1026 c 132,-1,2
 169.5 1038 169.5 1038 185 1038 c 4,3,4
 199.5 1038 199.5 1038 211.5 1026 c 132,-1,5
 223.5 1014 223.5 1014 223.5 998.5 c 4,6,7
 223.5 984 223.5 984 211.5 972 c 132,-1,8
 199.5 960 199.5 960 184 960 c 4,9,10
 169.5 960 169.5 960 157.5 972 c 132,-1,0
 145.5 984 145.5 984 145.5 999 c 132,-1,1
630 695 m 1,11,-1
 630 0 l 1,12,-1
 516 0 l 1,13,-1
 516 304 l 1,14,-1
 189 304 l 1,15,-1
 189 0 l 1,16,-1
 75 0 l 1,17,-1
 75 695 l 1,18,-1
 189 695 l 1,19,-1
 189 397 l 1,20,-1
 516 397 l 1,21,-1
 516 695 l 1,22,-1
 630 695 l 1,11,-1
EndSplineSet
Validated: 1
EndChar

StartChar: I
Encoding: 73 73 52
Width: 264
GlyphClass: 1
Flags: W
LayerCount: 2
Fore
SplineSet
11 -172 m 128,-1,1
 11 -157 11 -157 23 -145 c 128,-1,2
 35 -133 35 -133 50.5 -133 c 0,3,4
 65 -133 65 -133 77 -145 c 128,-1,5
 89 -157 89 -157 89 -172.5 c 0,6,7
 89 -187 89 -187 77 -199 c 128,-1,8
 65 -211 65 -211 49.5 -211 c 0,9,10
 35 -211 35 -211 23 -199 c 128,-1,0
 11 -187 11 -187 11 -172 c 128,-1,1
160.5 964 m 4,11,12
 160 979 160 979 172.5 991 c 4,13,14
 184 1003 184 1003 200 1003 c 4,15,16
 214 1003 214 1003 226.5 991 c 4,17,18
 239 978 239 978 238.5 963.5 c 132,-1,19
 238 949 238 949 226.5 937 c 4,20,21
 214 925 214 925 199 925 c 132,-1,22
 184 925 184 925 172.5 937 c 4,23,24
 160 949 160 949 160.5 964 c 4,11,12
189 695 m 1,25,-1
 189 0 l 1,26,-1
 75 0 l 1,27,-1
 75 695 l 1,28,-1
 189 695 l 1,25,-1
EndSplineSet
Validated: 1
EndChar

StartChar: J
Encoding: 74 74 53
Width: 564
GlyphClass: 1
Flags: W
LayerCount: 2
Fore
SplineSet
454 695 m 1,0,-1
 454 194 l 2,1,2
 454 101 454 101 397.5 47 c 128,-1,3
 341 -7 341 -7 249 -7 c 256,4,5
 157 -7 157 -7 100.5 47 c 128,-1,6
 44 101 44 101 44 194 c 1,7,-1
 159 194 l 1,8,9
 160 148 160 148 182.5 121 c 128,-1,10
 205 94 205 94 249 94 c 256,11,12
 293 94 293 94 316 121.5 c 128,-1,13
 339 149 339 149 339 194 c 2,14,-1
 339 695 l 1,15,-1
 454 695 l 1,0,-1
EndSplineSet
Validated: 1
EndChar

StartChar: K
Encoding: 75 75 54
Width: 633
GlyphClass: 1
Flags: W
LayerCount: 2
Fore
SplineSet
458 0 m 1,0,-1
 189 311 l 1,1,-1
 189 0 l 1,2,-1
 75 0 l 1,3,-1
 75 695 l 1,4,-1
 189 695 l 1,5,-1
 189 378 l 1,6,-1
 459 695 l 1,7,-1
 602 695 l 1,8,-1
 300 347 l 1,9,-1
 607 0 l 1,10,-1
 458 0 l 1,0,-1
EndSplineSet
Validated: 1
EndChar

StartChar: L
Encoding: 76 76 55
Width: 444
GlyphClass: 1
Flags: W
LayerCount: 2
Fore
SplineSet
301.5 787 m 132,-1,1
 301.5 802 301.5 802 313.5 814 c 132,-1,2
 325.5 826 325.5 826 341 826 c 4,3,4
 355.5 826 355.5 826 367.5 814 c 132,-1,5
 379.5 802 379.5 802 379.5 786.5 c 4,6,7
 379.5 772 379.5 772 367.5 760 c 132,-1,8
 355.5 748 355.5 748 340 748 c 4,9,10
 325.5 748 325.5 748 313.5 760 c 132,-1,0
 301.5 772 301.5 772 301.5 787 c 132,-1,1
189 92 m 1,11,-1
 424 92 l 1,12,-1
 424 0 l 1,13,-1
 75 0 l 1,14,-1
 75 695 l 1,15,-1
 189 695 l 1,16,-1
 189 92 l 1,11,-1
EndSplineSet
Validated: 1
EndChar

StartChar: M
Encoding: 77 77 56
Width: 882
GlyphClass: 1
Flags: W
LayerCount: 2
Fore
SplineSet
251.5 -195 m 132,-1,1
 251.5 -180 251.5 -180 263.5 -168 c 132,-1,2
 275.5 -156 275.5 -156 291 -156 c 4,3,4
 305.5 -156 305.5 -156 317.5 -168 c 132,-1,5
 329.5 -180 329.5 -180 329.5 -195.5 c 4,6,7
 329.5 -210 329.5 -210 317.5 -222 c 132,-1,8
 305.5 -234 305.5 -234 290 -234 c 4,9,10
 275.5 -234 275.5 -234 263.5 -222 c 132,-1,0
 251.5 -210 251.5 -210 251.5 -195 c 132,-1,1
807 695 m 1,11,-1
 807 0 l 1,12,-1
 693 0 l 1,13,-1
 693 476 l 1,14,-1
 481 0 l 1,15,-1
 402 0 l 1,16,-1
 189 476 l 1,17,-1
 189 0 l 1,18,-1
 75 0 l 1,19,-1
 75 695 l 1,20,-1
 198 695 l 1,21,-1
 442 150 l 1,22,-1
 685 695 l 1,23,-1
 807 695 l 1,11,-1
EndSplineSet
Validated: 1
EndChar

StartChar: N
Encoding: 78 78 57
Width: 721
GlyphClass: 1
Flags: W
LayerCount: 2
Fore
SplineSet
397.5 -111 m 128,-1,1
 397.5 -96 397.5 -96 409.5 -84 c 128,-1,2
 421.5 -72 421.5 -72 437 -72 c 0,3,4
 451.5 -72 451.5 -72 463.5 -84 c 128,-1,5
 475.5 -96 475.5 -96 475.5 -111.5 c 0,6,7
 475.5 -126 475.5 -126 463.5 -138 c 128,-1,8
 451.5 -150 451.5 -150 436 -150 c 0,9,10
 421.5 -150 421.5 -150 409.5 -138 c 128,-1,0
 397.5 -126 397.5 -126 397.5 -111 c 128,-1,1
646 0 m 1,11,-1
 532 0 l 1,12,-1
 189 519 l 1,13,-1
 189 0 l 1,14,-1
 75 0 l 1,15,-1
 75 696 l 1,16,-1
 189 696 l 1,17,-1
 532 178 l 1,18,-1
 532 696 l 1,19,-1
 646 696 l 1,20,-1
 646 0 l 1,11,-1
EndSplineSet
Validated: 1
EndChar

StartChar: O
Encoding: 79 79 58
Width: 784
GlyphClass: 1
Flags: W
LayerCount: 2
Fore
SplineSet
69 -65 m 128,-1,1
 69 -50 69 -50 81 -38 c 128,-1,2
 93 -26 93 -26 108.5 -26 c 0,3,4
 123 -26 123 -26 135 -38 c 128,-1,5
 147 -50 147 -50 147 -65.5 c 0,6,7
 147 -80 147 -80 135 -92 c 128,-1,8
 123 -104 123 -104 107.5 -104 c 0,9,10
 93 -104 93 -104 81 -92 c 128,-1,0
 69 -80 69 -80 69 -65 c 128,-1,1
611 862 m 4,11,12
 611 898 611 898 635 921 c 4,13,14
 659 946 659 946 694.5 945.5 c 4,15,16
 731 946 731 946 755 921 c 132,-1,17
 779 896 779 896 779 862 c 4,18,19
 779 826 779 826 755 803 c 4,20,21
 729 778 729 778 695.5 778.5 c 4,22,23
 659 780 659 780 635 803 c 4,24,25
 611 828 611 828 611 862 c 4,11,12
77 268 m 128,-1,27
 77 365 77 365 146 434 c 128,-1,28
 215 503 215 503 312 503 c 128,-1,29
 409 503 409 503 478 434 c 128,-1,30
 547 365 547 365 547 268 c 128,-1,31
 547 171 547 171 478 102 c 128,-1,32
 409 33 409 33 312 33 c 128,-1,33
 215 33 215 33 146 102 c 128,-1,26
 77 171 77 171 77 268 c 128,-1,27
136 349 m 128,-1,35
 136 243 136 243 211 168 c 128,-1,36
 286 93 286 93 392 93 c 128,-1,37
 498 93 498 93 573 168 c 128,-1,38
 648 243 648 243 648 349 c 128,-1,39
 648 455 648 455 573 530 c 128,-1,40
 498 605 498 605 392 605 c 128,-1,41
 286 605 286 605 211 530 c 128,-1,34
 136 455 136 455 136 349 c 128,-1,35
213.5 38.5 m 128,-1,43
 132 84 132 84 84.5 165.5 c 128,-1,44
 37 247 37 247 37 349 c 256,45,46
 37 451 37 451 84.5 532 c 128,-1,47
 132 613 132 613 213.5 658.5 c 128,-1,48
 295 704 295 704 392 704 c 0,49,50
 490 704 490 704 571.5 658.5 c 128,-1,51
 653 613 653 613 700 532 c 128,-1,52
 747 451 747 451 747 349 c 256,53,54
 747 247 747 247 700 165.5 c 128,-1,55
 653 84 653 84 571.5 38.5 c 128,-1,56
 490 -7 490 -7 392 -7 c 0,57,42
 295 -7 295 -7 213.5 38.5 c 128,-1,43
EndSplineSet
Validated: 37
EndChar

StartChar: P
Encoding: 80 80 59
Width: 595
GlyphClass: 1
Flags: W
LayerCount: 2
Fore
SplineSet
410 883 m 132,-1,1
 410 898 410 898 422 910 c 132,-1,2
 434 922 434 922 449.5 922 c 4,3,4
 464 922 464 922 476 910 c 132,-1,5
 488 898 488 898 488 882.5 c 4,6,7
 488 868 488 868 476 856 c 132,-1,8
 464 844 464 844 448.5 844 c 4,9,10
 434 844 434 844 422 856 c 132,-1,0
 410 868 410 868 410 883 c 132,-1,1
536 388 m 128,-1,12
 511 341 511 341 456 311.5 c 128,-1,13
 401 282 401 282 315 282 c 2,14,-1
 189 282 l 1,15,-1
 189 0 l 1,16,-1
 75 0 l 1,17,-1
 75 695 l 1,18,-1
 315 695 l 2,19,20
 395 695 395 695 450.5 667.5 c 128,-1,21
 506 640 506 640 533.5 593 c 128,-1,22
 561 546 561 546 561 488 c 0,23,11
 561 435 561 435 536 388 c 128,-1,12
412 404.5 m 128,-1,25
 444 434 444 434 444 488 c 0,26,27
 444 602 444 602 315 602 c 2,28,-1
 189 602 l 1,29,-1
 189 375 l 1,30,-1
 315 375 l 2,31,24
 380 375 380 375 412 404.5 c 128,-1,25
EndSplineSet
Validated: 1
EndChar

StartChar: Q
Encoding: 81 81 60
Width: 787
GlyphClass: 1
Flags: W
LayerCount: 2
Fore
SplineSet
45 -223 m 4,0,1
 45 -187 45 -187 69 -164 c 4,2,3
 93 -139 93 -139 128.5 -139.5 c 4,4,5
 165 -139 165 -139 189 -164 c 132,-1,6
 213 -189 213 -189 213 -223 c 4,7,8
 213 -259 213 -259 189 -282 c 4,9,10
 163 -307 163 -307 129.5 -306.5 c 4,11,12
 93 -305 93 -305 69 -282 c 4,13,14
 45 -257 45 -257 45 -223 c 4,0,1
707 430 m 128,-1,16
 707 333 707 333 638 264 c 128,-1,17
 569 195 569 195 472 195 c 128,-1,18
 375 195 375 195 306 264 c 128,-1,19
 237 333 237 333 237 430 c 128,-1,20
 237 527 237 527 306 596 c 128,-1,21
 375 665 375 665 472 665 c 128,-1,22
 569 665 569 665 638 596 c 128,-1,15
 707 527 707 527 707 430 c 128,-1,16
648 349 m 128,-1,24
 648 455 648 455 573 530 c 128,-1,25
 498 605 498 605 392 605 c 128,-1,26
 286 605 286 605 211 530 c 128,-1,27
 136 455 136 455 136 349 c 128,-1,28
 136 243 136 243 211 168 c 128,-1,29
 286 93 286 93 392 93 c 128,-1,30
 498 93 498 93 573 168 c 128,-1,23
 648 243 648 243 648 349 c 128,-1,24
613 -126 m 1,31,-1
 491 6 l 1,32,33
 446 -7 446 -7 392 -7 c 0,34,35
 295 -7 295 -7 213.5 38.5 c 128,-1,36
 132 84 132 84 84.5 165.5 c 128,-1,37
 37 247 37 247 37 349 c 256,38,39
 37 451 37 451 84.5 532 c 128,-1,40
 132 613 132 613 213.5 658.5 c 128,-1,41
 295 704 295 704 392 704 c 0,42,43
 490 704 490 704 571.5 658.5 c 128,-1,44
 653 613 653 613 700 532 c 128,-1,45
 747 451 747 451 747 349 c 0,46,47
 747 253 747 253 705.5 175.5 c 128,-1,48
 664 98 664 98 591 51 c 1,49,-1
 758 -126 l 1,50,-1
 613 -126 l 1,31,-1
EndSplineSet
Validated: 37
EndChar

StartChar: R
Encoding: 82 82 61
Width: 632
GlyphClass: 1
Flags: W
LayerCount: 2
Fore
SplineSet
87 -37 m 132,-1,1
 87 -22 87 -22 99 -10 c 132,-1,2
 111 2 111 2 126.5 2 c 4,3,4
 141 2 141 2 153 -10 c 132,-1,5
 165 -22 165 -22 165 -37.5 c 4,6,7
 165 -52 165 -52 153 -64 c 132,-1,8
 141 -76 141 -76 125.5 -76 c 4,9,10
 111 -76 111 -76 99 -64 c 132,-1,0
 87 -52 87 -52 87 -37 c 132,-1,1
315 602 m 1,11,12
 380 602 380 602 412 571.5 c 128,-1,13
 444 541 444 541 444 487 c 256,14,15
 444 433 444 433 411.5 401 c 128,-1,16
 379 369 379 369 315 369 c 2,17,18
 315 369 315 369 223 369 c 17,19,-1
 436 0 l 1,20,-1
 572 0 l 1,21,-1
 400 288 l 1,22,23
 482 308 482 308 521.5 363.5 c 128,-1,24
 561 419 561 419 561 487 c 0,25,26
 561 545 561 545 533.5 592 c 128,-1,27
 506 639 506 639 450.5 667 c 128,-1,28
 395 695 395 695 315 695 c 2,29,30
 315 695 315 695 75 695 c 1,31,-1
 75 602 l 1,32,-1
 315 602 l 1,11,12
EndSplineSet
Validated: 9
EndChar

StartChar: S
Encoding: 83 83 62
Width: 604
GlyphClass: 1
Flags: W
LayerCount: 2
Fore
SplineSet
359.5 -163 m 132,-1,1
 359.5 -148 359.5 -148 371.5 -136 c 132,-1,2
 383.5 -124 383.5 -124 399 -124 c 4,3,4
 413.5 -124 413.5 -124 425.5 -136 c 132,-1,5
 437.5 -148 437.5 -148 437.5 -163.5 c 4,6,7
 437.5 -178 437.5 -178 425.5 -190 c 132,-1,8
 413.5 -202 413.5 -202 398 -202 c 4,9,10
 383.5 -202 383.5 -202 371.5 -190 c 132,-1,0
 359.5 -178 359.5 -178 359.5 -163 c 132,-1,1
178 17.5 m 128,-1,12
 122 42 122 42 90 87 c 128,-1,13
 58 132 58 132 58 192 c 1,14,-1
 180 192 l 1,15,16
 184 147 184 147 215.5 118 c 128,-1,17
 247 89 247 89 304 89 c 0,18,19
 363 89 363 89 396 117.5 c 128,-1,20
 429 146 429 146 429 191 c 0,21,22
 429 226 429 226 408.5 248 c 128,-1,23
 388 270 388 270 357.5 282 c 128,-1,24
 327 294 327 294 273 308 c 0,25,26
 205 326 205 326 162.5 344.5 c 128,-1,27
 120 363 120 363 90 402 c 128,-1,28
 60 441 60 441 60 506 c 0,29,30
 60 566 60 566 90 611 c 128,-1,31
 120 656 120 656 174 680 c 128,-1,32
 228 704 228 704 299 704 c 0,33,34
 400 704 400 704 464.5 653.5 c 128,-1,35
 529 603 529 603 536 515 c 1,36,-1
 410 515 l 1,37,38
 407 553 407 553 374 580 c 128,-1,39
 341 607 341 607 287 607 c 0,40,41
 238 607 238 607 207 582 c 128,-1,42
 176 557 176 557 176 510 c 0,43,44
 176 478 176 478 195.5 457.5 c 128,-1,45
 215 437 215 437 245 425 c 128,-1,46
 275 413 275 413 327 399 c 0,47,48
 396 380 396 380 439.5 361 c 128,-1,49
 483 342 483 342 513.5 302.5 c 128,-1,50
 544 263 544 263 544 197 c 0,51,52
 544 144 544 144 515.5 97 c 128,-1,53
 487 50 487 50 432.5 21.5 c 128,-1,54
 378 -7 378 -7 304 -7 c 0,55,11
 234 -7 234 -7 178 17.5 c 128,-1,12
EndSplineSet
Validated: 1
EndChar

StartChar: T
Encoding: 84 84 63
Width: 564
GlyphClass: 1
Flags: W
LayerCount: 2
Fore
SplineSet
337 910 m 132,-1,1
 337 925 337 925 349 937 c 132,-1,2
 361 949 361 949 376.5 949 c 4,3,4
 391 949 391 949 403 937 c 132,-1,5
 415 925 415 925 415 909.5 c 4,6,7
 415 895 415 895 403 883 c 132,-1,8
 391 871 391 871 375.5 871 c 4,9,10
 361 871 361 871 349 883 c 132,-1,0
 337 895 337 895 337 910 c 132,-1,1
524 695 m 1,11,-1
 524 602 l 1,12,-1
 339 602 l 1,13,-1
 339 0 l 1,14,-1
 225 0 l 1,15,-1
 225 602 l 1,16,-1
 39 602 l 1,17,-1
 39 695 l 1,18,-1
 524 695 l 1,11,-1
EndSplineSet
Validated: 1
EndChar

StartChar: U
Encoding: 85 85 64
Width: 690
GlyphClass: 1
Flags: W
LayerCount: 2
Fore
SplineSet
263.5 823 m 128,-1,1
 263.5 838 263.5 838 275.5 850 c 128,-1,2
 287.5 862 287.5 862 303 862 c 0,3,4
 317.5 862 317.5 862 329.5 850 c 128,-1,5
 341.5 838 341.5 838 341.5 822.5 c 0,6,7
 341.5 808 341.5 808 329.5 796 c 128,-1,8
 317.5 784 317.5 784 302 784 c 0,9,10
 287.5 784 287.5 784 275.5 796 c 128,-1,0
 263.5 808 263.5 808 263.5 823 c 128,-1,1
442.5 -207 m 0,11,12
 443 -192 443 -192 454.5 -180 c 0,13,14
 467 -168 467 -168 482 -168 c 128,-1,15
 497 -168 497 -168 508.5 -180 c 0,16,17
 520 -191 520 -191 520.5 -207.5 c 0,18,19
 521 -222 521 -222 508.5 -234 c 0,20,21
 497 -246 497 -246 481 -246 c 0,22,23
 467 -246 467 -246 454.5 -234 c 0,24,25
 443 -222 443 -222 442.5 -207 c 0,11,12
188 695 m 1,26,-1
 188 252 l 2,27,28
 188 173 188 173 229.5 133 c 128,-1,29
 271 93 271 93 345 93 c 0,30,31
 420 93 420 93 461.5 133 c 128,-1,32
 503 173 503 173 503 252 c 2,33,-1
 503 695 l 1,34,-1
 617 695 l 1,35,-1
 617 254 l 2,36,37
 617 169 617 169 580 110 c 128,-1,38
 543 51 543 51 481 22 c 128,-1,39
 419 -7 419 -7 344 -7 c 256,40,41
 269 -7 269 -7 207.5 22 c 128,-1,42
 146 51 146 51 110 110 c 128,-1,43
 74 169 74 169 74 254 c 2,44,-1
 74 695 l 1,45,-1
 188 695 l 1,26,-1
EndSplineSet
Validated: 1
EndChar

StartChar: V
Encoding: 86 86 65
Width: 694
GlyphClass: 1
Flags: W
LayerCount: 2
Fore
SplineSet
360 817 m 132,-1,1
 360 832 360 832 372 844 c 132,-1,2
 384 856 384 856 399.5 856 c 4,3,4
 414 856 414 856 426 844 c 132,-1,5
 438 832 438 832 438 816.5 c 4,6,7
 438 802 438 802 426 790 c 132,-1,8
 414 778 414 778 398.5 778 c 4,9,10
 384 778 384 778 372 790 c 132,-1,0
 360 802 360 802 360 817 c 132,-1,1
674 695 m 1,11,-1
 413 0 l 1,12,-1
 281 0 l 1,13,-1
 19 695 l 1,14,-1
 141 695 l 1,15,-1
 347 117 l 1,16,-1
 554 695 l 1,17,-1
 674 695 l 1,11,-1
EndSplineSet
Validated: 1
EndChar

StartChar: W
Encoding: 87 87 66
Width: 999
GlyphClass: 1
Flags: W
LayerCount: 2
Fore
SplineSet
980 695 m 1,0,-1
 774 0 l 1,1,-1
 645 0 l 1,2,-1
 499 526 l 1,3,-1
 344 0 l 1,4,-1
 216 -1 l 1,5,-1
 19 695 l 1,6,-1
 140 695 l 1,7,-1
 284 129 l 1,8,-1
 440 695 l 1,9,-1
 568 695 l 1,10,-1
 713 132 l 1,11,-1
 858 695 l 1,12,-1
 980 695 l 1,0,-1
EndSplineSet
Validated: 1
EndChar

StartChar: X
Encoding: 88 88 67
Width: 660
GlyphClass: 1
Flags: W
LayerCount: 2
Fore
SplineSet
394 347 m 1,0,-1
 610 0 l 1,1,-1
 482 0 l 1,2,-1
 325 252 l 1,3,-1
 178 0 l 1,4,-1
 51 0 l 1,5,-1
 267 347 l 1,6,-1
 50 695 l 1,7,-1
 178 695 l 1,8,-1
 336 441 l 1,9,-1
 484 695 l 1,10,-1
 611 695 l 1,11,-1
 394 347 l 1,0,-1
EndSplineSet
Validated: 1
EndChar

StartChar: Y
Encoding: 89 89 68
Width: 605
GlyphClass: 1
Flags: W
LayerCount: 2
Fore
SplineSet
590 695 m 1,0,-1
 360 252 l 1,1,-1
 360 0 l 1,2,-1
 246 0 l 1,3,-1
 246 252 l 1,4,-1
 15 695 l 1,5,-1
 142 695 l 1,6,-1
 303 354 l 1,7,-1
 464 695 l 1,8,-1
 590 695 l 1,0,-1
EndSplineSet
Validated: 1
EndChar

StartChar: Z
Encoding: 90 90 69
Width: 558
GlyphClass: 1
Flags: W
LayerCount: 2
Fore
SplineSet
149.5 -265 m 132,-1,1
 149.5 -250 149.5 -250 161.5 -238 c 132,-1,2
 173.5 -226 173.5 -226 189 -226 c 4,3,4
 203.5 -226 203.5 -226 215.5 -238 c 132,-1,5
 227.5 -250 227.5 -250 227.5 -265.5 c 4,6,7
 227.5 -280 227.5 -280 215.5 -292 c 132,-1,8
 203.5 -304 203.5 -304 188 -304 c 4,9,10
 173.5 -304 173.5 -304 161.5 -292 c 132,-1,0
 149.5 -280 149.5 -280 149.5 -265 c 132,-1,1
185 99 m 1,11,-1
 508 99 l 1,12,-1
 508 0 l 1,13,-1
 50 0 l 1,14,-1
 50 89 l 1,15,-1
 372 596 l 1,16,-1
 50 596 l 1,17,-1
 50 695 l 1,18,-1
 508 695 l 1,19,-1
 508 606 l 1,20,-1
 185 99 l 1,11,-1
EndSplineSet
Validated: 1
EndChar

StartChar: bracketleft
Encoding: 91 91 70
Width: 485
GlyphClass: 1
Flags: W
LayerCount: 2
Fore
SplineSet
356 934 m 1,0,-1
 356 840 l 1,1,-1
 255 840 l 1,2,-1
 255 -91 l 1,3,-1
 356 -91 l 1,4,-1
 356 -186 l 1,5,-1
 148 -186 l 1,6,-1
 148 934 l 1,7,-1
 356 934 l 1,0,-1
EndSplineSet
Validated: 1
EndChar

StartChar: backslash
Encoding: 92 92 71
Width: 717
GlyphClass: 1
Flags: W
LayerCount: 2
Fore
SplineSet
464 -175 m 1,0,-1
 164 944 l 1,1,-1
 276 944 l 1,2,-1
 576 -175 l 1,3,-1
 464 -175 l 1,0,-1
EndSplineSet
Validated: 1
EndChar

StartChar: bracketright
Encoding: 93 93 72
Width: 484
GlyphClass: 1
Flags: W
LayerCount: 2
Fore
SplineSet
336 -186 m 1,0,-1
 128 -186 l 1,1,-1
 128 -91 l 1,2,-1
 229 -91 l 1,3,-1
 229 840 l 1,4,-1
 128 840 l 1,5,-1
 128 934 l 1,6,-1
 336 934 l 1,7,-1
 336 -186 l 1,0,-1
EndSplineSet
Validated: 1
EndChar

StartChar: asciicircum
Encoding: 94 94 73
Width: 654
GlyphClass: 1
Flags: W
LayerCount: 2
Fore
SplineSet
154 168 m 1,0,-1
 36 168 l 1,1,-1
 273 696 l 1,2,-1
 381 696 l 1,3,-1
 619 168 l 1,4,-1
 500 168 l 1,5,-1
 328 558 l 1,6,-1
 154 168 l 1,0,-1
EndSplineSet
Validated: 1
EndChar

StartChar: underscore
Encoding: 95 95 74
Width: 798
GlyphClass: 1
Flags: W
LayerCount: 2
Fore
SplineSet
684 -40 m 1,0,-1
 684 -146 l 1,1,-1
 126 -146 l 1,2,-1
 126 -40 l 1,3,-1
 684 -40 l 1,0,-1
EndSplineSet
Validated: 1
EndChar

StartChar: grave
Encoding: 96 96 75
Width: 254
GlyphClass: 1
Flags: W
LayerCount: 2
Fore
SplineSet
231 674 m 1,0,-1
 231 590 l 1,1,-1
 10 699 l 1,2,-1
 10 796 l 1,3,-1
 231 674 l 1,0,-1
EndSplineSet
Validated: 1
EndChar

StartChar: a
Encoding: 97 97 76
Width: 697
GlyphClass: 1
Flags: W
LayerCount: 2
Fore
SplineSet
203 142 m 1,0,-1
 153 0 l 1,1,-1
 34 0 l 1,2,-1
 283 696 l 1,3,-1
 415 696 l 1,4,-1
 664 0 l 1,5,-1
 544 0 l 1,6,-1
 494 142 l 1,7,-1
 349 558 l 1,8,-1
 203 142 l 1,0,-1
EndSplineSet
Validated: 1
Substitution2: "'ss02' Style Set 2 lookup 21 subtable" a.ss02
EndChar

StartChar: b
Encoding: 98 98 77
Width: 630
GlyphClass: 1
Flags: W
LayerCount: 2
Fore
SplineSet
75 93 m 1,0,-1
 75 0 l 1,1,-1
 353 0 l 2,2,3
 422 0 422 0 474 24.5 c 128,-1,4
 526 49 526 49 553.5 91.5 c 128,-1,5
 581 134 581 134 581 187 c 0,6,7
 581 249 581 249 542 298 c 128,-1,8
 503 347 503 347 447 357 c 1,9,10
 501 376 501 376 533 416 c 128,-1,11
 565 456 565 456 565 516 c 0,12,13
 565 566 565 566 539 606.5 c 128,-1,14
 513 647 513 647 462 671 c 128,-1,15
 411 695 411 695 340 695 c 2,16,17
 340 695 340 695 75 695 c 1,18,-1
 75 602 l 1,19,-1
 330 602 l 2,20,21
 391 602 391 602 417.5 575.5 c 0,22,23
 449 544 449 544 449 502 c 0,24,25
 449 454 449 454 417.498892493 428.676093663 c 0,26,27
 386 403 386 403 330 403 c 2,28,29
 330 403 330 403 75 403 c 1,30,-1
 75 310 l 1,31,-1
 339 310 l 2,32,33
 394 310 394 310 432 280 c 0,34,35
 467 252 467 252 467 199 c 0,36,37
 467 149 467 149 434 121 c 0,38,39
 400 93 400 93 343 93 c 2,40,41
 343 93 343 93 75 93 c 1,0,-1
EndSplineSet
Validated: 9
EndChar

StartChar: c
Encoding: 99 99 78
Width: 773
GlyphClass: 1
Flags: W
LayerCount: 2
Fore
SplineSet
84.5 532 m 128,-1,1
 132 613 132 613 213.5 658.5 c 128,-1,2
 295 704 295 704 392 704 c 0,3,4
 503 704 503 704 589.5 649.5 c 128,-1,5
 676 595 676 595 715 495 c 1,6,-1
 578 495 l 1,7,8
 551 550 551 550 503 577 c 128,-1,9
 455 604 455 604 392 604 c 0,10,11
 323 604 323 604 269 573 c 128,-1,12
 215 542 215 542 184.5 484 c 128,-1,13
 154 426 154 426 154 349 c 256,14,15
 154 272 154 272 184.5 214 c 128,-1,16
 215 156 215 156 269 124.5 c 128,-1,17
 323 93 323 93 392 93 c 0,18,19
 455 93 455 93 503 120 c 128,-1,20
 551 147 551 147 578 202 c 1,21,-1
 715 202 l 1,22,23
 676 102 676 102 589.5 48 c 128,-1,24
 503 -6 503 -6 392 -6 c 0,25,26
 294 -6 294 -6 213 39.5 c 128,-1,27
 132 85 132 85 84.5 166 c 128,-1,28
 37 247 37 247 37 349 c 256,29,0
 37 451 37 451 84.5 532 c 128,-1,1
EndSplineSet
Validated: 1
EndChar

StartChar: d
Encoding: 100 100 79
Width: 709
GlyphClass: 1
Flags: W
LayerCount: 2
Fore
SplineSet
496.5 652.5 m 128,-1,1
 580 610 580 610 625.5 530.5 c 128,-1,2
 671 451 671 451 671 345 c 256,3,4
 671 239 671 239 625.5 161 c 128,-1,5
 580 83 580 83 496.5 41.5 c 128,-1,6
 413 0 413 0 302 0 c 2,7,-1
 75 0 l 1,8,-1
 75 695 l 1,9,-1
 302 695 l 2,10,0
 413 695 413 695 496.5 652.5 c 128,-1,1
489 159 m 128,-1,12
 554 225 554 225 554 345 c 0,13,14
 554 466 554 466 489 534 c 128,-1,15
 424 602 424 602 302 602 c 2,16,-1
 189 602 l 1,17,-1
 189 93 l 1,18,-1
 302 93 l 2,19,11
 424 93 424 93 489 159 c 128,-1,12
EndSplineSet
Validated: 1
EndChar

StartChar: e
Encoding: 101 101 80
Width: 524
GlyphClass: 1
Flags: W
LayerCount: 2
Fore
SplineSet
75 399 m 1,0,-1
 75 306 l 1,1,-1
 459 306 l 1,2,-1
 459 399 l 1,3,-1
 75 399 l 1,0,-1
75 93 m 1,4,-1
 75 0 l 1,5,-1
 459 0 l 1,6,-1
 459 93 l 1,7,-1
 75 93 l 1,4,-1
75 603 m 1,8,-1
 75 696 l 1,9,-1
 459 696 l 1,10,-1
 459 603 l 1,11,-1
 75 603 l 1,8,-1
EndSplineSet
Validated: 9
EndChar

StartChar: f
Encoding: 102 102 81
Width: 515
GlyphClass: 1
Flags: W
LayerCount: 2
Fore
SplineSet
484 695 m 1,0,-1
 484 602 l 1,1,-1
 189 602 l 1,2,-1
 189 397 l 1,3,-1
 419 397 l 1,4,-1
 419 304 l 1,5,-1
 189 304 l 1,6,-1
 189 0 l 1,7,-1
 75 0 l 1,8,-1
 75 695 l 1,9,-1
 484 695 l 1,0,-1
EndSplineSet
Validated: 1
EndChar

StartChar: g
Encoding: 103 103 82
Width: 773
GlyphClass: 1
Flags: W
LayerCount: 2
Fore
SplineSet
578 495 m 1,0,1
 551 547 551 547 503 573.5 c 128,-1,2
 455 600 455 600 392 600 c 0,3,4
 323 600 323 600 269 569 c 128,-1,5
 215 538 215 538 184.5 481 c 128,-1,6
 154 424 154 424 154 349 c 256,7,8
 154 274 154 274 184.5 216.5 c 128,-1,9
 215 159 215 159 269 128 c 128,-1,10
 323 97 323 97 392 97 c 0,11,12
 485 97 485 97 543 149 c 128,-1,13
 601 201 601 201 614 290 c 1,14,-1
 353 290 l 1,15,-1
 353 381 l 1,16,-1
 736 381 l 1,17,-1
 736 292 l 1,18,19
 725 211 725 211 678.5 143 c 128,-1,20
 632 75 632 75 557.5 34.5 c 128,-1,21
 483 -6 483 -6 392 -6 c 0,22,23
 294 -6 294 -6 213 39.5 c 128,-1,24
 132 85 132 85 84.5 166 c 128,-1,25
 37 247 37 247 37 349 c 256,26,27
 37 451 37 451 84.5 532 c 128,-1,28
 132 613 132 613 213.5 658.5 c 128,-1,29
 295 704 295 704 392 704 c 0,30,31
 503 704 503 704 589.5 649.5 c 128,-1,32
 676 595 676 595 715 495 c 1,33,-1
 578 495 l 1,0,1
EndSplineSet
Validated: 1
EndChar

StartChar: h
Encoding: 104 104 83
Width: 705
GlyphClass: 1
Flags: W
LayerCount: 2
Fore
SplineSet
630 695 m 1,0,-1
 630 0 l 1,1,-1
 516 0 l 1,2,-1
 516 304 l 1,3,-1
 189 304 l 1,4,-1
 189 0 l 1,5,-1
 75 0 l 1,6,-1
 75 695 l 1,7,-1
 189 695 l 1,8,-1
 189 397 l 1,9,-1
 516 397 l 1,10,-1
 516 695 l 1,11,-1
 630 695 l 1,0,-1
EndSplineSet
Validated: 1
EndChar

StartChar: i
Encoding: 105 105 84
Width: 264
GlyphClass: 1
Flags: W
LayerCount: 2
Fore
SplineSet
189 695 m 1,0,-1
 189 0 l 1,1,-1
 75 0 l 1,2,-1
 75 695 l 1,3,-1
 189 695 l 1,0,-1
EndSplineSet
Validated: 1
EndChar

StartChar: j
Encoding: 106 106 85
Width: 564
GlyphClass: 1
Flags: W
LayerCount: 2
Fore
SplineSet
454 695 m 1,0,-1
 454 194 l 2,1,2
 454 101 454 101 397.5 47 c 128,-1,3
 341 -7 341 -7 249 -7 c 256,4,5
 157 -7 157 -7 100.5 47 c 128,-1,6
 44 101 44 101 44 194 c 1,7,-1
 159 194 l 1,8,9
 160 148 160 148 182.5 121 c 128,-1,10
 205 94 205 94 249 94 c 256,11,12
 293 94 293 94 316 121.5 c 128,-1,13
 339 149 339 149 339 194 c 2,14,-1
 339 695 l 1,15,-1
 454 695 l 1,0,-1
EndSplineSet
Validated: 1
EndChar

StartChar: k
Encoding: 107 107 86
Width: 633
GlyphClass: 1
Flags: W
LayerCount: 2
Fore
SplineSet
458 0 m 1,0,-1
 189 311 l 1,1,-1
 189 0 l 1,2,-1
 75 0 l 1,3,-1
 75 695 l 1,4,-1
 189 695 l 1,5,-1
 189 378 l 1,6,-1
 459 695 l 1,7,-1
 602 695 l 1,8,-1
 300 347 l 1,9,-1
 607 0 l 1,10,-1
 458 0 l 1,0,-1
EndSplineSet
Validated: 1
EndChar

StartChar: l
Encoding: 108 108 87
Width: 444
GlyphClass: 1
Flags: W
LayerCount: 2
Fore
SplineSet
189 92 m 1,0,-1
 424 92 l 1,1,-1
 424 0 l 1,2,-1
 75 0 l 1,3,-1
 75 695 l 1,4,-1
 189 695 l 1,5,-1
 189 92 l 1,0,-1
EndSplineSet
Validated: 1
EndChar

StartChar: m
Encoding: 109 109 88
Width: 882
GlyphClass: 1
Flags: W
LayerCount: 2
Fore
SplineSet
807 695 m 1,0,-1
 807 0 l 1,1,-1
 693 0 l 1,2,-1
 693 476 l 1,3,-1
 481 0 l 1,4,-1
 402 0 l 1,5,-1
 189 476 l 1,6,-1
 189 0 l 1,7,-1
 75 0 l 1,8,-1
 75 695 l 1,9,-1
 198 695 l 1,10,-1
 442 150 l 1,11,-1
 685 695 l 1,12,-1
 807 695 l 1,0,-1
EndSplineSet
Validated: 1
EndChar

StartChar: n
Encoding: 110 110 89
Width: 721
GlyphClass: 1
Flags: W
LayerCount: 2
Fore
SplineSet
646 0 m 1,0,-1
 532 0 l 1,1,-1
 189 519 l 1,2,-1
 189 0 l 1,3,-1
 75 0 l 1,4,-1
 75 696 l 1,5,-1
 189 696 l 1,6,-1
 532 178 l 1,7,-1
 532 696 l 1,8,-1
 646 696 l 1,9,-1
 646 0 l 1,0,-1
EndSplineSet
Validated: 1
EndChar

StartChar: o
Encoding: 111 111 90
Width: 784
GlyphClass: 1
Flags: W
LayerCount: 2
Fore
SplineSet
77 268 m 128,-1,1
 77 365 77 365 146 434 c 128,-1,2
 215 503 215 503 312 503 c 128,-1,3
 409 503 409 503 478 434 c 128,-1,4
 547 365 547 365 547 268 c 128,-1,5
 547 171 547 171 478 102 c 128,-1,6
 409 33 409 33 312 33 c 128,-1,7
 215 33 215 33 146 102 c 128,-1,0
 77 171 77 171 77 268 c 128,-1,1
136 349 m 128,-1,9
 136 243 136 243 211 168 c 128,-1,10
 286 93 286 93 392 93 c 128,-1,11
 498 93 498 93 573 168 c 128,-1,12
 648 243 648 243 648 349 c 128,-1,13
 648 455 648 455 573 530 c 128,-1,14
 498 605 498 605 392 605 c 128,-1,15
 286 605 286 605 211 530 c 128,-1,8
 136 455 136 455 136 349 c 128,-1,9
213.5 38.5 m 128,-1,17
 132 84 132 84 84.5 165.5 c 128,-1,18
 37 247 37 247 37 349 c 256,19,20
 37 451 37 451 84.5 532 c 128,-1,21
 132 613 132 613 213.5 658.5 c 128,-1,22
 295 704 295 704 392 704 c 0,23,24
 490 704 490 704 571.5 658.5 c 128,-1,25
 653 613 653 613 700 532 c 128,-1,26
 747 451 747 451 747 349 c 256,27,28
 747 247 747 247 700 165.5 c 128,-1,29
 653 84 653 84 571.5 38.5 c 128,-1,30
 490 -7 490 -7 392 -7 c 0,31,16
 295 -7 295 -7 213.5 38.5 c 128,-1,17
EndSplineSet
Validated: 5
EndChar

StartChar: p
Encoding: 112 112 91
Width: 595
GlyphClass: 1
Flags: W
LayerCount: 2
Fore
SplineSet
536 388 m 128,-1,1
 511 341 511 341 456 311.5 c 128,-1,2
 401 282 401 282 315 282 c 2,3,-1
 189 282 l 1,4,-1
 189 0 l 1,5,-1
 75 0 l 1,6,-1
 75 695 l 1,7,-1
 315 695 l 2,8,9
 395 695 395 695 450.5 667.5 c 128,-1,10
 506 640 506 640 533.5 593 c 128,-1,11
 561 546 561 546 561 488 c 0,12,0
 561 435 561 435 536 388 c 128,-1,1
412 404.5 m 128,-1,14
 444 434 444 434 444 488 c 0,15,16
 444 602 444 602 315 602 c 2,17,-1
 189 602 l 1,18,-1
 189 375 l 1,19,-1
 315 375 l 2,20,13
 380 375 380 375 412 404.5 c 128,-1,14
EndSplineSet
Validated: 1
EndChar

StartChar: q
Encoding: 113 113 92
Width: 787
GlyphClass: 1
Flags: W
LayerCount: 2
Fore
SplineSet
707 430 m 128,-1,1
 707 333 707 333 638 264 c 128,-1,2
 569 195 569 195 472 195 c 128,-1,3
 375 195 375 195 306 264 c 128,-1,4
 237 333 237 333 237 430 c 128,-1,5
 237 527 237 527 306 596 c 128,-1,6
 375 665 375 665 472 665 c 128,-1,7
 569 665 569 665 638 596 c 128,-1,0
 707 527 707 527 707 430 c 128,-1,1
648 349 m 128,-1,9
 648 455 648 455 573 530 c 128,-1,10
 498 605 498 605 392 605 c 128,-1,11
 286 605 286 605 211 530 c 128,-1,12
 136 455 136 455 136 349 c 128,-1,13
 136 243 136 243 211 168 c 128,-1,14
 286 93 286 93 392 93 c 128,-1,15
 498 93 498 93 573 168 c 128,-1,8
 648 243 648 243 648 349 c 128,-1,9
613 -126 m 1,16,-1
 491 6 l 1,17,18
 446 -7 446 -7 392 -7 c 0,19,20
 295 -7 295 -7 213.5 38.5 c 128,-1,21
 132 84 132 84 84.5 165.5 c 128,-1,22
 37 247 37 247 37 349 c 256,23,24
 37 451 37 451 84.5 532 c 128,-1,25
 132 613 132 613 213.5 658.5 c 128,-1,26
 295 704 295 704 392 704 c 0,27,28
 490 704 490 704 571.5 658.5 c 128,-1,29
 653 613 653 613 700 532 c 128,-1,30
 747 451 747 451 747 349 c 0,31,32
 747 253 747 253 705.5 175.5 c 128,-1,33
 664 98 664 98 591 51 c 1,34,-1
 758 -126 l 1,35,-1
 613 -126 l 1,16,-1
EndSplineSet
Validated: 5
EndChar

StartChar: r
Encoding: 114 114 93
Width: 632
GlyphClass: 1
Flags: W
LayerCount: 2
Fore
SplineSet
315 602 m 1,0,1
 380 602 380 602 412 571.5 c 128,-1,2
 444 541 444 541 444 487 c 256,3,4
 444 433 444 433 411.5 401 c 128,-1,5
 379 369 379 369 315 369 c 2,6,7
 315 369 315 369 223 369 c 17,8,-1
 436 0 l 1,9,-1
 572 0 l 1,10,-1
 400 288 l 1,11,12
 482 308 482 308 521.5 363.5 c 128,-1,13
 561 419 561 419 561 487 c 0,14,15
 561 545 561 545 533.5 592 c 128,-1,16
 506 639 506 639 450.5 667 c 128,-1,17
 395 695 395 695 315 695 c 2,18,19
 315 695 315 695 75 695 c 1,20,-1
 75 602 l 1,21,-1
 315 602 l 1,0,1
EndSplineSet
Validated: 9
EndChar

StartChar: s
Encoding: 115 115 94
Width: 604
GlyphClass: 1
Flags: W
LayerCount: 2
Fore
SplineSet
178 17.5 m 128,-1,1
 122 42 122 42 90 87 c 128,-1,2
 58 132 58 132 58 192 c 1,3,-1
 180 192 l 1,4,5
 184 147 184 147 215.5 118 c 128,-1,6
 247 89 247 89 304 89 c 0,7,8
 363 89 363 89 396 117.5 c 128,-1,9
 429 146 429 146 429 191 c 0,10,11
 429 226 429 226 408.5 248 c 128,-1,12
 388 270 388 270 357.5 282 c 128,-1,13
 327 294 327 294 273 308 c 0,14,15
 205 326 205 326 162.5 344.5 c 128,-1,16
 120 363 120 363 90 402 c 128,-1,17
 60 441 60 441 60 506 c 0,18,19
 60 566 60 566 90 611 c 128,-1,20
 120 656 120 656 174 680 c 128,-1,21
 228 704 228 704 299 704 c 0,22,23
 400 704 400 704 464.5 653.5 c 128,-1,24
 529 603 529 603 536 515 c 1,25,-1
 410 515 l 1,26,27
 407 553 407 553 374 580 c 128,-1,28
 341 607 341 607 287 607 c 0,29,30
 238 607 238 607 207 582 c 128,-1,31
 176 557 176 557 176 510 c 0,32,33
 176 478 176 478 195.5 457.5 c 128,-1,34
 215 437 215 437 245 425 c 128,-1,35
 275 413 275 413 327 399 c 0,36,37
 396 380 396 380 439.5 361 c 128,-1,38
 483 342 483 342 513.5 302.5 c 128,-1,39
 544 263 544 263 544 197 c 0,40,41
 544 144 544 144 515.5 97 c 128,-1,42
 487 50 487 50 432.5 21.5 c 128,-1,43
 378 -7 378 -7 304 -7 c 0,44,0
 234 -7 234 -7 178 17.5 c 128,-1,1
EndSplineSet
Validated: 1
EndChar

StartChar: t
Encoding: 116 116 95
Width: 564
GlyphClass: 1
Flags: W
LayerCount: 2
Fore
SplineSet
524 695 m 1,0,-1
 524 602 l 1,1,-1
 339 602 l 1,2,-1
 339 0 l 1,3,-1
 225 0 l 1,4,-1
 225 602 l 1,5,-1
 39 602 l 1,6,-1
 39 695 l 1,7,-1
 524 695 l 1,0,-1
EndSplineSet
Validated: 1
EndChar

StartChar: u
Encoding: 117 117 96
Width: 690
GlyphClass: 1
Flags: W
LayerCount: 2
Fore
SplineSet
188 695 m 1,0,-1
 188 252 l 2,1,2
 188 173 188 173 229.5 133 c 128,-1,3
 271 93 271 93 345 93 c 0,4,5
 420 93 420 93 461.5 133 c 128,-1,6
 503 173 503 173 503 252 c 2,7,-1
 503 695 l 1,8,-1
 617 695 l 1,9,-1
 617 254 l 2,10,11
 617 169 617 169 580 110 c 128,-1,12
 543 51 543 51 481 22 c 128,-1,13
 419 -7 419 -7 344 -7 c 256,14,15
 269 -7 269 -7 207.5 22 c 128,-1,16
 146 51 146 51 110 110 c 128,-1,17
 74 169 74 169 74 254 c 2,18,-1
 74 695 l 1,19,-1
 188 695 l 1,0,-1
EndSplineSet
Validated: 1
EndChar

StartChar: v
Encoding: 118 118 97
Width: 694
GlyphClass: 1
Flags: W
LayerCount: 2
Fore
SplineSet
674 695 m 1,0,-1
 413 0 l 1,1,-1
 281 0 l 1,2,-1
 19 695 l 1,3,-1
 141 695 l 1,4,-1
 347 117 l 1,5,-1
 554 695 l 1,6,-1
 674 695 l 1,0,-1
EndSplineSet
Validated: 1
EndChar

StartChar: w
Encoding: 119 119 98
Width: 999
GlyphClass: 1
Flags: W
LayerCount: 2
Fore
SplineSet
980 695 m 1,0,-1
 774 0 l 1,1,-1
 645 0 l 1,2,-1
 499 526 l 1,3,-1
 344 0 l 1,4,-1
 216 -1 l 1,5,-1
 19 695 l 1,6,-1
 140 695 l 1,7,-1
 284 129 l 1,8,-1
 440 695 l 1,9,-1
 568 695 l 1,10,-1
 713 132 l 1,11,-1
 858 695 l 1,12,-1
 980 695 l 1,0,-1
EndSplineSet
Validated: 1
EndChar

StartChar: x
Encoding: 120 120 99
Width: 660
GlyphClass: 1
Flags: W
LayerCount: 2
Fore
SplineSet
394 347 m 1,0,-1
 610 0 l 1,1,-1
 482 0 l 1,2,-1
 325 252 l 1,3,-1
 178 0 l 1,4,-1
 51 0 l 1,5,-1
 267 347 l 1,6,-1
 50 695 l 1,7,-1
 178 695 l 1,8,-1
 336 441 l 1,9,-1
 484 695 l 1,10,-1
 611 695 l 1,11,-1
 394 347 l 1,0,-1
EndSplineSet
Validated: 1
EndChar

StartChar: y
Encoding: 121 121 100
Width: 605
GlyphClass: 1
Flags: W
LayerCount: 2
Fore
SplineSet
590 695 m 1,0,-1
 360 252 l 1,1,-1
 360 0 l 1,2,-1
 246 0 l 1,3,-1
 246 252 l 1,4,-1
 15 695 l 1,5,-1
 142 695 l 1,6,-1
 303 354 l 1,7,-1
 464 695 l 1,8,-1
 590 695 l 1,0,-1
EndSplineSet
Validated: 1
EndChar

StartChar: z
Encoding: 122 122 101
Width: 558
GlyphClass: 1
Flags: W
LayerCount: 2
Fore
SplineSet
185 99 m 1,0,-1
 508 99 l 1,1,-1
 508 0 l 1,2,-1
 50 0 l 1,3,-1
 50 89 l 1,4,-1
 372 596 l 1,5,-1
 50 596 l 1,6,-1
 50 695 l 1,7,-1
 508 695 l 1,8,-1
 508 606 l 1,9,-1
 185 99 l 1,0,-1
EndSplineSet
Validated: 1
EndChar

StartChar: braceleft
Encoding: 123 123 102
Width: 516
GlyphClass: 1
Flags: W
LayerCount: 2
Fore
SplineSet
126 417 m 1,0,1
 174 422 174 422 199.5 446 c 128,-1,2
 225 470 225 470 225 509 c 0,3,4
 225 545 225 545 217 641 c 0,5,6
 208 731 208 731 208 785 c 0,7,8
 208 856 208 856 249.5 896 c 128,-1,9
 291 936 291 936 359 936 c 2,10,-1
 426 936 l 1,11,-1
 426 837 l 1,12,-1
 382 837 l 2,13,14
 350 837 350 837 334.5 822.5 c 128,-1,15
 319 808 319 808 319 776 c 0,16,17
 319 752 319 752 322 712 c 128,-1,18
 325 672 325 672 326 655 c 0,19,20
 335 563 335 563 335 505 c 0,21,22
 335 454 335 454 309.5 420 c 128,-1,23
 284 386 284 386 231 375 c 1,24,-1
 231 373 l 1,25,26
 284 362 284 362 309.5 328 c 128,-1,27
 335 294 335 294 335 243 c 0,28,29
 335 185 335 185 326 93 c 0,30,31
 325 76 325 76 322 36 c 128,-1,32
 319 -4 319 -4 319 -28 c 0,33,34
 319 -60 319 -60 334.5 -74.5 c 128,-1,35
 350 -89 350 -89 382 -89 c 2,36,-1
 426 -89 l 1,37,-1
 426 -188 l 1,38,-1
 359 -188 l 2,39,40
 291 -188 291 -188 249.5 -148 c 128,-1,41
 208 -108 208 -108 208 -37 c 0,42,43
 208 17 208 17 217 107 c 0,44,45
 225 203 225 203 225 239 c 0,46,47
 225 278 225 278 199.5 302 c 128,-1,48
 174 326 174 326 126 331 c 1,49,-1
 126 417 l 1,0,1
EndSplineSet
Validated: 1
EndChar

StartChar: bar
Encoding: 124 124 103
Width: 324
GlyphClass: 1
Flags: W
LayerCount: 2
Fore
SplineSet
219 -113 m 1,0,-1
 105 -113 l 1,1,-1
 105 801 l 1,2,-1
 219 801 l 1,3,-1
 219 -113 l 1,0,-1
EndSplineSet
Validated: 1
EndChar

StartChar: braceright
Encoding: 125 125 104
Width: 516
GlyphClass: 1
Flags: W
LayerCount: 2
Fore
SplineSet
316.5 302 m 128,-1,1
 291 278 291 278 291 239 c 0,2,3
 291 203 291 203 299 107 c 0,4,5
 308 17 308 17 308 -37 c 0,6,7
 308 -108 308 -108 266.5 -148 c 128,-1,8
 225 -188 225 -188 157 -188 c 2,9,-1
 90 -188 l 1,10,-1
 90 -89 l 1,11,-1
 134 -89 l 2,12,13
 166 -89 166 -89 181.5 -74.5 c 128,-1,14
 197 -60 197 -60 197 -28 c 0,15,16
 197 -4 197 -4 194 36 c 128,-1,17
 191 76 191 76 190 93 c 0,18,19
 181 185 181 185 181 243 c 0,20,21
 181 294 181 294 206.5 328 c 128,-1,22
 232 362 232 362 285 373 c 1,23,-1
 285 375 l 1,24,25
 232 386 232 386 206.5 420 c 128,-1,26
 181 454 181 454 181 505 c 0,27,28
 181 563 181 563 190 655 c 0,29,30
 191 672 191 672 194 712 c 128,-1,31
 197 752 197 752 197 776 c 0,32,33
 197 808 197 808 181.5 822.5 c 128,-1,34
 166 837 166 837 134 837 c 2,35,-1
 90 837 l 1,36,-1
 90 936 l 1,37,-1
 157 936 l 2,38,39
 225 936 225 936 266.5 896 c 128,-1,40
 308 856 308 856 308 785 c 0,41,42
 308 731 308 731 299 641 c 0,43,44
 291 545 291 545 291 509 c 0,45,46
 291 470 291 470 316.5 446 c 128,-1,47
 342 422 342 422 390 417 c 1,48,-1
 390 331 l 1,49,0
 342 326 342 326 316.5 302 c 128,-1,1
EndSplineSet
Validated: 1
EndChar

StartChar: asciitilde
Encoding: 126 126 105
Width: 553
GlyphClass: 1
Flags: W
LayerCount: 2
Fore
SplineSet
92 362.5 m 128,-1,1
 133 403 133 403 195 403 c 0,2,3
 223 403 223 403 244.5 394 c 128,-1,4
 266 385 266 385 294 367 c 0,5,6
 319 352 319 352 333.5 345 c 128,-1,7
 348 338 348 338 366 338 c 0,8,9
 391 338 391 338 410.5 354.5 c 128,-1,10
 430 371 430 371 434 401 c 1,11,-1
 517 401 l 1,12,13
 502 317 502 317 460.5 276.5 c 128,-1,14
 419 236 419 236 357 236 c 0,15,16
 329 236 329 236 308 245 c 128,-1,17
 287 254 287 254 259 272 c 0,18,19
 237 287 237 287 221 294 c 128,-1,20
 205 301 205 301 187 301 c 0,21,22
 161 301 161 301 141.5 284.5 c 128,-1,23
 122 268 122 268 118 238 c 1,24,-1
 36 238 l 1,25,0
 51 322 51 322 92 362.5 c 128,-1,1
EndSplineSet
Validated: 1
EndChar

StartChar: exclamdown
Encoding: 161 161 107
Width: 321
GlyphClass: 1
Flags: W
LayerCount: 2
Fore
SplineSet
212 546 m 128,-1,1
 233 525 233 525 233 494 c 256,2,3
 233 463 233 463 212 442 c 128,-1,4
 191 421 191 421 161 421 c 0,5,6
 130 421 130 421 109 442 c 128,-1,7
 88 463 88 463 88 494 c 256,8,9
 88 525 88 525 109 546 c 128,-1,10
 130 567 130 567 161 567 c 0,11,0
 191 567 191 567 212 546 c 128,-1,1
110 350 m 1,12,-1
 205 350 l 1,13,-1
 218 -135 l 1,14,-1
 97 -135 l 1,15,-1
 110 350 l 1,12,-1
EndSplineSet
Validated: 1
Substitution2: "'ss01' Style Set 1 lookup 20 subtable" exclamdown.ss01
EndChar

StartChar: cent
Encoding: 162 162 108
Width: 690
GlyphClass: 1
Flags: W
LayerCount: 2
Fore
SplineSet
415 113.5 m 128,-1,1
 447 135 447 135 459 174 c 1,2,-1
 565 174 l 1,3,4
 557 104 557 104 502 56 c 128,-1,5
 447 8 447 8 361 -1 c 1,6,-1
 361 -88 l 1,7,-1
 296 -88 l 1,8,-1
 296 -1 l 1,9,10
 185 9 185 9 125.5 81 c 128,-1,11
 66 153 66 153 66 259 c 256,12,13
 66 365 66 365 125.5 437.5 c 128,-1,14
 185 510 185 510 296 520 c 1,15,-1
 296 607 l 1,16,-1
 361 607 l 1,17,-1
 361 520 l 1,18,19
 447 511 447 511 502 463 c 128,-1,20
 557 415 557 415 565 345 c 1,21,-1
 459 345 l 1,22,23
 447 384 447 384 415 405.5 c 128,-1,24
 383 427 383 427 329 427 c 0,25,26
 258 427 258 427 216 382 c 128,-1,27
 174 337 174 337 174 259 c 256,28,29
 174 181 174 181 216 136.5 c 128,-1,30
 258 92 258 92 329 92 c 0,31,0
 383 92 383 92 415 113.5 c 128,-1,1
EndSplineSet
Validated: 1
EndChar

StartChar: sterling
Encoding: 163 163 109
Width: 646
GlyphClass: 1
Flags: W
LayerCount: 2
Fore
SplineSet
558 91 m 1,0,-1
 558 -2 l 1,1,-1
 95 -2 l 1,2,-1
 75 60 l 1,3,4
 117 105 117 105 137 149.5 c 128,-1,5
 157 194 157 194 157 260 c 0,6,7
 157 280 157 280 152 302 c 1,8,-1
 42 302 l 1,9,-1
 42 381 l 1,10,-1
 127 381 l 1,11,12
 106 444 106 444 106 503 c 0,13,14
 106 570 106 570 135 619 c 128,-1,15
 164 668 164 668 215 694.5 c 128,-1,16
 266 721 266 721 333 721 c 0,17,18
 440 721 440 721 495 661 c 128,-1,19
 550 601 550 601 552 508 c 1,20,-1
 448 508 l 1,21,22
 448 562 448 562 420 593.5 c 128,-1,23
 392 625 392 625 333 625 c 0,24,25
 279 625 279 625 246.5 594 c 128,-1,26
 214 563 214 563 214 497 c 0,27,28
 214 468 214 468 220 441 c 128,-1,29
 226 414 226 414 237 381 c 1,30,-1
 431 381 l 1,31,-1
 431 302 l 1,32,-1
 260 302 l 1,33,34
 265 279 265 279 265 259 c 0,35,36
 265 162 265 162 198 91 c 1,37,-1
 558 91 l 1,0,-1
EndSplineSet
Validated: 1
EndChar

StartChar: currency
Encoding: 164 164 110
Width: 548
GlyphClass: 1
Flags: W
LayerCount: 2
Fore
SplineSet
429 274 m 1,1,-1
 488 215 l 1,2,-1
 438 164 l 1,3,-1
 376 225 l 1,4,5
 332 199 332 199 272 199 c 0,6,7
 215 199 215 199 171 224 c 1,8,-1
 111 164 l 1,9,-1
 60 215 l 1,10,-1
 118 274 l 1,11,12
 89 317 89 317 89 377 c 0,13,14
 89 439 89 439 120 482 c 1,15,-1
 60 541 l 1,16,-1
 111 592 l 1,17,-1
 173 530 l 1,18,19
 218 555 218 555 274 555 c 0,20,21
 331 555 331 555 376 530 c 1,22,-1
 438 592 l 1,23,-1
 488 541 l 1,24,-1
 429 482 l 1,25,26
 460 437 460 437 460 377 c 256,27,0
 460 317 460 317 429 274 c 1,1,-1
337.5 298.5 m 128,-1,29
 365 327 365 327 365 377 c 0,30,31
 365 428 365 428 338 456.5 c 128,-1,32
 311 485 311 485 273 485 c 256,33,34
 235 485 235 485 209 456.5 c 128,-1,35
 183 428 183 428 183 377 c 256,36,37
 183 326 183 326 208.5 298 c 128,-1,38
 234 270 234 270 272 270 c 256,39,28
 310 270 310 270 337.5 298.5 c 128,-1,29
EndSplineSet
Validated: 1
EndChar

StartChar: yen
Encoding: 165 165 111
Width: 605
GlyphClass: 1
Flags: W
LayerCount: 2
Fore
SplineSet
434 395 m 1,0,-1
 560 395 l 1,1,-1
 560 313 l 1,2,-1
 391 311 l 1,3,-1
 360 252 l 1,4,-1
 360 222 l 1,5,-1
 560 222 l 1,6,-1
 560 140 l 1,7,-1
 360 140 l 1,8,-1
 360 0 l 1,9,-1
 246 0 l 1,10,-1
 246 140 l 1,11,-1
 46 140 l 1,12,-1
 46 222 l 1,13,-1
 246 222 l 1,14,-1
 246 252 l 1,15,-1
 215 311 l 1,16,-1
 46 313 l 1,17,-1
 46 395 l 1,18,-1
 171 395 l 1,19,-1
 15 695 l 1,20,-1
 142 695 l 1,21,-1
 302 356 l 1,22,-1
 462 695 l 1,23,-1
 590 695 l 1,24,-1
 434 395 l 1,0,-1
EndSplineSet
Validated: 1
EndChar

StartChar: brokenbar
Encoding: 166 166 112
Width: 324
GlyphClass: 1
Flags: W
LayerCount: 2
Fore
SplineSet
105 801 m 1,0,-1
 219 801 l 1,1,-1
 219 413 l 1,2,-1
 105 413 l 1,3,-1
 105 801 l 1,0,-1
219 -113 m 1,4,-1
 105 -113 l 1,5,-1
 105 275 l 1,6,-1
 219 275 l 1,7,-1
 219 -113 l 1,4,-1
EndSplineSet
Validated: 1
EndChar

StartChar: section
Encoding: 167 167 113
Width: 578
GlyphClass: 1
Flags: W
LayerCount: 2
Fore
SplineSet
481 28.5 m 128,-1,1
 504 -2 504 -2 504 -46 c 0,2,3
 504 -91 504 -91 478 -129 c 128,-1,4
 452 -167 452 -167 403.5 -189.5 c 128,-1,5
 355 -212 355 -212 290 -212 c 0,6,7
 197 -212 197 -212 138.5 -168.5 c 128,-1,8
 80 -125 80 -125 80 -47 c 1,9,-1
 194 -47 l 1,10,11
 197 -87 197 -87 221 -110 c 128,-1,12
 245 -133 245 -133 290 -133 c 0,13,14
 338 -133 338 -133 364 -113.5 c 128,-1,15
 390 -94 390 -94 390 -56 c 0,16,17
 390 -33 390 -33 376.5 -16.5 c 128,-1,18
 363 0 363 0 330.5 16.5 c 128,-1,19
 298 33 298 33 233 56 c 0,20,21
 135 91 135 91 88 134 c 128,-1,22
 41 177 41 177 41 244 c 0,23,24
 41 298 41 298 72.5 340 c 128,-1,25
 104 382 104 382 164 404 c 1,26,27
 121 429 121 429 97.5 459.5 c 128,-1,28
 74 490 74 490 74 534 c 0,29,30
 74 579 74 579 100 617 c 128,-1,31
 126 655 126 655 174.5 677.5 c 128,-1,32
 223 700 223 700 288 700 c 0,33,34
 381 700 381 700 439.5 656.5 c 128,-1,35
 498 613 498 613 498 535 c 1,36,-1
 384 535 l 1,37,38
 381 575 381 575 357 598 c 128,-1,39
 333 621 333 621 288 621 c 0,40,41
 240 621 240 621 214 601.5 c 128,-1,42
 188 582 188 582 188 544 c 0,43,44
 188 521 188 521 201.5 504.5 c 128,-1,45
 215 488 215 488 247.5 471.5 c 128,-1,46
 280 455 280 455 345 432 c 0,47,48
 443 397 443 397 490 354 c 128,-1,49
 537 311 537 311 537 244 c 0,50,51
 537 191 537 191 506.5 150 c 128,-1,52
 476 109 476 109 415 84 c 1,53,0
 458 59 458 59 481 28.5 c 128,-1,1
194.5 170.5 m 128,-1,55
 231 140 231 140 291 140 c 0,56,57
 350 140 350 140 385 170 c 128,-1,58
 420 200 420 200 420 244 c 256,59,60
 420 288 420 288 383.5 318 c 128,-1,61
 347 348 347 348 288 348 c 256,62,63
 229 348 229 348 193.5 318 c 128,-1,64
 158 288 158 288 158 244 c 0,65,54
 158 201 158 201 194.5 170.5 c 128,-1,55
EndSplineSet
Validated: 1
EndChar

StartChar: dieresis
Encoding: 168 168 114
Width: 312
GlyphClass: 1
Flags: W
LayerCount: 2
Fore
SplineSet
27.5 637.5 m 128,-1,1
 10 655 10 655 10 680 c 256,2,3
 10 705 10 705 27.5 722.5 c 128,-1,4
 45 740 45 740 70 740 c 256,5,6
 95 740 95 740 112.5 722.5 c 128,-1,7
 130 705 130 705 130 680 c 256,8,9
 130 655 130 655 112.5 637.5 c 128,-1,10
 95 620 95 620 70 620 c 256,11,0
 45 620 45 620 27.5 637.5 c 128,-1,1
199.5 637.5 m 128,-1,13
 182 655 182 655 182 680 c 256,14,15
 182 705 182 705 199.5 722.5 c 128,-1,16
 217 740 217 740 242 740 c 256,17,18
 267 740 267 740 284.5 722.5 c 128,-1,19
 302 705 302 705 302 680 c 256,20,21
 302 655 302 655 284.5 637.5 c 128,-1,22
 267 620 267 620 242 620 c 256,23,12
 217 620 217 620 199.5 637.5 c 128,-1,13
EndSplineSet
Validated: 1
EndChar

StartChar: copyright
Encoding: 169 169 115
Width: 789
GlyphClass: 1
Flags: W
LayerCount: 2
Fore
SplineSet
576 658.5 m 128,-1,1
 655 613 655 613 699 532 c 128,-1,2
 743 451 743 451 743 348 c 256,3,4
 743 245 743 245 699 163.5 c 128,-1,5
 655 82 655 82 576 36.5 c 128,-1,6
 497 -9 497 -9 395 -9 c 256,7,8
 293 -9 293 -9 213.5 36.5 c 128,-1,9
 134 82 134 82 90 163.5 c 128,-1,10
 46 245 46 245 46 348 c 256,11,12
 46 451 46 451 90 532 c 128,-1,13
 134 613 134 613 213.5 658.5 c 128,-1,14
 293 704 293 704 395 704 c 256,15,0
 497 704 497 704 576 658.5 c 128,-1,1
236.5 620 m 128,-1,17
 169 582 169 582 132.5 511.5 c 128,-1,18
 96 441 96 441 96 348 c 256,19,20
 96 255 96 255 132.5 185 c 128,-1,21
 169 115 169 115 236.5 76 c 128,-1,22
 304 37 304 37 395 37 c 0,23,24
 485 37 485 37 552.5 76 c 128,-1,25
 620 115 620 115 656.5 185 c 128,-1,26
 693 255 693 255 693 348 c 256,27,28
 693 441 693 441 656.5 511.5 c 128,-1,29
 620 582 620 582 553 620 c 128,-1,30
 486 658 486 658 395 658 c 256,31,16
 304 658 304 658 236.5 620 c 128,-1,17
281 549.5 m 128,-1,33
 231 521 231 521 202.5 469 c 128,-1,34
 174 417 174 417 174 349 c 256,35,36
 174 281 174 281 203 228.5 c 128,-1,37
 232 176 232 176 281.5 147.5 c 128,-1,38
 331 119 331 119 392 119 c 0,39,40
 468 119 468 119 523 159.5 c 128,-1,41
 578 200 578 200 597 266 c 1,42,-1
 493 266 l 1,43,44
 480 234 480 234 456 217 c 128,-1,45
 432 200 432 200 392 200 c 0,46,47
 339 200 339 200 307 238.5 c 128,-1,48
 275 277 275 277 275 349 c 256,49,50
 275 421 275 421 307 459 c 128,-1,51
 339 497 339 497 392 497 c 0,52,53
 430 497 430 497 456.5 480 c 128,-1,54
 483 463 483 463 493 431 c 1,55,-1
 597 431 l 1,56,57
 578 501 578 501 524 539.5 c 128,-1,58
 470 578 470 578 392 578 c 0,59,32
 331 578 331 578 281 549.5 c 128,-1,33
EndSplineSet
Validated: 9
EndChar

StartChar: ordfeminine
Encoding: 170 170 116
Width: 456
GlyphClass: 1
Flags: W
LayerCount: 2
Fore
SplineSet
53.5 622.5 m 128,-1,1
 76 663 76 663 114.5 686 c 128,-1,2
 153 709 153 709 199 709 c 0,3,4
 242 709 242 709 274 694 c 128,-1,5
 306 679 306 679 325 655 c 1,6,-1
 325 703 l 1,7,-1
 414 703 l 1,8,-1
 414 353 l 1,9,-1
 325 353 l 1,10,-1
 325 399 l 1,11,12
 308 376 308 376 276 361.5 c 128,-1,13
 244 347 244 347 202 347 c 0,14,15
 154 347 154 347 115 370.5 c 128,-1,16
 76 394 76 394 53.5 436 c 128,-1,17
 31 478 31 478 31 530 c 256,18,0
 31 582 31 582 53.5 622.5 c 128,-1,1
153 446.5 m 128,-1,20
 183 416 183 416 224 416 c 0,21,22
 266 416 266 416 295.5 446 c 128,-1,23
 325 476 325 476 325 528 c 256,24,25
 325 580 325 580 295.5 610 c 128,-1,26
 266 640 266 640 224 640 c 0,27,28
 183 640 183 640 153 610.5 c 128,-1,29
 123 581 123 581 123 529 c 256,30,19
 123 477 123 477 153 446.5 c 128,-1,20
EndSplineSet
Validated: 1
EndChar

StartChar: guillemotleft
Encoding: 171 171 117
Width: 489
GlyphClass: 1
Flags: W
LayerCount: 2
Fore
SplineSet
137 120 m 1,0,-1
 45 295 l 1,1,-1
 137 470 l 1,2,-1
 247 470 l 1,3,-1
 151 295 l 1,4,-1
 247 120 l 1,5,-1
 137 120 l 1,0,-1
329 120 m 1,6,-1
 237 295 l 1,7,-1
 329 470 l 1,8,-1
 439 470 l 1,9,-1
 343 295 l 1,10,-1
 439 120 l 1,11,-1
 329 120 l 1,6,-1
EndSplineSet
Validated: 1
EndChar

StartChar: logicalnot
Encoding: 172 172 118
Width: 649
GlyphClass: 1
Flags: W
LayerCount: 2
Fore
SplineSet
605 435 m 1,0,-1
 605 208 l 1,1,-1
 491 208 l 1,2,-1
 491 346 l 1,3,-1
 37 346 l 1,4,-1
 37 435 l 1,5,-1
 605 435 l 1,0,-1
EndSplineSet
Validated: 1
EndChar

StartChar: registered
Encoding: 174 174 120
Width: 517
GlyphClass: 1
Flags: W
LayerCount: 2
Fore
SplineSet
366.5 678 m 128,-1,1
 414 651 414 651 440.5 603.5 c 128,-1,2
 467 556 467 556 467 496 c 256,3,4
 467 436 467 436 440.5 388.5 c 128,-1,5
 414 341 414 341 366.5 314 c 128,-1,6
 319 287 319 287 259 287 c 256,7,8
 199 287 199 287 151.5 314 c 128,-1,9
 104 341 104 341 77 388.5 c 128,-1,10
 50 436 50 436 50 496 c 256,11,12
 50 556 50 556 77 603.5 c 128,-1,13
 104 651 104 651 151.5 678 c 128,-1,14
 199 705 199 705 259 705 c 256,15,0
 319 705 319 705 366.5 678 c 128,-1,1
374.5 378 m 128,-1,17
 418 423 418 423 418 496 c 256,18,19
 418 569 418 569 374.5 614 c 128,-1,20
 331 659 331 659 259 659 c 0,21,22
 186 659 186 659 143 614 c 128,-1,23
 100 569 100 569 100 496 c 256,24,25
 100 423 100 423 143 378 c 128,-1,26
 186 333 186 333 259 333 c 0,27,16
 331 333 331 333 374.5 378 c 128,-1,17
340 497.5 m 128,-1,29
 329 481 329 481 310 473 c 1,30,-1
 363 391 l 1,31,-1
 287 391 l 1,32,-1
 243 466 l 1,33,-1
 236 466 l 1,34,-1
 236 391 l 1,35,-1
 173 391 l 1,36,-1
 173 606 l 1,37,-1
 274 606 l 2,38,39
 309 606 309 606 330 586.5 c 128,-1,40
 351 567 351 567 351 536 c 0,41,28
 351 514 351 514 340 497.5 c 128,-1,29
236 517 m 1,42,-1
 270 517 l 2,43,44
 278 517 278 517 283.5 521.5 c 128,-1,45
 289 526 289 526 289 534 c 256,46,47
 289 542 289 542 283.5 546 c 128,-1,48
 278 550 278 550 270 550 c 2,49,-1
 236 550 l 1,50,-1
 236 517 l 1,42,-1
EndSplineSet
Validated: 1
EndChar

StartChar: macron
Encoding: 175 175 121
Width: 386
GlyphClass: 1
Flags: W
LayerCount: 2
Fore
SplineSet
376 720 m 1,0,-1
 376 635 l 1,1,-1
 10 635 l 1,2,-1
 10 720 l 1,3,-1
 376 720 l 1,0,-1
EndSplineSet
Validated: 1
EndChar

StartChar: degree
Encoding: 176 176 122
Width: 427
GlyphClass: 1
Flags: W
LayerCount: 2
Fore
SplineSet
80 653.5 m 128,-1,1
 132 702 132 702 214 702 c 0,2,3
 267 702 267 702 309 680.5 c 128,-1,4
 351 659 351 659 375 618.5 c 128,-1,5
 399 578 399 578 399 525 c 256,6,7
 399 472 399 472 374.5 431.5 c 128,-1,8
 350 391 350 391 307 369 c 128,-1,9
 264 347 264 347 211 347 c 0,10,11
 129 347 129 347 78.5 396 c 128,-1,12
 28 445 28 445 28 525 c 256,13,0
 28 605 28 605 80 653.5 c 128,-1,1
280 607.5 m 128,-1,15
 252 637 252 637 212 637 c 0,16,17
 173 637 173 637 145.5 607.5 c 128,-1,18
 118 578 118 578 118 525 c 0,19,20
 118 471 118 471 144.5 442.5 c 128,-1,21
 171 414 171 414 211 414 c 256,22,23
 251 414 251 414 279.5 443 c 128,-1,24
 308 472 308 472 308 525 c 256,25,14
 308 578 308 578 280 607.5 c 128,-1,15
EndSplineSet
Validated: 1
EndChar

StartChar: plusminus
Encoding: 177 177 123
Width: 717
GlyphClass: 1
Flags: W
LayerCount: 2
Fore
SplineSet
412 372 m 1,0,-1
 412 223 l 1,1,-1
 613 223 l 1,2,-1
 613 127 l 1,3,-1
 104 127 l 1,4,-1
 104 223 l 1,5,-1
 306 223 l 1,6,-1
 306 372 l 1,7,-1
 104 372 l 1,8,-1
 104 468 l 1,9,-1
 306 468 l 1,10,-1
 306 621 l 1,11,-1
 412 621 l 1,12,-1
 412 468 l 1,13,-1
 613 468 l 1,14,-1
 613 372 l 1,15,-1
 412 372 l 1,0,-1
EndSplineSet
Validated: 1
EndChar

StartChar: twosuperior
Encoding: 178 178 124
Width: 340
GlyphClass: 1
Flags: W
LayerCount: 2
Fore
SplineSet
298 424 m 1,0,-1
 298 352 l 1,1,-1
 29 352 l 1,2,-1
 29 418 l 1,3,-1
 137 497 l 2,4,5
 170 523 170 523 186.5 545 c 128,-1,6
 203 567 203 567 203 593 c 0,7,8
 203 616 203 616 190.5 629.5 c 128,-1,9
 178 643 178 643 159 643 c 0,10,11
 141 643 141 643 130 633 c 128,-1,12
 119 623 119 623 117 605 c 1,13,-1
 27 605 l 1,14,15
 29 653 29 653 64.5 682 c 128,-1,16
 100 711 100 711 162 711 c 0,17,18
 203 711 203 711 233.5 695 c 128,-1,19
 264 679 264 679 280.5 653 c 128,-1,20
 297 627 297 627 297 597 c 0,21,22
 297 561 297 561 275.5 533 c 128,-1,23
 254 505 254 505 203 471 c 2,24,-1
 130 424 l 1,25,-1
 298 424 l 1,0,-1
EndSplineSet
Validated: 1
EndChar

StartChar: threesuperior
Encoding: 179 179 125
Width: 342
GlyphClass: 1
Flags: W
LayerCount: 2
Fore
SplineSet
65 682.5 m 128,-1,1
 104 711 104 711 166 711 c 0,2,3
 204 711 204 711 236.5 697 c 128,-1,4
 269 683 269 683 287.5 659 c 128,-1,5
 306 635 306 635 306 606 c 0,6,7
 306 576 306 576 289 556.5 c 128,-1,8
 272 537 272 537 245 529 c 1,9,-1
 245 527 l 1,10,11
 273 517 273 517 291 496.5 c 128,-1,12
 309 476 309 476 309 446 c 0,13,14
 309 404 309 404 267.5 375.5 c 128,-1,15
 226 347 226 347 162 347 c 256,16,17
 98 347 98 347 59 376.5 c 128,-1,18
 20 406 20 406 18 457 c 1,19,-1
 106 457 l 1,20,21
 110 435 110 435 124 424 c 128,-1,22
 138 413 138 413 161 413 c 256,23,24
 184 413 184 413 198.5 425 c 128,-1,25
 213 437 213 437 213 458 c 0,26,27
 213 478 213 478 198 489.5 c 128,-1,28
 183 501 183 501 159 501 c 2,29,-1
 122 501 l 1,30,-1
 122 559 l 1,31,-1
 156 559 l 2,32,33
 181 559 181 559 195.5 570 c 128,-1,34
 210 581 210 581 210 601 c 256,35,36
 210 621 210 621 196.5 632.5 c 128,-1,37
 183 644 183 644 159 644 c 0,38,39
 117 644 117 644 107 609 c 1,40,-1
 22 609 l 1,41,0
 26 654 26 654 65 682.5 c 128,-1,1
EndSplineSet
Validated: 1
EndChar

StartChar: acute
Encoding: 180 180 126
Width: 241
GlyphClass: 1
Flags: W
LayerCount: 2
Fore
SplineSet
231 699 m 1,0,-1
 10 590 l 1,1,-1
 10 674 l 1,2,-1
 231 796 l 1,3,-1
 231 699 l 1,0,-1
EndSplineSet
Validated: 1
EndChar

StartChar: uni00B5
Encoding: 181 181 127
Width: 654
GlyphClass: 1
Flags: W
LayerCount: 2
Fore
SplineSet
579 551 m 1,0,-1
 579 0 l 1,1,-1
 465 0 l 1,2,-1
 465 87 l 1,3,4
 438 40 438 40 392.5 16 c 128,-1,5
 347 -8 347 -8 289 -8 c 0,6,7
 229 -8 229 -8 188 23 c 1,8,-1
 188 -262 l 1,9,-1
 75 -262 l 1,10,-1
 75 551 l 1,11,-1
 188 551 l 1,12,-1
 188 243 l 2,13,14
 188 169 188 169 225 129.5 c 128,-1,15
 262 90 262 90 326 90 c 256,16,17
 390 90 390 90 427.5 129.5 c 128,-1,18
 465 169 465 169 465 243 c 2,19,-1
 465 551 l 1,20,-1
 579 551 l 1,0,-1
EndSplineSet
Validated: 1
EndChar

StartChar: paragraph
Encoding: 182 182 128
Width: 630
GlyphClass: 1
Flags: W
LayerCount: 2
Fore
SplineSet
555 0 m 1,0,-1
 454 0 l 1,1,-1
 454 606 l 1,2,-1
 387 606 l 1,3,-1
 387 0 l 1,4,-1
 286 0 l 1,5,-1
 286 282 l 1,6,-1
 272 282 l 2,7,8
 154 282 154 282 94.5 339.5 c 128,-1,9
 35 397 35 397 35 488 c 256,10,11
 35 579 35 579 95 637 c 128,-1,12
 155 695 155 695 272 695 c 2,13,-1
 555 695 l 1,14,-1
 555 0 l 1,0,-1
EndSplineSet
Validated: 1
EndChar

StartChar: cedilla
Encoding: 184 184 130
Width: 279
GlyphClass: 1
Flags: W
LayerCount: 2
Fore
SplineSet
233 -75.5 m 128,-1,1
 269 -103 269 -103 269 -153 c 256,2,3
 269 -203 269 -203 233 -232.5 c 128,-1,4
 197 -262 197 -262 142 -262 c 2,5,-1
 10 -262 l 1,6,-1
 10 -190 l 1,7,-1
 119 -190 l 2,8,9
 147 -190 147 -190 161 -182 c 128,-1,10
 175 -174 175 -174 175 -153 c 256,11,12
 175 -132 175 -132 161 -124 c 128,-1,13
 147 -116 147 -116 119 -116 c 2,14,-1
 64 -116 l 1,15,-1
 64 7 l 1,16,-1
 139 7 l 1,17,-1
 139 -48 l 1,18,0
 197 -48 197 -48 233 -75.5 c 128,-1,1
EndSplineSet
Validated: 1
EndChar

StartChar: onesuperior
Encoding: 185 185 131
Width: 209
GlyphClass: 1
Flags: W
LayerCount: 2
Fore
SplineSet
20 636 m 1,0,-1
 20 704 l 1,1,-1
 163 704 l 1,2,-1
 163 352 l 1,3,-1
 74 352 l 1,4,-1
 74 636 l 1,5,-1
 20 636 l 1,0,-1
EndSplineSet
Validated: 1
EndChar

StartChar: ordmasculine
Encoding: 186 186 132
Width: 444
GlyphClass: 1
Flags: W
LayerCount: 2
Fore
SplineSet
56 623 m 128,-1,1
 81 664 81 664 124.5 686.5 c 128,-1,2
 168 709 168 709 222 709 c 256,3,4
 276 709 276 709 319.5 687 c 128,-1,5
 363 665 363 665 388 623.5 c 128,-1,6
 413 582 413 582 413 528 c 0,7,8
 413 475 413 475 387.5 433.5 c 128,-1,9
 362 392 362 392 318 369.5 c 128,-1,10
 274 347 274 347 220 347 c 256,11,12
 166 347 166 347 123 369.5 c 128,-1,13
 80 392 80 392 55.5 433 c 128,-1,14
 31 474 31 474 31 528 c 256,15,0
 31 582 31 582 56 623 c 128,-1,1
291.5 610 m 128,-1,17
 262 640 262 640 221 640 c 256,18,19
 180 640 180 640 151.5 610.5 c 128,-1,20
 123 581 123 581 123 527 c 0,21,22
 123 475 123 475 151 446 c 128,-1,23
 179 417 179 417 220 417 c 256,24,25
 261 417 261 417 291 446.5 c 128,-1,26
 321 476 321 476 321 527 c 0,27,16
 321 580 321 580 291.5 610 c 128,-1,17
EndSplineSet
Validated: 1
EndChar

StartChar: guillemotright
Encoding: 187 187 133
Width: 489
GlyphClass: 1
Flags: W
LayerCount: 2
Fore
SplineSet
145 295 m 1,0,-1
 50 470 l 1,1,-1
 159 470 l 1,2,-1
 252 295 l 1,3,-1
 159 120 l 1,4,-1
 50 120 l 1,5,-1
 145 295 l 1,0,-1
337 295 m 1,6,-1
 242 470 l 1,7,-1
 351 470 l 1,8,-1
 444 295 l 1,9,-1
 351 120 l 1,10,-1
 242 120 l 1,11,-1
 337 295 l 1,6,-1
EndSplineSet
Validated: 1
EndChar

StartChar: onequarter
Encoding: 188 188 134
Width: 682
GlyphClass: 1
Flags: W
LayerCount: 2
Fore
SplineSet
34 636 m 1,0,-1
 34 704 l 1,1,-1
 177 704 l 1,2,-1
 177 352 l 1,3,-1
 88 352 l 1,4,-1
 88 636 l 1,5,-1
 34 636 l 1,0,-1
553 696 m 1,6,-1
 171 0 l 1,7,-1
 63 0 l 1,8,-1
 446 696 l 1,9,-1
 553 696 l 1,6,-1
643 67 m 1,10,-1
 598 67 l 1,11,-1
 598 0 l 1,12,-1
 509 0 l 1,13,-1
 509 67 l 1,14,-1
 323 67 l 1,15,-1
 323 117 l 1,16,-1
 474 353 l 1,17,-1
 598 353 l 1,18,-1
 598 123 l 1,19,-1
 643 123 l 1,20,-1
 643 67 l 1,10,-1
511 285 m 1,21,-1
 412 123 l 1,22,-1
 511 123 l 1,23,-1
 511 285 l 1,21,-1
EndSplineSet
Validated: 1
EndChar

StartChar: onehalf
Encoding: 189 189 135
Width: 701
GlyphClass: 1
Flags: W
LayerCount: 2
Fore
SplineSet
88 636 m 1,0,-1
 34 636 l 1,1,-1
 34 704 l 1,2,-1
 177 704 l 1,3,-1
 177 352 l 1,4,-1
 88 352 l 1,5,-1
 88 636 l 1,0,-1
542 696 m 1,6,-1
 171 0 l 1,7,-1
 63 0 l 1,8,-1
 434 696 l 1,9,-1
 542 696 l 1,6,-1
657 71 m 1,10,-1
 657 -1 l 1,11,-1
 388 -1 l 1,12,-1
 388 65 l 1,13,-1
 496 144 l 2,14,15
 529 170 529 170 545.5 192 c 128,-1,16
 562 214 562 214 562 240 c 0,17,18
 562 263 562 263 549.5 276.5 c 128,-1,19
 537 290 537 290 518 290 c 0,20,21
 500 290 500 290 489 280 c 128,-1,22
 478 270 478 270 476 252 c 1,23,-1
 386 252 l 1,24,25
 388 300 388 300 423.5 329 c 128,-1,26
 459 358 459 358 521 358 c 0,27,28
 562 358 562 358 592.5 342 c 128,-1,29
 623 326 623 326 639.5 300 c 128,-1,30
 656 274 656 274 656 244 c 0,31,32
 656 208 656 208 634.5 180 c 128,-1,33
 613 152 613 152 562 118 c 2,34,-1
 489 71 l 1,35,-1
 657 71 l 1,10,-1
EndSplineSet
Validated: 1
EndChar

StartChar: threequarters
Encoding: 190 190 136
Width: 742
GlyphClass: 1
Flags: W
LayerCount: 2
Fore
SplineSet
80 682.5 m 128,-1,1
 119 711 119 711 181 711 c 0,2,3
 219 711 219 711 251.5 697 c 128,-1,4
 284 683 284 683 302.5 659 c 128,-1,5
 321 635 321 635 321 606 c 0,6,7
 321 576 321 576 304 556.5 c 128,-1,8
 287 537 287 537 260 529 c 1,9,-1
 260 527 l 1,10,11
 288 517 288 517 306 496.5 c 128,-1,12
 324 476 324 476 324 446 c 0,13,14
 324 404 324 404 282.5 375.5 c 128,-1,15
 241 347 241 347 177 347 c 256,16,17
 113 347 113 347 74 376.5 c 128,-1,18
 35 406 35 406 33 457 c 1,19,-1
 121 457 l 1,20,21
 125 435 125 435 139 424 c 128,-1,22
 153 413 153 413 176 413 c 256,23,24
 199 413 199 413 213.5 425 c 128,-1,25
 228 437 228 437 228 458 c 0,26,27
 228 478 228 478 213 489.5 c 128,-1,28
 198 501 198 501 174 501 c 2,29,-1
 137 501 l 1,30,-1
 137 559 l 1,31,-1
 171 559 l 2,32,33
 196 559 196 559 210.5 570 c 128,-1,34
 225 581 225 581 225 601 c 256,35,36
 225 621 225 621 211.5 632.5 c 128,-1,37
 198 644 198 644 174 644 c 0,38,39
 132 644 132 644 122 609 c 1,40,-1
 37 609 l 1,41,0
 41 654 41 654 80 682.5 c 128,-1,1
648 696 m 1,42,-1
 246 0 l 1,43,-1
 139 0 l 1,44,-1
 541 696 l 1,45,-1
 648 696 l 1,42,-1
716 67 m 1,46,-1
 671 67 l 1,47,-1
 671 0 l 1,48,-1
 582 0 l 1,49,-1
 582 67 l 1,50,-1
 396 67 l 1,51,-1
 396 117 l 1,52,-1
 547 353 l 1,53,-1
 671 353 l 1,54,-1
 671 123 l 1,55,-1
 716 123 l 1,56,-1
 716 67 l 1,46,-1
584 285 m 1,57,-1
 485 123 l 1,58,-1
 584 123 l 1,59,-1
 584 285 l 1,57,-1
EndSplineSet
Validated: 1
EndChar

StartChar: questiondown
Encoding: 191 191 137
Width: 538
GlyphClass: 1
Flags: W
LayerCount: 2
Fore
SplineSet
392 540 m 128,-1,1
 413 519 413 519 413 488 c 256,2,3
 413 457 413 457 392 436 c 128,-1,4
 371 415 371 415 340 415 c 0,5,6
 310 415 310 415 289 436 c 128,-1,7
 268 457 268 457 268 488 c 256,8,9
 268 519 268 519 289 540 c 128,-1,10
 310 561 310 561 340 561 c 0,11,0
 371 561 371 561 392 540 c 128,-1,1
112.5 -95 m 128,-1,13
 51 -39 51 -39 51 58 c 0,14,15
 51 159 51 159 115 210 c 128,-1,16
 179 261 179 261 285 261 c 1,17,-1
 289 340 l 1,18,-1
 388 340 l 1,19,-1
 393 183 l 1,20,-1
 360 183 l 2,21,22
 263 183 263 183 211.5 157 c 128,-1,23
 160 131 160 131 160 58 c 0,24,25
 160 5 160 5 190.5 -25 c 128,-1,26
 221 -55 221 -55 275 -55 c 256,27,28
 329 -55 329 -55 360 -26 c 128,-1,29
 391 3 391 3 391 55 c 1,30,-1
 498 55 l 1,31,32
 498 -5 498 -5 471 -52 c 128,-1,33
 444 -99 444 -99 393.5 -125 c 128,-1,34
 343 -151 343 -151 276 -151 c 0,35,12
 174 -151 174 -151 112.5 -95 c 128,-1,13
EndSplineSet
Validated: 1
Substitution2: "'ss01' Style Set 1 lookup 20 subtable" questiondown.ss01
EndChar

StartChar: AE
Encoding: 198 198 144
Width: 921
GlyphClass: 1
Flags: W
LayerCount: 2
Fore
SplineSet
586 607 m 1,0,-1
 586 396 l 1,1,-1
 825 396 l 1,2,-1
 825 308 l 1,3,-1
 586 308 l 1,4,-1
 586 89 l 1,5,-1
 855 89 l 1,6,-1
 855 0 l 1,7,-1
 472 0 l 1,8,-1
 472 142 l 1,9,-1
 213 142 l 1,10,-1
 136 0 l 1,11,-1
 12 0 l 1,12,-1
 395 696 l 1,13,-1
 855 696 l 1,14,-1
 855 607 l 1,15,-1
 586 607 l 1,0,-1
472 231 m 1,16,-1
 472 617 l 1,17,-1
 262 231 l 1,18,-1
 472 231 l 1,16,-1
EndSplineSet
Validated: 1
EndChar

StartChar: Ccedilla
Encoding: 199 199 145
Width: 773
GlyphClass: 1
Flags: W
LayerCount: 2
Fore
SplineSet
503 120 m 128,-1,1
 551 147 551 147 578 202 c 1,2,-1
 715 202 l 1,3,4
 679 110 679 110 603 56.5 c 128,-1,5
 527 3 527 3 427 -5 c 1,6,-1
 427 -48 l 1,7,8
 485 -48 485 -48 521 -75.5 c 128,-1,9
 557 -103 557 -103 557 -153 c 256,10,11
 557 -203 557 -203 521 -232.5 c 128,-1,12
 485 -262 485 -262 430 -262 c 2,13,-1
 298 -262 l 1,14,-1
 298 -190 l 1,15,-1
 407 -190 l 2,16,17
 435 -190 435 -190 449 -182 c 128,-1,18
 463 -174 463 -174 463 -153 c 256,19,20
 463 -132 463 -132 449 -124 c 128,-1,21
 435 -116 435 -116 407 -116 c 2,22,-1
 352 -116 l 1,23,-1
 352 -4 l 1,24,25
 264 5 264 5 192 52 c 128,-1,26
 120 99 120 99 78.5 176.5 c 128,-1,27
 37 254 37 254 37 349 c 0,28,29
 37 451 37 451 84.5 532 c 128,-1,30
 132 613 132 613 213.5 658.5 c 128,-1,31
 295 704 295 704 392 704 c 0,32,33
 503 704 503 704 589.5 649.5 c 128,-1,34
 676 595 676 595 715 495 c 1,35,-1
 578 495 l 1,36,37
 551 550 551 550 503 577 c 128,-1,38
 455 604 455 604 392 604 c 0,39,40
 323 604 323 604 269 573 c 128,-1,41
 215 542 215 542 184.5 484 c 128,-1,42
 154 426 154 426 154 349 c 256,43,44
 154 272 154 272 184.5 214 c 128,-1,45
 215 156 215 156 269 124.5 c 128,-1,46
 323 93 323 93 392 93 c 0,47,0
 455 93 455 93 503 120 c 128,-1,1
EndSplineSet
Validated: 1
EndChar

StartChar: Eth
Encoding: 208 208 154
Width: 720
GlyphClass: 1
Flags: W
LayerCount: 2
Fore
SplineSet
508 652.5 m 128,-1,1
 591 610 591 610 636.5 530.5 c 128,-1,2
 682 451 682 451 682 345 c 256,3,4
 682 239 682 239 636.5 161 c 128,-1,5
 591 83 591 83 508 41.5 c 128,-1,6
 425 0 425 0 314 0 c 2,7,-1
 86 0 l 1,8,-1
 86 293 l 1,9,-1
 9 293 l 1,10,-1
 9 398 l 1,11,-1
 86 398 l 1,12,-1
 86 695 l 1,13,-1
 314 695 l 2,14,0
 425 695 425 695 508 652.5 c 128,-1,1
500 156 m 128,-1,16
 565 225 565 225 565 345 c 0,17,18
 565 466 565 466 500 534.5 c 128,-1,19
 435 603 435 603 314 603 c 2,20,-1
 201 603 l 1,21,-1
 201 398 l 1,22,-1
 379 398 l 1,23,-1
 379 293 l 1,24,-1
 201 293 l 1,25,-1
 201 87 l 1,26,-1
 314 87 l 2,27,15
 435 87 435 87 500 156 c 128,-1,16
EndSplineSet
Validated: 1
EndChar

StartChar: multiply
Encoding: 215 215 161
Width: 699
GlyphClass: 1
Flags: W
LayerCount: 2
Fore
SplineSet
502 138 m 1,0,-1
 350 290 l 1,1,-1
 198 138 l 1,2,-1
 123 213 l 1,3,-1
 276 365 l 1,4,-1
 127 514 l 1,5,-1
 200 587 l 1,6,-1
 349 438 l 1,7,-1
 498 587 l 1,8,-1
 573 512 l 1,9,-1
 424 363 l 1,10,-1
 575 211 l 1,11,-1
 502 138 l 1,0,-1
EndSplineSet
Validated: 1
EndChar

StartChar: Oslash
Encoding: 216 216 162
Width: 784
GlyphClass: 1
Flags: W
LayerCount: 2
Fore
SplineSet
659 589 m 1,0,1
 701 542 701 542 724 480.5 c 128,-1,2
 747 419 747 419 747 349 c 0,3,4
 747 247 747 247 700 165.5 c 128,-1,5
 653 84 653 84 571.5 38.5 c 128,-1,6
 490 -7 490 -7 392 -7 c 0,7,8
 331 -7 331 -7 275.5 11 c 128,-1,9
 220 29 220 29 175 63 c 1,10,-1
 117 0 l 1,11,-1
 26 0 l 1,12,-1
 126 108 l 1,13,14
 84 156 84 156 60.5 217.5 c 128,-1,15
 37 279 37 279 37 349 c 0,16,17
 37 451 37 451 84.5 532 c 128,-1,18
 132 613 132 613 213.5 658.5 c 128,-1,19
 295 704 295 704 392 704 c 0,20,21
 453 704 453 704 509 686 c 128,-1,22
 565 668 565 668 610 634 c 1,23,-1
 667 696 l 1,24,-1
 758 696 l 1,25,-1
 659 589 l 1,0,1
200 188 m 1,27,-1
 539 557 l 1,28,29
 476 604 476 604 392 604 c 0,30,31
 323 604 323 604 269 573 c 128,-1,32
 215 542 215 542 184.5 484 c 128,-1,33
 154 426 154 426 154 349 c 0,34,26
 154 256 154 256 200 188 c 1,27,-1
585 508 m 1,36,-1
 246 140 l 1,37,38
 306 92 306 92 392 92 c 0,39,40
 461 92 461 92 515 123.5 c 128,-1,41
 569 155 569 155 599.5 213.5 c 128,-1,42
 630 272 630 272 630 349 c 0,43,35
 630 443 630 443 585 508 c 1,36,-1
EndSplineSet
Validated: 1
EndChar

StartChar: Thorn
Encoding: 222 222 168
Width: 595
GlyphClass: 1
Flags: W
LayerCount: 2
Fore
SplineSet
536 248 m 128,-1,1
 511 201 511 201 456 171.5 c 128,-1,2
 401 142 401 142 315 142 c 2,3,-1
 189 142 l 1,4,-1
 189 0 l 1,5,-1
 75 0 l 1,6,-1
 75 696 l 1,7,-1
 188 696 l 1,8,-1
 188 555 l 1,9,-1
 315 555 l 2,10,11
 395 555 395 555 450.5 527.5 c 128,-1,12
 506 500 506 500 533.5 453 c 128,-1,13
 561 406 561 406 561 348 c 0,14,0
 561 295 561 295 536 248 c 128,-1,1
412 262 m 128,-1,16
 444 293 444 293 444 348 c 256,17,18
 444 403 444 403 412 434.5 c 128,-1,19
 380 466 380 466 315 466 c 2,20,-1
 189 466 l 1,21,-1
 189 231 l 1,22,-1
 315 231 l 2,23,15
 380 231 380 231 412 262 c 128,-1,16
EndSplineSet
Validated: 1
EndChar

StartChar: germandbls
Encoding: 223 223 169
Width: 699
GlyphClass: 1
Flags: W
LayerCount: 2
Fore
SplineSet
116 713.5 m 128,-1,1
 178 773 178 773 302 773 c 0,2,3
 375 773 375 773 427 748.5 c 128,-1,4
 479 724 479 724 505.5 685 c 128,-1,5
 532 646 532 646 532 601 c 0,6,7
 532 549 532 549 507.5 515.5 c 128,-1,8
 483 482 483 482 441 447 c 0,9,10
 418 426 418 426 407.5 414.5 c 128,-1,11
 397 403 397 403 397 390 c 0,12,13
 397 372 397 372 418.5 357.5 c 128,-1,14
 440 343 440 343 502 322 c 0,15,16
 577 297 577 297 611 256.5 c 128,-1,17
 645 216 645 216 645 155 c 0,18,19
 645 81 645 81 591 35.5 c 128,-1,20
 537 -10 537 -10 443 -10 c 0,21,22
 352 -10 352 -10 295.5 38 c 128,-1,23
 239 86 239 86 232 173 c 1,24,-1
 348 173 l 1,25,26
 350 130 350 130 374 105.5 c 128,-1,27
 398 81 398 81 443 81 c 0,28,29
 528 81 528 81 528 146 c 0,30,31
 528 179 528 179 508.5 198.5 c 128,-1,32
 489 218 489 218 437 235 c 0,33,34
 355 262 355 262 318.5 293.5 c 128,-1,35
 282 325 282 325 282 374 c 0,36,37
 282 409 282 409 300.5 435 c 128,-1,38
 319 461 319 461 356 496 c 0,39,40
 388 526 388 526 403 546.5 c 128,-1,41
 418 567 418 567 418 592 c 0,42,43
 418 633 418 633 386.5 655.5 c 128,-1,44
 355 678 355 678 300 678 c 0,45,46
 229 678 229 678 198.5 645 c 128,-1,47
 168 612 168 612 168 547 c 2,48,-1
 168 0 l 1,49,-1
 54 0 l 1,50,-1
 54 562 l 2,51,0
 54 654 54 654 116 713.5 c 128,-1,1
EndSplineSet
Validated: 1
EndChar

StartChar: ae
Encoding: 230 230 176
Width: 921
GlyphClass: 1
Flags: W
LayerCount: 2
Fore
SplineSet
586 607 m 1,0,-1
 586 396 l 1,1,-1
 825 396 l 1,2,-1
 825 308 l 1,3,-1
 586 308 l 1,4,-1
 586 89 l 1,5,-1
 855 89 l 1,6,-1
 855 0 l 1,7,-1
 472 0 l 1,8,-1
 472 142 l 1,9,-1
 213 142 l 1,10,-1
 136 0 l 1,11,-1
 12 0 l 1,12,-1
 395 696 l 1,13,-1
 855 696 l 1,14,-1
 855 607 l 1,15,-1
 586 607 l 1,0,-1
472 231 m 1,16,-1
 472 617 l 1,17,-1
 262 231 l 1,18,-1
 472 231 l 1,16,-1
EndSplineSet
Validated: 1
EndChar

StartChar: ccedilla
Encoding: 231 231 177
Width: 773
GlyphClass: 1
Flags: W
LayerCount: 2
Fore
SplineSet
503 120 m 128,-1,1
 551 147 551 147 578 202 c 1,2,-1
 715 202 l 1,3,4
 679 110 679 110 603 56.5 c 128,-1,5
 527 3 527 3 427 -5 c 1,6,-1
 427 -48 l 1,7,8
 485 -48 485 -48 521 -75.5 c 128,-1,9
 557 -103 557 -103 557 -153 c 256,10,11
 557 -203 557 -203 521 -232.5 c 128,-1,12
 485 -262 485 -262 430 -262 c 2,13,-1
 298 -262 l 1,14,-1
 298 -190 l 1,15,-1
 407 -190 l 2,16,17
 435 -190 435 -190 449 -182 c 128,-1,18
 463 -174 463 -174 463 -153 c 256,19,20
 463 -132 463 -132 449 -124 c 128,-1,21
 435 -116 435 -116 407 -116 c 2,22,-1
 352 -116 l 1,23,-1
 352 -4 l 1,24,25
 264 5 264 5 192 52 c 128,-1,26
 120 99 120 99 78.5 176.5 c 128,-1,27
 37 254 37 254 37 349 c 0,28,29
 37 451 37 451 84.5 532 c 128,-1,30
 132 613 132 613 213.5 658.5 c 128,-1,31
 295 704 295 704 392 704 c 0,32,33
 503 704 503 704 589.5 649.5 c 128,-1,34
 676 595 676 595 715 495 c 1,35,-1
 578 495 l 1,36,37
 551 550 551 550 503 577 c 128,-1,38
 455 604 455 604 392 604 c 0,39,40
 323 604 323 604 269 573 c 128,-1,41
 215 542 215 542 184.5 484 c 128,-1,42
 154 426 154 426 154 349 c 256,43,44
 154 272 154 272 184.5 214 c 128,-1,45
 215 156 215 156 269 124.5 c 128,-1,46
 323 93 323 93 392 93 c 0,47,0
 455 93 455 93 503 120 c 128,-1,1
EndSplineSet
Validated: 1
EndChar

StartChar: eth
Encoding: 240 240 186
Width: 720
GlyphClass: 1
Flags: W
LayerCount: 2
Fore
SplineSet
508 652.5 m 128,-1,1
 591 610 591 610 636.5 530.5 c 128,-1,2
 682 451 682 451 682 345 c 256,3,4
 682 239 682 239 636.5 161 c 128,-1,5
 591 83 591 83 508 41.5 c 128,-1,6
 425 0 425 0 314 0 c 2,7,-1
 86 0 l 1,8,-1
 86 293 l 1,9,-1
 9 293 l 1,10,-1
 9 398 l 1,11,-1
 86 398 l 1,12,-1
 86 695 l 1,13,-1
 314 695 l 2,14,0
 425 695 425 695 508 652.5 c 128,-1,1
500 156 m 128,-1,16
 565 225 565 225 565 345 c 0,17,18
 565 466 565 466 500 534.5 c 128,-1,19
 435 603 435 603 314 603 c 2,20,-1
 201 603 l 1,21,-1
 201 398 l 1,22,-1
 379 398 l 1,23,-1
 379 293 l 1,24,-1
 201 293 l 1,25,-1
 201 87 l 1,26,-1
 314 87 l 2,27,15
 435 87 435 87 500 156 c 128,-1,16
EndSplineSet
Validated: 1
EndChar

StartChar: divide
Encoding: 247 247 193
Width: 679
GlyphClass: 1
Flags: W
LayerCount: 2
Fore
SplineSet
295 526 m 128,-1,1
 274 547 274 547 274 578 c 256,2,3
 274 609 274 609 295 630 c 128,-1,4
 316 651 316 651 347 651 c 0,5,6
 377 651 377 651 398 630 c 128,-1,7
 419 609 419 609 419 578 c 256,8,9
 419 547 419 547 398 526 c 128,-1,10
 377 505 377 505 347 505 c 0,11,0
 316 505 316 505 295 526 c 128,-1,1
600 410 m 1,12,-1
 600 314 l 1,13,-1
 90 314 l 1,14,-1
 90 410 l 1,15,-1
 600 410 l 1,12,-1
295 96 m 128,-1,17
 274 117 274 117 274 148 c 256,18,19
 274 179 274 179 295 200 c 128,-1,20
 316 221 316 221 347 221 c 0,21,22
 377 221 377 221 398 200 c 128,-1,23
 419 179 419 179 419 148 c 256,24,25
 419 117 419 117 398 96 c 128,-1,26
 377 75 377 75 347 75 c 0,27,16
 316 75 316 75 295 96 c 128,-1,17
EndSplineSet
Validated: 1
Substitution2: "'ss01' Style Set 1 lookup 20 subtable" divide.ss01
EndChar

StartChar: oslash
Encoding: 248 248 194
Width: 784
GlyphClass: 1
Flags: W
LayerCount: 2
Fore
SplineSet
659 589 m 1,0,1
 701 542 701 542 724 480.5 c 128,-1,2
 747 419 747 419 747 349 c 0,3,4
 747 247 747 247 700 165.5 c 128,-1,5
 653 84 653 84 571.5 38.5 c 128,-1,6
 490 -7 490 -7 392 -7 c 0,7,8
 331 -7 331 -7 275.5 11 c 128,-1,9
 220 29 220 29 175 63 c 1,10,-1
 117 0 l 1,11,-1
 26 0 l 1,12,-1
 126 108 l 1,13,14
 84 156 84 156 60.5 217.5 c 128,-1,15
 37 279 37 279 37 349 c 0,16,17
 37 451 37 451 84.5 532 c 128,-1,18
 132 613 132 613 213.5 658.5 c 128,-1,19
 295 704 295 704 392 704 c 0,20,21
 453 704 453 704 509 686 c 128,-1,22
 565 668 565 668 610 634 c 1,23,-1
 667 696 l 1,24,-1
 758 696 l 1,25,-1
 659 589 l 1,0,1
200 188 m 1,27,-1
 539 557 l 1,28,29
 476 604 476 604 392 604 c 0,30,31
 323 604 323 604 269 573 c 128,-1,32
 215 542 215 542 184.5 484 c 128,-1,33
 154 426 154 426 154 349 c 0,34,26
 154 256 154 256 200 188 c 1,27,-1
585 508 m 1,36,-1
 246 140 l 1,37,38
 306 92 306 92 392 92 c 0,39,40
 461 92 461 92 515 123.5 c 128,-1,41
 569 155 569 155 599.5 213.5 c 128,-1,42
 630 272 630 272 630 349 c 0,43,35
 630 443 630 443 585 508 c 1,36,-1
EndSplineSet
Validated: 1
EndChar

StartChar: thorn
Encoding: 254 254 200
Width: 595
GlyphClass: 1
Flags: W
LayerCount: 2
Fore
SplineSet
536 248 m 128,-1,1
 511 201 511 201 456 171.5 c 128,-1,2
 401 142 401 142 315 142 c 2,3,-1
 189 142 l 1,4,-1
 189 0 l 1,5,-1
 75 0 l 1,6,-1
 75 696 l 1,7,-1
 188 696 l 1,8,-1
 188 555 l 1,9,-1
 315 555 l 2,10,11
 395 555 395 555 450.5 527.5 c 128,-1,12
 506 500 506 500 533.5 453 c 128,-1,13
 561 406 561 406 561 348 c 0,14,0
 561 295 561 295 536 248 c 128,-1,1
412 262 m 128,-1,16
 444 293 444 293 444 348 c 256,17,18
 444 403 444 403 412 434.5 c 128,-1,19
 380 466 380 466 315 466 c 2,20,-1
 189 466 l 1,21,-1
 189 231 l 1,22,-1
 315 231 l 2,23,15
 380 231 380 231 412 262 c 128,-1,16
EndSplineSet
Validated: 1
EndChar

StartChar: Aogonek
Encoding: 260 260 206
Width: 697
GlyphClass: 1
Flags: W
LayerCount: 2
Fore
SplineSet
679 -123 m 1,1,-1
 679 -196 l 1,2,3
 641 -211 641 -211 598 -211 c 0,4,5
 544 -211 544 -211 504.5 -184.5 c 128,-1,6
 465 -158 465 -158 465 -103 c 0,7,8
 465 -37 465 -37 540 11 c 1,9,-1
 494 142 l 1,10,-1
 203 142 l 1,11,-1
 153 0 l 1,12,-1
 34 0 l 1,13,-1
 283 696 l 1,14,-1
 415 696 l 1,15,-1
 664 0 l 1,16,-1
 615 -25 l 2,17,18
 584 -41 584 -41 571 -56.5 c 128,-1,19
 558 -72 558 -72 558 -91 c 0,20,21
 558 -112 558 -112 573 -124.5 c 128,-1,22
 588 -137 588 -137 613 -137 c 0,23,0
 643 -137 643 -137 679 -123 c 1,1,-1
462 235 m 1,24,-1
 349 558 l 1,25,-1
 235 235 l 1,26,-1
 462 235 l 1,24,-1
EndSplineSet
Validated: 1
EndChar

StartChar: aogonek
Encoding: 261 261 207
Width: 697
GlyphClass: 1
Flags: W
LayerCount: 2
Fore
SplineSet
679 -123 m 1,1,-1
 679 -196 l 1,2,3
 641 -211 641 -211 598 -211 c 0,4,5
 544 -211 544 -211 504.5 -184.5 c 128,-1,6
 465 -158 465 -158 465 -103 c 0,7,8
 465 -37 465 -37 540 11 c 1,9,-1
 494 142 l 1,10,-1
 203 142 l 1,11,-1
 153 0 l 1,12,-1
 34 0 l 1,13,-1
 283 696 l 1,14,-1
 415 696 l 1,15,-1
 664 0 l 1,16,-1
 615 -25 l 2,17,18
 584 -41 584 -41 571 -56.5 c 128,-1,19
 558 -72 558 -72 558 -91 c 0,20,21
 558 -112 558 -112 573 -124.5 c 128,-1,22
 588 -137 588 -137 613 -137 c 0,23,0
 643 -137 643 -137 679 -123 c 1,1,-1
462 235 m 1,24,-1
 349 558 l 1,25,-1
 235 235 l 1,26,-1
 462 235 l 1,24,-1
EndSplineSet
Validated: 1
Substitution2: "'ss02' Style Set 2 lookup 21 subtable" aogonek.ss02
EndChar

StartChar: dcaron
Encoding: 271 271 215
Width: 781
GlyphClass: 1
Flags: W
LayerCount: 2
Fore
SplineSet
71.5 425 m 128,-1,1
 106 489 106 489 165.5 524.5 c 128,-1,2
 225 560 225 560 298 560 c 0,3,4
 352 560 352 560 404.5 536.5 c 128,-1,5
 457 513 457 513 488 474 c 1,6,-1
 488 740 l 1,7,-1
 603 740 l 1,8,-1
 603 0 l 1,9,-1
 488 0 l 1,10,-1
 488 83 l 1,11,12
 460 43 460 43 410.5 17 c 128,-1,13
 361 -9 361 -9 297 -9 c 0,14,15
 225 -9 225 -9 165.5 27.5 c 128,-1,16
 106 64 106 64 71.5 129.5 c 128,-1,17
 37 195 37 195 37 278 c 256,18,0
 37 361 37 361 71.5 425 c 128,-1,1
771 640 m 0,20,21
 771 516 771 516 658 516 c 1,22,-1
 658 566 l 1,23,24
 707 566 707 566 707 622 c 2,25,-1
 707 643 l 1,26,-1
 654 643 l 1,27,-1
 654 740 l 1,28,-1
 757 740 l 1,29,19
 771 682 771 682 771 640 c 0,20,21
464.5 375 m 128,-1,31
 441 417 441 417 403 439 c 128,-1,32
 365 461 365 461 321 461 c 256,33,34
 277 461 277 461 239 439.5 c 128,-1,35
 201 418 201 418 177.5 376.5 c 128,-1,36
 154 335 154 335 154 278 c 256,37,38
 154 221 154 221 177.5 178 c 128,-1,39
 201 135 201 135 239.5 112.5 c 128,-1,40
 278 90 278 90 321 90 c 0,41,42
 365 90 365 90 403 112 c 128,-1,43
 441 134 441 134 464.5 176.5 c 128,-1,44
 488 219 488 219 488 276 c 256,45,30
 488 333 488 333 464.5 375 c 128,-1,31
EndSplineSet
Validated: 1
EndChar

StartChar: dcroat
Encoding: 273 273 217
Width: 678
GlyphClass: 1
Flags: W
LayerCount: 2
Fore
SplineSet
662 590 m 1,0,-1
 603 590 l 1,1,-1
 603 0 l 1,2,-1
 488 0 l 1,3,-1
 488 83 l 1,4,5
 460 43 460 43 410.5 17 c 128,-1,6
 361 -9 361 -9 297 -9 c 0,7,8
 225 -9 225 -9 165.5 27.5 c 128,-1,9
 106 64 106 64 71.5 129.5 c 128,-1,10
 37 195 37 195 37 278 c 256,11,12
 37 361 37 361 71.5 425 c 128,-1,13
 106 489 106 489 165.5 524.5 c 128,-1,14
 225 560 225 560 298 560 c 0,15,16
 352 560 352 560 404.5 536.5 c 128,-1,17
 457 513 457 513 488 474 c 1,18,-1
 488 590 l 1,19,-1
 406 590 l 1,20,-1
 406 656 l 1,21,-1
 488 656 l 1,22,-1
 488 740 l 1,23,-1
 603 740 l 1,24,-1
 603 656 l 1,25,-1
 662 656 l 1,26,-1
 662 590 l 1,0,-1
403 112 m 128,-1,28
 441 134 441 134 464.5 176.5 c 128,-1,29
 488 219 488 219 488 276 c 256,30,31
 488 333 488 333 464.5 375 c 128,-1,32
 441 417 441 417 403 439 c 128,-1,33
 365 461 365 461 321 461 c 256,34,35
 277 461 277 461 239 439.5 c 128,-1,36
 201 418 201 418 177.5 376.5 c 128,-1,37
 154 335 154 335 154 278 c 256,38,39
 154 221 154 221 177.5 178 c 128,-1,40
 201 135 201 135 239.5 112.5 c 128,-1,41
 278 90 278 90 321 90 c 0,42,27
 365 90 365 90 403 112 c 128,-1,28
EndSplineSet
Validated: 1
EndChar

StartChar: Eogonek
Encoding: 280 280 224
Width: 524
GlyphClass: 1
Flags: W
LayerCount: 2
Fore
SplineSet
474 -123 m 1,1,-1
 474 -196 l 1,2,3
 436 -211 436 -211 393 -211 c 0,4,5
 339 -211 339 -211 299.5 -184.5 c 128,-1,6
 260 -158 260 -158 260 -103 c 0,7,8
 260 -45 260 -45 319 0 c 1,9,-1
 75 0 l 1,10,-1
 75 696 l 1,11,-1
 459 696 l 1,12,-1
 459 603 l 1,13,-1
 189 603 l 1,14,-1
 189 399 l 1,15,-1
 429 399 l 1,16,-1
 429 306 l 1,17,-1
 189 306 l 1,18,-1
 189 93 l 1,19,-1
 459 93 l 1,20,-1
 459 0 l 1,21,-1
 410 -25 l 2,22,23
 379 -41 379 -41 366 -56.5 c 128,-1,24
 353 -72 353 -72 353 -91 c 0,25,26
 353 -112 353 -112 368 -124.5 c 128,-1,27
 383 -137 383 -137 408 -137 c 0,28,0
 438 -137 438 -137 474 -123 c 1,1,-1
EndSplineSet
Validated: 1
EndChar

StartChar: eogonek
Encoding: 281 281 225
Width: 524
GlyphClass: 1
Flags: W
LayerCount: 2
Fore
SplineSet
474 -123 m 1,1,-1
 474 -196 l 1,2,3
 436 -211 436 -211 393 -211 c 0,4,5
 339 -211 339 -211 299.5 -184.5 c 128,-1,6
 260 -158 260 -158 260 -103 c 0,7,8
 260 -45 260 -45 319 0 c 1,9,-1
 75 0 l 1,10,-1
 75 696 l 1,11,-1
 459 696 l 1,12,-1
 459 603 l 1,13,-1
 189 603 l 1,14,-1
 189 399 l 1,15,-1
 429 399 l 1,16,-1
 429 306 l 1,17,-1
 189 306 l 1,18,-1
 189 93 l 1,19,-1
 459 93 l 1,20,-1
 459 0 l 1,21,-1
 410 -25 l 2,22,23
 379 -41 379 -41 366 -56.5 c 128,-1,24
 353 -72 353 -72 353 -91 c 0,25,26
 353 -112 353 -112 368 -124.5 c 128,-1,27
 383 -137 383 -137 408 -137 c 0,28,0
 438 -137 438 -137 474 -123 c 1,1,-1
EndSplineSet
Validated: 1
EndChar

StartChar: uni0122
Encoding: 290 290 232
Width: 773
GlyphClass: 1
Flags: W
LayerCount: 2
Fore
SplineSet
578 495 m 1,0,1
 551 547 551 547 503 573.5 c 128,-1,2
 455 600 455 600 392 600 c 0,3,4
 323 600 323 600 269 569 c 128,-1,5
 215 538 215 538 184.5 481 c 128,-1,6
 154 424 154 424 154 349 c 256,7,8
 154 274 154 274 184.5 216.5 c 128,-1,9
 215 159 215 159 269 128 c 128,-1,10
 323 97 323 97 392 97 c 0,11,12
 485 97 485 97 543 149 c 128,-1,13
 601 201 601 201 614 290 c 1,14,-1
 353 290 l 1,15,-1
 353 381 l 1,16,-1
 736 381 l 1,17,-1
 736 292 l 1,18,19
 725 211 725 211 678.5 143 c 128,-1,20
 632 75 632 75 557.5 34.5 c 128,-1,21
 483 -6 483 -6 392 -6 c 0,22,23
 294 -6 294 -6 213 39.5 c 128,-1,24
 132 85 132 85 84.5 166 c 128,-1,25
 37 247 37 247 37 349 c 256,26,27
 37 451 37 451 84.5 532 c 128,-1,28
 132 613 132 613 213.5 658.5 c 128,-1,29
 295 704 295 704 392 704 c 0,30,31
 503 704 503 704 589.5 649.5 c 128,-1,32
 676 595 676 595 715 495 c 1,33,-1
 578 495 l 1,0,1
449 -145 m 0,35,36
 449 -207 449 -207 420.5 -238.5 c 128,-1,37
 392 -270 392 -270 336 -270 c 1,38,-1
 336 -220 l 1,39,40
 361 -220 361 -220 373 -206 c 128,-1,41
 385 -192 385 -192 385 -163 c 2,42,-1
 385 -142 l 1,43,-1
 332 -142 l 1,44,-1
 332 -46 l 1,45,-1
 435 -46 l 1,46,34
 449 -104 449 -104 449 -145 c 0,35,36
EndSplineSet
Validated: 1
EndChar

StartChar: uni0123
Encoding: 291 291 233
Width: 678
GlyphClass: 1
Flags: W
LayerCount: 2
Fore
SplineSet
277 696 m 0,1,2
 277 821 277 821 389 821 c 1,3,-1
 389 771 l 1,4,5
 341 771 341 771 341 715 c 2,6,-1
 341 694 l 1,7,-1
 393 694 l 1,8,-1
 393 597 l 1,9,-1
 290 597 l 1,10,0
 277 650 277 650 277 696 c 0,1,2
410.5 534.5 m 128,-1,12
 460 509 460 509 488 471 c 1,13,-1
 488 551 l 1,14,-1
 603 551 l 1,15,-1
 603 -9 l 2,16,17
 603 -85 603 -85 571 -144.5 c 128,-1,18
 539 -204 539 -204 478.5 -238 c 128,-1,19
 418 -272 418 -272 334 -272 c 0,20,21
 222 -272 222 -272 148 -219.5 c 128,-1,22
 74 -167 74 -167 64 -77 c 1,23,-1
 177 -77 l 1,24,25
 190 -120 190 -120 232.5 -146.5 c 128,-1,26
 275 -173 275 -173 334 -173 c 0,27,28
 403 -173 403 -173 445.5 -131 c 128,-1,29
 488 -89 488 -89 488 -9 c 2,30,-1
 488 83 l 1,31,32
 459 44 459 44 409.5 17.5 c 128,-1,33
 360 -9 360 -9 297 -9 c 0,34,35
 225 -9 225 -9 165.5 27.5 c 128,-1,36
 106 64 106 64 71.5 129.5 c 128,-1,37
 37 195 37 195 37 278 c 256,38,39
 37 361 37 361 71.5 425 c 128,-1,40
 106 489 106 489 165.5 524.5 c 128,-1,41
 225 560 225 560 297 560 c 0,42,11
 361 560 361 560 410.5 534.5 c 128,-1,12
464.5 375 m 128,-1,44
 441 417 441 417 403 439 c 128,-1,45
 365 461 365 461 321 461 c 256,46,47
 277 461 277 461 239 439.5 c 128,-1,48
 201 418 201 418 177.5 376.5 c 128,-1,49
 154 335 154 335 154 278 c 256,50,51
 154 221 154 221 177.5 178 c 128,-1,52
 201 135 201 135 239.5 112.5 c 128,-1,53
 278 90 278 90 321 90 c 0,54,55
 365 90 365 90 403 112 c 128,-1,56
 441 134 441 134 464.5 176.5 c 128,-1,57
 488 219 488 219 488 276 c 256,58,43
 488 333 488 333 464.5 375 c 128,-1,44
EndSplineSet
Validated: 1
EndChar

StartChar: Iogonek
Encoding: 302 302 240
Width: 264
GlyphClass: 1
Flags: W
LayerCount: 2
Fore
SplineSet
204 -122 m 1,1,-1
 204 -195 l 1,2,3
 166 -210 166 -210 123 -210 c 0,4,5
 69 -210 69 -210 29.5 -183.5 c 128,-1,6
 -10 -157 -10 -157 -10 -102 c 0,7,8
 -10 -33 -10 -33 75 18 c 1,9,-1
 75 695 l 1,10,-1
 189 695 l 1,11,-1
 189 0 l 1,12,-1
 187 0 l 1,13,-1
 140 -24 l 2,14,15
 109 -40 109 -40 96 -55.5 c 128,-1,16
 83 -71 83 -71 83 -90 c 0,17,18
 83 -111 83 -111 98 -123.5 c 128,-1,19
 113 -136 113 -136 138 -136 c 0,20,0
 168 -136 168 -136 204 -122 c 1,1,-1
EndSplineSet
Validated: 1
EndChar

StartChar: iogonek
Encoding: 303 303 241
Width: 264
GlyphClass: 1
Flags: W
LayerCount: 2
Fore
SplineSet
204 -122 m 1,1,-1
 204 -195 l 1,2,3
 166 -210 166 -210 123 -210 c 0,4,5
 69 -210 69 -210 29.5 -183.5 c 128,-1,6
 -10 -157 -10 -157 -10 -102 c 0,7,8
 -10 -33 -10 -33 75 18 c 1,9,-1
 75 695 l 1,10,-1
 189 695 l 1,11,-1
 189 0 l 1,12,-1
 187 0 l 1,13,-1
 140 -24 l 2,14,15
 109 -40 109 -40 96 -55.5 c 128,-1,16
 83 -71 83 -71 83 -90 c 0,17,18
 83 -111 83 -111 98 -123.5 c 128,-1,19
 113 -136 113 -136 138 -136 c 0,20,0
 168 -136 168 -136 204 -122 c 1,1,-1
EndSplineSet
Validated: 1
EndChar

StartChar: dotlessi
Encoding: 305 305 243
Width: 264
GlyphClass: 1
Flags: W
LayerCount: 2
Fore
SplineSet
189 695 m 1,0,-1
 189 0 l 1,1,-1
 75 0 l 1,2,-1
 75 695 l 1,3,-1
 189 695 l 1,0,-1
EndSplineSet
EndChar

StartChar: uni0136
Encoding: 310 310 244
Width: 633
GlyphClass: 1
Flags: W
LayerCount: 2
Fore
SplineSet
607 0 m 1,0,-1
 458 0 l 1,1,-1
 189 311 l 1,2,-1
 189 0 l 1,3,-1
 75 0 l 1,4,-1
 75 695 l 1,5,-1
 189 695 l 1,6,-1
 189 378 l 1,7,-1
 459 695 l 1,8,-1
 602 695 l 1,9,-1
 300 347 l 1,10,-1
 607 0 l 1,0,-1
365 -46 m 1,11,12
 379 -98 379 -98 379 -145 c 0,13,14
 379 -270 379 -270 267 -270 c 1,15,-1
 267 -220 l 1,16,17
 315 -220 315 -220 315 -163 c 2,18,-1
 315 -142 l 1,19,-1
 262 -142 l 1,20,-1
 262 -46 l 1,21,-1
 365 -46 l 1,11,12
EndSplineSet
Validated: 1
EndChar

StartChar: uni0137
Encoding: 311 311 245
Width: 633
GlyphClass: 1
Flags: W
LayerCount: 2
Fore
SplineSet
607 0 m 1,0,-1
 458 0 l 1,1,-1
 189 311 l 1,2,-1
 189 0 l 1,3,-1
 75 0 l 1,4,-1
 75 695 l 1,5,-1
 189 695 l 1,6,-1
 189 378 l 1,7,-1
 459 695 l 1,8,-1
 602 695 l 1,9,-1
 300 347 l 1,10,-1
 607 0 l 1,0,-1
365 -46 m 1,11,12
 379 -98 379 -98 379 -145 c 0,13,14
 379 -270 379 -270 267 -270 c 1,15,-1
 267 -220 l 1,16,17
 315 -220 315 -220 315 -163 c 2,18,-1
 315 -142 l 1,19,-1
 262 -142 l 1,20,-1
 262 -46 l 1,21,-1
 365 -46 l 1,11,12
EndSplineSet
Validated: 1
EndChar

StartChar: uni013B
Encoding: 315 315 248
Width: 444
GlyphClass: 1
Flags: W
LayerCount: 2
Fore
SplineSet
189 92 m 1,0,-1
 424 92 l 1,1,-1
 424 0 l 1,2,-1
 75 0 l 1,3,-1
 75 695 l 1,4,-1
 189 695 l 1,5,-1
 189 92 l 1,0,-1
310 -145 m 0,7,8
 310 -270 310 -270 197 -270 c 1,9,-1
 197 -220 l 1,10,11
 222 -220 222 -220 234 -206 c 128,-1,12
 246 -192 246 -192 246 -163 c 2,13,-1
 246 -142 l 1,14,-1
 193 -142 l 1,15,-1
 193 -46 l 1,16,-1
 296 -46 l 1,17,6
 310 -98 310 -98 310 -145 c 0,7,8
EndSplineSet
Validated: 1
EndChar

StartChar: uni013C
Encoding: 316 316 249
Width: 444
GlyphClass: 1
Flags: W
LayerCount: 2
Fore
SplineSet
189 92 m 1,0,-1
 424 92 l 1,1,-1
 424 0 l 1,2,-1
 75 0 l 1,3,-1
 75 695 l 1,4,-1
 189 695 l 1,5,-1
 189 92 l 1,0,-1
310 -145 m 0,7,8
 310 -270 310 -270 197 -270 c 1,9,-1
 197 -220 l 1,10,11
 222 -220 222 -220 234 -206 c 128,-1,12
 246 -192 246 -192 246 -163 c 2,13,-1
 246 -142 l 1,14,-1
 193 -142 l 1,15,-1
 193 -46 l 1,16,-1
 296 -46 l 1,17,6
 310 -98 310 -98 310 -145 c 0,7,8
EndSplineSet
Validated: 1
EndChar

StartChar: Lcaron
Encoding: 317 317 250
Width: 463
GlyphClass: 1
Flags: W
LayerCount: 2
Fore
SplineSet
189 92 m 1,0,-1
 424 92 l 1,1,-1
 424 0 l 1,2,-1
 75 0 l 1,3,-1
 75 695 l 1,4,-1
 189 695 l 1,5,-1
 189 92 l 1,0,-1
414 596 m 0,7,8
 414 471 414 471 302 471 c 1,9,-1
 302 521 l 1,10,11
 350 521 350 521 350 578 c 2,12,-1
 350 599 l 1,13,-1
 297 599 l 1,14,-1
 297 695 l 1,15,-1
 400 695 l 1,16,6
 414 643 414 643 414 596 c 0,7,8
EndSplineSet
Validated: 1
EndChar

StartChar: lcaron
Encoding: 318 318 251
Width: 463
GlyphClass: 1
Flags: W
LayerCount: 2
Fore
SplineSet
189 92 m 1,0,-1
 424 92 l 1,1,-1
 424 0 l 1,2,-1
 75 0 l 1,3,-1
 75 695 l 1,4,-1
 189 695 l 1,5,-1
 189 92 l 1,0,-1
414 596 m 0,7,8
 414 471 414 471 302 471 c 1,9,-1
 302 521 l 1,10,11
 350 521 350 521 350 578 c 2,12,-1
 350 599 l 1,13,-1
 297 599 l 1,14,-1
 297 695 l 1,15,-1
 400 695 l 1,16,6
 414 643 414 643 414 596 c 0,7,8
EndSplineSet
Validated: 1
EndChar

StartChar: Ldot
Encoding: 319 319 252
Width: 444
GlyphClass: 1
Flags: W
LayerCount: 2
Fore
SplineSet
75 695 m 1,0,-1
 189 695 l 1,1,-1
 189 92 l 1,2,-1
 424 92 l 1,3,-1
 424 0 l 1,4,-1
 75 0 l 1,5,-1
 75 695 l 1,0,-1
309.5 332.5 m 128,-1,7
 292 350 292 350 292 375 c 256,8,9
 292 400 292 400 309.5 417.5 c 128,-1,10
 327 435 327 435 352 435 c 256,11,12
 377 435 377 435 394.5 417.5 c 128,-1,13
 412 400 412 400 412 375 c 256,14,15
 412 350 412 350 394.5 332.5 c 128,-1,16
 377 315 377 315 352 315 c 256,17,6
 327 315 327 315 309.5 332.5 c 128,-1,7
EndSplineSet
Validated: 1
EndChar

StartChar: ldot
Encoding: 320 320 253
Width: 444
GlyphClass: 1
Flags: W
LayerCount: 2
Fore
SplineSet
75 695 m 1,0,-1
 189 695 l 1,1,-1
 189 92 l 1,2,-1
 424 92 l 1,3,-1
 424 0 l 1,4,-1
 75 0 l 1,5,-1
 75 695 l 1,0,-1
309.5 332.5 m 128,-1,7
 292 350 292 350 292 375 c 256,8,9
 292 400 292 400 309.5 417.5 c 128,-1,10
 327 435 327 435 352 435 c 256,11,12
 377 435 377 435 394.5 417.5 c 128,-1,13
 412 400 412 400 412 375 c 256,14,15
 412 350 412 350 394.5 332.5 c 128,-1,16
 377 315 377 315 352 315 c 256,17,6
 327 315 327 315 309.5 332.5 c 128,-1,7
EndSplineSet
Validated: 1
EndChar

StartChar: Lslash
Encoding: 321 321 254
Width: 444
GlyphClass: 1
Flags: W
LayerCount: 2
Fore
SplineSet
435 87 m 1,0,-1
 435 0 l 1,1,-1
 86 0 l 1,2,-1
 86 292 l 1,3,-1
 9 267 l 1,4,-1
 9 353 l 1,5,-1
 86 378 l 1,6,-1
 86 695 l 1,7,-1
 201 695 l 1,8,-1
 201 416 l 1,9,-1
 293 446 l 1,10,-1
 293 359 l 1,11,-1
 201 329 l 1,12,-1
 201 87 l 1,13,-1
 435 87 l 1,0,-1
EndSplineSet
Validated: 1
EndChar

StartChar: lslash
Encoding: 322 322 255
Width: 444
GlyphClass: 1
Flags: W
LayerCount: 2
Fore
SplineSet
435 87 m 1,0,-1
 435 0 l 1,1,-1
 86 0 l 1,2,-1
 86 292 l 1,3,-1
 9 267 l 1,4,-1
 9 353 l 1,5,-1
 86 378 l 1,6,-1
 86 695 l 1,7,-1
 201 695 l 1,8,-1
 201 416 l 1,9,-1
 293 446 l 1,10,-1
 293 359 l 1,11,-1
 201 329 l 1,12,-1
 201 87 l 1,13,-1
 435 87 l 1,0,-1
EndSplineSet
Validated: 1
EndChar

StartChar: uni0145
Encoding: 325 325 258
Width: 721
GlyphClass: 1
Flags: W
LayerCount: 2
Fore
SplineSet
646 0 m 1,0,-1
 532 0 l 1,1,-1
 189 519 l 1,2,-1
 189 0 l 1,3,-1
 75 0 l 1,4,-1
 75 696 l 1,5,-1
 189 696 l 1,6,-1
 532 178 l 1,7,-1
 532 696 l 1,8,-1
 646 696 l 1,9,-1
 646 0 l 1,0,-1
423 -145 m 0,11,12
 423 -270 423 -270 311 -270 c 1,13,-1
 311 -220 l 1,14,15
 359 -220 359 -220 359 -163 c 2,16,-1
 359 -142 l 1,17,-1
 306 -142 l 1,18,-1
 306 -46 l 1,19,-1
 409 -46 l 1,20,10
 423 -98 423 -98 423 -145 c 0,11,12
EndSplineSet
Validated: 1
EndChar

StartChar: uni0146
Encoding: 326 326 259
Width: 721
GlyphClass: 1
Flags: W
LayerCount: 2
Fore
SplineSet
646 0 m 1,0,-1
 532 0 l 1,1,-1
 189 519 l 1,2,-1
 189 0 l 1,3,-1
 75 0 l 1,4,-1
 75 696 l 1,5,-1
 189 696 l 1,6,-1
 532 178 l 1,7,-1
 532 696 l 1,8,-1
 646 696 l 1,9,-1
 646 0 l 1,0,-1
423 -145 m 0,11,12
 423 -270 423 -270 311 -270 c 1,13,-1
 311 -220 l 1,14,15
 359 -220 359 -220 359 -163 c 2,16,-1
 359 -142 l 1,17,-1
 306 -142 l 1,18,-1
 306 -46 l 1,19,-1
 409 -46 l 1,20,10
 423 -98 423 -98 423 -145 c 0,11,12
EndSplineSet
Validated: 1
EndChar

StartChar: OE
Encoding: 338 338 268
Width: 1079
GlyphClass: 1
Flags: W
LayerCount: 2
Fore
SplineSet
744 395 m 1,0,-1
 984 395 l 1,1,-1
 984 307 l 1,2,-1
 744 307 l 1,3,-1
 744 89 l 1,4,-1
 1014 89 l 1,5,-1
 1014 0 l 1,6,-1
 630 0 l 1,7,-1
 630 111 l 1,8,9
 587 52 587 52 524.5 22.5 c 128,-1,10
 462 -7 462 -7 383 -7 c 0,11,12
 290 -7 290 -7 210.5 38.5 c 128,-1,13
 131 84 131 84 84 165.5 c 128,-1,14
 37 247 37 247 37 349 c 256,15,16
 37 451 37 451 84 532 c 128,-1,17
 131 613 131 613 210.5 658.5 c 128,-1,18
 290 704 290 704 382 704 c 0,19,20
 461 704 461 704 524 675 c 128,-1,21
 587 646 587 646 630 589 c 1,22,-1
 630 695 l 1,23,-1
 1014 695 l 1,24,-1
 1014 606 l 1,25,-1
 744 606 l 1,26,-1
 744 395 l 1,0,-1
184.5 216.5 m 128,-1,28
 215 159 215 159 269 127.5 c 128,-1,29
 323 96 323 96 392 96 c 256,30,31
 461 96 461 96 515 127.5 c 128,-1,32
 569 159 569 159 599.5 216.5 c 128,-1,33
 630 274 630 274 630 349 c 256,34,35
 630 424 630 424 599.5 481 c 128,-1,36
 569 538 569 538 515 569 c 128,-1,37
 461 600 461 600 392 600 c 256,38,39
 323 600 323 600 269 569 c 128,-1,40
 215 538 215 538 184.5 481 c 128,-1,41
 154 424 154 424 154 349 c 256,42,27
 154 274 154 274 184.5 216.5 c 128,-1,28
EndSplineSet
Validated: 1
EndChar

StartChar: oe
Encoding: 339 339 269
Width: 1079
GlyphClass: 1
Flags: W
LayerCount: 2
Fore
SplineSet
744 395 m 1,0,-1
 984 395 l 1,1,-1
 984 307 l 1,2,-1
 744 307 l 1,3,-1
 744 89 l 1,4,-1
 1014 89 l 1,5,-1
 1014 0 l 1,6,-1
 630 0 l 1,7,-1
 630 111 l 1,8,9
 587 52 587 52 524.5 22.5 c 128,-1,10
 462 -7 462 -7 383 -7 c 0,11,12
 290 -7 290 -7 210.5 38.5 c 128,-1,13
 131 84 131 84 84 165.5 c 128,-1,14
 37 247 37 247 37 349 c 256,15,16
 37 451 37 451 84 532 c 128,-1,17
 131 613 131 613 210.5 658.5 c 128,-1,18
 290 704 290 704 382 704 c 0,19,20
 461 704 461 704 524 675 c 128,-1,21
 587 646 587 646 630 589 c 1,22,-1
 630 695 l 1,23,-1
 1014 695 l 1,24,-1
 1014 606 l 1,25,-1
 744 606 l 1,26,-1
 744 395 l 1,0,-1
184.5 216.5 m 128,-1,28
 215 159 215 159 269 127.5 c 128,-1,29
 323 96 323 96 392 96 c 256,30,31
 461 96 461 96 515 127.5 c 128,-1,32
 569 159 569 159 599.5 216.5 c 128,-1,33
 630 274 630 274 630 349 c 256,34,35
 630 424 630 424 599.5 481 c 128,-1,36
 569 538 569 538 515 569 c 128,-1,37
 461 600 461 600 392 600 c 256,38,39
 323 600 323 600 269 569 c 128,-1,40
 215 538 215 538 184.5 481 c 128,-1,41
 154 424 154 424 154 349 c 256,42,27
 154 274 154 274 184.5 216.5 c 128,-1,28
EndSplineSet
Validated: 1
EndChar

StartChar: uni0156
Encoding: 342 342 272
Width: 632
GlyphClass: 1
Flags: W
LayerCount: 2
Fore
SplineSet
572 0 m 1,0,-1
 436 0 l 1,1,-1
 276 278 l 1,2,-1
 189 278 l 1,3,-1
 189 0 l 1,4,-1
 75 0 l 1,5,-1
 75 695 l 1,6,-1
 315 695 l 2,7,8
 395 695 395 695 450.5 667 c 128,-1,9
 506 639 506 639 533.5 592 c 128,-1,10
 561 545 561 545 561 487 c 0,11,12
 561 419 561 419 521.5 363.5 c 128,-1,13
 482 308 482 308 400 288 c 1,14,-1
 572 0 l 1,0,-1
189 369 m 1,15,-1
 315 369 l 2,16,17
 379 369 379 369 411.5 401 c 128,-1,18
 444 433 444 433 444 487 c 256,19,20
 444 541 444 541 412 571.5 c 128,-1,21
 380 602 380 602 315 602 c 2,22,-1
 189 602 l 1,23,-1
 189 369 l 1,15,-1
365 -46 m 1,24,25
 378 -99 378 -99 378 -145 c 0,26,27
 378 -270 378 -270 266 -270 c 1,28,-1
 266 -220 l 1,29,30
 314 -220 314 -220 314 -163 c 2,31,-1
 314 -142 l 1,32,-1
 262 -142 l 1,33,-1
 262 -46 l 1,34,-1
 365 -46 l 1,24,25
EndSplineSet
Validated: 1
EndChar

StartChar: uni0157
Encoding: 343 343 273
Width: 632
GlyphClass: 1
Flags: W
LayerCount: 2
Fore
SplineSet
572 0 m 1,0,-1
 436 0 l 1,1,-1
 276 278 l 1,2,-1
 189 278 l 1,3,-1
 189 0 l 1,4,-1
 75 0 l 1,5,-1
 75 695 l 1,6,-1
 315 695 l 2,7,8
 395 695 395 695 450.5 667 c 128,-1,9
 506 639 506 639 533.5 592 c 128,-1,10
 561 545 561 545 561 487 c 0,11,12
 561 419 561 419 521.5 363.5 c 128,-1,13
 482 308 482 308 400 288 c 1,14,-1
 572 0 l 1,0,-1
189 369 m 1,15,-1
 315 369 l 2,16,17
 379 369 379 369 411.5 401 c 128,-1,18
 444 433 444 433 444 487 c 256,19,20
 444 541 444 541 412 571.5 c 128,-1,21
 380 602 380 602 315 602 c 2,22,-1
 189 602 l 1,23,-1
 189 369 l 1,15,-1
365 -46 m 1,24,25
 378 -99 378 -99 378 -145 c 0,26,27
 378 -270 378 -270 266 -270 c 1,28,-1
 266 -220 l 1,29,30
 314 -220 314 -220 314 -163 c 2,31,-1
 314 -142 l 1,32,-1
 262 -142 l 1,33,-1
 262 -46 l 1,34,-1
 365 -46 l 1,24,25
EndSplineSet
Validated: 1
EndChar

StartChar: uni015E
Encoding: 350 350 278
Width: 604
GlyphClass: 1
Flags: W
LayerCount: 2
Fore
SplineSet
520.5 105.5 m 128,-1,1
 497 62 497 62 452 32.5 c 128,-1,2
 407 3 407 3 345 -5 c 1,3,-1
 345 -55 l 1,4,5
 403 -55 403 -55 439 -82.5 c 128,-1,6
 475 -110 475 -110 475 -160 c 256,7,8
 475 -210 475 -210 439 -239.5 c 128,-1,9
 403 -269 403 -269 348 -269 c 2,10,-1
 216 -269 l 1,11,-1
 216 -197 l 1,12,-1
 325 -197 l 2,13,14
 353 -197 353 -197 367 -189 c 128,-1,15
 381 -181 381 -181 381 -160 c 256,16,17
 381 -139 381 -139 367 -131 c 128,-1,18
 353 -123 353 -123 325 -123 c 2,19,-1
 270 -123 l 1,20,-1
 270 -5 l 1,21,22
 176 3 176 3 117 56 c 128,-1,23
 58 109 58 109 58 192 c 1,24,-1
 180 192 l 1,25,26
 184 147 184 147 215.5 118 c 128,-1,27
 247 89 247 89 304 89 c 0,28,29
 363 89 363 89 396 117.5 c 128,-1,30
 429 146 429 146 429 191 c 0,31,32
 429 226 429 226 408.5 248 c 128,-1,33
 388 270 388 270 357.5 282 c 128,-1,34
 327 294 327 294 273 308 c 0,35,36
 205 326 205 326 162.5 344.5 c 128,-1,37
 120 363 120 363 90 402 c 128,-1,38
 60 441 60 441 60 506 c 0,39,40
 60 566 60 566 90 611 c 128,-1,41
 120 656 120 656 174 680 c 128,-1,42
 228 704 228 704 299 704 c 0,43,44
 400 704 400 704 464.5 653.5 c 128,-1,45
 529 603 529 603 536 515 c 1,46,-1
 410 515 l 1,47,48
 407 553 407 553 374 580 c 128,-1,49
 341 607 341 607 287 607 c 0,50,51
 238 607 238 607 207 582 c 128,-1,52
 176 557 176 557 176 510 c 0,53,54
 176 478 176 478 195.5 457.5 c 128,-1,55
 215 437 215 437 245 425 c 128,-1,56
 275 413 275 413 327 399 c 0,57,58
 396 380 396 380 439.5 361 c 128,-1,59
 483 342 483 342 513.5 302.5 c 128,-1,60
 544 263 544 263 544 197 c 0,61,0
 544 149 544 149 520.5 105.5 c 128,-1,1
EndSplineSet
Validated: 1
EndChar

StartChar: uni015F
Encoding: 351 351 279
Width: 604
GlyphClass: 1
Flags: W
LayerCount: 2
Fore
SplineSet
520.5 105.5 m 128,-1,1
 497 62 497 62 452 32.5 c 128,-1,2
 407 3 407 3 345 -5 c 1,3,-1
 345 -55 l 1,4,5
 403 -55 403 -55 439 -82.5 c 128,-1,6
 475 -110 475 -110 475 -160 c 256,7,8
 475 -210 475 -210 439 -239.5 c 128,-1,9
 403 -269 403 -269 348 -269 c 2,10,-1
 216 -269 l 1,11,-1
 216 -197 l 1,12,-1
 325 -197 l 2,13,14
 353 -197 353 -197 367 -189 c 128,-1,15
 381 -181 381 -181 381 -160 c 256,16,17
 381 -139 381 -139 367 -131 c 128,-1,18
 353 -123 353 -123 325 -123 c 2,19,-1
 270 -123 l 1,20,-1
 270 -5 l 1,21,22
 176 3 176 3 117 56 c 128,-1,23
 58 109 58 109 58 192 c 1,24,-1
 180 192 l 1,25,26
 184 147 184 147 215.5 118 c 128,-1,27
 247 89 247 89 304 89 c 0,28,29
 363 89 363 89 396 117.5 c 128,-1,30
 429 146 429 146 429 191 c 0,31,32
 429 226 429 226 408.5 248 c 128,-1,33
 388 270 388 270 357.5 282 c 128,-1,34
 327 294 327 294 273 308 c 0,35,36
 205 326 205 326 162.5 344.5 c 128,-1,37
 120 363 120 363 90 402 c 128,-1,38
 60 441 60 441 60 506 c 0,39,40
 60 566 60 566 90 611 c 128,-1,41
 120 656 120 656 174 680 c 128,-1,42
 228 704 228 704 299 704 c 0,43,44
 400 704 400 704 464.5 653.5 c 128,-1,45
 529 603 529 603 536 515 c 1,46,-1
 410 515 l 1,47,48
 407 553 407 553 374 580 c 128,-1,49
 341 607 341 607 287 607 c 0,50,51
 238 607 238 607 207 582 c 128,-1,52
 176 557 176 557 176 510 c 0,53,54
 176 478 176 478 195.5 457.5 c 128,-1,55
 215 437 215 437 245 425 c 128,-1,56
 275 413 275 413 327 399 c 0,57,58
 396 380 396 380 439.5 361 c 128,-1,59
 483 342 483 342 513.5 302.5 c 128,-1,60
 544 263 544 263 544 197 c 0,61,0
 544 149 544 149 520.5 105.5 c 128,-1,1
EndSplineSet
Validated: 1
EndChar

StartChar: uni0162
Encoding: 354 354 282
Width: 564
GlyphClass: 1
Flags: W
LayerCount: 2
Fore
SplineSet
321 0 m 1,0,-1
 321 -48 l 1,1,2
 379 -48 379 -48 415 -75.5 c 128,-1,3
 451 -103 451 -103 451 -153 c 256,4,5
 451 -203 451 -203 415 -232.5 c 128,-1,6
 379 -262 379 -262 324 -262 c 2,7,-1
 192 -262 l 1,8,-1
 192 -190 l 1,9,-1
 301 -190 l 2,10,11
 329 -190 329 -190 343 -182 c 128,-1,12
 357 -174 357 -174 357 -153 c 256,13,14
 357 -132 357 -132 343 -124 c 128,-1,15
 329 -116 329 -116 301 -116 c 2,16,-1
 246 -116 l 1,17,-1
 246 0 l 1,18,-1
 225 0 l 1,19,-1
 225 602 l 1,20,-1
 39 602 l 1,21,-1
 39 695 l 1,22,-1
 524 695 l 1,23,-1
 524 602 l 1,24,-1
 339 602 l 1,25,-1
 339 0 l 1,26,-1
 321 0 l 1,0,-1
EndSplineSet
Validated: 1
EndChar

StartChar: uni0163
Encoding: 355 355 283
Width: 564
GlyphClass: 1
Flags: W
LayerCount: 2
Fore
SplineSet
321 0 m 1,0,-1
 321 -48 l 1,1,2
 379 -48 379 -48 415 -75.5 c 128,-1,3
 451 -103 451 -103 451 -153 c 256,4,5
 451 -203 451 -203 415 -232.5 c 128,-1,6
 379 -262 379 -262 324 -262 c 2,7,-1
 192 -262 l 1,8,-1
 192 -190 l 1,9,-1
 301 -190 l 2,10,11
 329 -190 329 -190 343 -182 c 128,-1,12
 357 -174 357 -174 357 -153 c 256,13,14
 357 -132 357 -132 343 -124 c 128,-1,15
 329 -116 329 -116 301 -116 c 2,16,-1
 246 -116 l 1,17,-1
 246 0 l 1,18,-1
 225 0 l 1,19,-1
 225 602 l 1,20,-1
 39 602 l 1,21,-1
 39 695 l 1,22,-1
 524 695 l 1,23,-1
 524 602 l 1,24,-1
 339 602 l 1,25,-1
 339 0 l 1,26,-1
 321 0 l 1,0,-1
EndSplineSet
Validated: 1
EndChar

StartChar: tcaron
Encoding: 357 357 285
Width: 377
GlyphClass: 1
Flags: W
LayerCount: 2
Fore
SplineSet
395 733.5 m 128,-1,1
 398 715 398 715 398 694 c 0,2,3
 398 590 398 590 285 590 c 1,4,-1
 285 640 l 1,5,6
 310 640 310 640 322 647.5 c 128,-1,7
 334 655 334 655 334 672 c 2,8,-1
 334 687 l 1,9,-1
 281 687 l 1,10,-1
 281 784 l 1,11,-1
 384 784 l 1,12,0
 392 752 392 752 395 733.5 c 128,-1,1
208 551 m 1,13,-1
 342 551 l 1,14,-1
 342 458 l 1,15,-1
 208 458 l 1,16,-1
 208 153 l 2,17,18
 208 122 208 122 222.5 108.5 c 128,-1,19
 237 95 237 95 272 95 c 2,20,-1
 342 95 l 1,21,-1
 342 0 l 1,22,-1
 252 0 l 2,23,24
 175 0 175 0 134 36 c 128,-1,25
 93 72 93 72 93 153 c 2,26,-1
 93 458 l 1,27,-1
 28 458 l 1,28,-1
 28 551 l 1,29,-1
 93 551 l 1,30,-1
 93 688 l 1,31,-1
 208 688 l 1,32,-1
 208 551 l 1,13,-1
EndSplineSet
Validated: 1
EndChar

StartChar: Uogonek
Encoding: 370 370 296
Width: 690
GlyphClass: 1
Flags: W
LayerCount: 2
Fore
SplineSet
617 695 m 1,0,-1
 617 254 l 2,1,2
 617 149 617 149 562 84.5 c 128,-1,3
 507 20 507 20 418 1 c 1,4,-1
 418 0 l 1,5,-1
 369 -25 l 2,6,7
 338 -41 338 -41 325 -56.5 c 128,-1,8
 312 -72 312 -72 312 -91 c 0,9,10
 312 -112 312 -112 327 -124.5 c 128,-1,11
 342 -137 342 -137 367 -137 c 0,12,13
 397 -137 397 -137 433 -123 c 1,14,-1
 433 -196 l 1,15,16
 395 -211 395 -211 352 -211 c 0,17,18
 298 -211 298 -211 258.5 -184.5 c 128,-1,19
 219 -158 219 -158 219 -103 c 0,20,21
 219 -45 219 -45 277 -1 c 1,22,23
 186 17 186 17 130 82 c 128,-1,24
 74 147 74 147 74 254 c 2,25,-1
 74 695 l 1,26,-1
 188 695 l 1,27,-1
 188 252 l 2,28,29
 188 173 188 173 229.5 133 c 128,-1,30
 271 93 271 93 345 93 c 0,31,32
 420 93 420 93 461.5 133 c 128,-1,33
 503 173 503 173 503 252 c 2,34,-1
 503 695 l 1,35,-1
 617 695 l 1,0,-1
EndSplineSet
Validated: 1
EndChar

StartChar: uogonek
Encoding: 371 371 297
Width: 690
GlyphClass: 1
Flags: W
LayerCount: 2
Fore
SplineSet
617 695 m 1,0,-1
 617 254 l 2,1,2
 617 149 617 149 562 84.5 c 128,-1,3
 507 20 507 20 418 1 c 1,4,-1
 418 0 l 1,5,-1
 369 -25 l 2,6,7
 338 -41 338 -41 325 -56.5 c 128,-1,8
 312 -72 312 -72 312 -91 c 0,9,10
 312 -112 312 -112 327 -124.5 c 128,-1,11
 342 -137 342 -137 367 -137 c 0,12,13
 397 -137 397 -137 433 -123 c 1,14,-1
 433 -196 l 1,15,16
 395 -211 395 -211 352 -211 c 0,17,18
 298 -211 298 -211 258.5 -184.5 c 128,-1,19
 219 -158 219 -158 219 -103 c 0,20,21
 219 -45 219 -45 277 -1 c 1,22,23
 186 17 186 17 130 82 c 128,-1,24
 74 147 74 147 74 254 c 2,25,-1
 74 695 l 1,26,-1
 188 695 l 1,27,-1
 188 252 l 2,28,29
 188 173 188 173 229.5 133 c 128,-1,30
 271 93 271 93 345 93 c 0,31,32
 420 93 420 93 461.5 133 c 128,-1,33
 503 173 503 173 503 252 c 2,34,-1
 503 695 l 1,35,-1
 617 695 l 1,0,-1
EndSplineSet
Validated: 1
EndChar

StartChar: uni018F
Encoding: 399 399 309
Width: 784
GlyphClass: 1
Flags: W
LayerCount: 2
Fore
SplineSet
566 659 m 128,-1,1
 642 614 642 614 684.5 533.5 c 128,-1,2
 727 453 727 453 727 349 c 256,3,4
 727 245 727 245 685.5 164 c 128,-1,5
 644 83 644 83 568 38 c 128,-1,6
 492 -7 492 -7 393 -7 c 0,7,8
 295 -7 295 -7 220 32 c 128,-1,9
 145 71 145 71 103.5 145.5 c 128,-1,10
 62 220 62 220 62 323 c 0,11,12
 62 359 62 359 66 391 c 1,13,-1
 602 391 l 1,14,15
 596 485 596 485 538.5 542.5 c 128,-1,16
 481 600 481 600 392 600 c 0,17,18
 324 600 324 600 275 570 c 128,-1,19
 226 540 226 540 202 485 c 1,20,-1
 70 485 l 1,21,22
 107 587 107 587 191 645.5 c 128,-1,23
 275 704 275 704 392 704 c 0,24,0
 490 704 490 704 566 659 c 128,-1,1
537 147 m 128,-1,26
 595 198 595 198 602 284 c 1,27,-1
 181 284 l 1,28,29
 184 199 184 199 242.5 147.5 c 128,-1,30
 301 96 301 96 393 96 c 0,31,25
 479 96 479 96 537 147 c 128,-1,26
EndSplineSet
Validated: 1
EndChar

StartChar: florin
Encoding: 402 402 310
Width: 332
GlyphClass: 1
Flags: W
LayerCount: 2
Fore
SplineSet
234 657.5 m 128,-1,1
 211 638 211 638 206 590 c 2,2,-1
 202 551 l 1,3,-1
 303 551 l 1,4,-1
 294 458 l 1,5,-1
 192 458 l 1,6,-1
 136 -64 l 2,7,8
 128 -146 128 -146 85.5 -181.5 c 128,-1,9
 43 -217 43 -217 -34 -217 c 2,10,-1
 -56 -217 l 1,11,-1
 -46 -123 l 1,12,-1
 -30 -123 l 2,13,14
 -6 -123 -6 -123 6.5 -109 c 128,-1,15
 19 -95 19 -95 22 -64 c 2,16,-1
 77 458 l 1,17,-1
 12 458 l 1,18,-1
 21 551 l 1,19,-1
 87 551 l 1,20,-1
 91 590 l 2,21,22
 101 685 101 685 156 728.5 c 128,-1,23
 211 772 211 772 319 772 c 1,24,-1
 309 677 l 1,25,0
 257 677 257 677 234 657.5 c 128,-1,1
EndSplineSet
Validated: 1
EndChar

StartChar: uni0218
Encoding: 536 536 313
Width: 604
GlyphClass: 1
Flags: W
LayerCount: 2
Fore
SplineSet
178 17.5 m 128,-1,1
 122 42 122 42 90 87 c 128,-1,2
 58 132 58 132 58 192 c 1,3,-1
 180 192 l 1,4,5
 184 147 184 147 215.5 118 c 128,-1,6
 247 89 247 89 304 89 c 0,7,8
 363 89 363 89 396 117.5 c 128,-1,9
 429 146 429 146 429 191 c 0,10,11
 429 226 429 226 408.5 248 c 128,-1,12
 388 270 388 270 357.5 282 c 128,-1,13
 327 294 327 294 273 308 c 0,14,15
 205 326 205 326 162.5 344.5 c 128,-1,16
 120 363 120 363 90 402 c 128,-1,17
 60 441 60 441 60 506 c 0,18,19
 60 566 60 566 90 611 c 128,-1,20
 120 656 120 656 174 680 c 128,-1,21
 228 704 228 704 299 704 c 0,22,23
 400 704 400 704 464.5 653.5 c 128,-1,24
 529 603 529 603 536 515 c 1,25,-1
 410 515 l 1,26,27
 407 553 407 553 374 580 c 128,-1,28
 341 607 341 607 287 607 c 0,29,30
 238 607 238 607 207 582 c 128,-1,31
 176 557 176 557 176 510 c 0,32,33
 176 478 176 478 195.5 457.5 c 128,-1,34
 215 437 215 437 245 425 c 128,-1,35
 275 413 275 413 327 399 c 0,36,37
 396 380 396 380 439.5 361 c 128,-1,38
 483 342 483 342 513.5 302.5 c 128,-1,39
 544 263 544 263 544 197 c 0,40,41
 544 144 544 144 515.5 97 c 128,-1,42
 487 50 487 50 432.5 21.5 c 128,-1,43
 378 -7 378 -7 304 -7 c 0,44,0
 234 -7 234 -7 178 17.5 c 128,-1,1
365 -145 m 0,46,47
 365 -270 365 -270 252 -270 c 1,48,-1
 252 -220 l 1,49,50
 277 -220 277 -220 289 -206 c 128,-1,51
 301 -192 301 -192 301 -163 c 2,52,-1
 301 -142 l 1,53,-1
 248 -142 l 1,54,-1
 248 -46 l 1,55,-1
 351 -46 l 1,56,45
 365 -98 365 -98 365 -145 c 0,46,47
EndSplineSet
Validated: 1
EndChar

StartChar: uni0219
Encoding: 537 537 314
Width: 604
GlyphClass: 1
Flags: W
LayerCount: 2
Fore
SplineSet
178 17.5 m 128,-1,1
 122 42 122 42 90 87 c 128,-1,2
 58 132 58 132 58 192 c 1,3,-1
 180 192 l 1,4,5
 184 147 184 147 215.5 118 c 128,-1,6
 247 89 247 89 304 89 c 0,7,8
 363 89 363 89 396 117.5 c 128,-1,9
 429 146 429 146 429 191 c 0,10,11
 429 226 429 226 408.5 248 c 128,-1,12
 388 270 388 270 357.5 282 c 128,-1,13
 327 294 327 294 273 308 c 0,14,15
 205 326 205 326 162.5 344.5 c 128,-1,16
 120 363 120 363 90 402 c 128,-1,17
 60 441 60 441 60 506 c 0,18,19
 60 566 60 566 90 611 c 128,-1,20
 120 656 120 656 174 680 c 128,-1,21
 228 704 228 704 299 704 c 0,22,23
 400 704 400 704 464.5 653.5 c 128,-1,24
 529 603 529 603 536 515 c 1,25,-1
 410 515 l 1,26,27
 407 553 407 553 374 580 c 128,-1,28
 341 607 341 607 287 607 c 0,29,30
 238 607 238 607 207 582 c 128,-1,31
 176 557 176 557 176 510 c 0,32,33
 176 478 176 478 195.5 457.5 c 128,-1,34
 215 437 215 437 245 425 c 128,-1,35
 275 413 275 413 327 399 c 0,36,37
 396 380 396 380 439.5 361 c 128,-1,38
 483 342 483 342 513.5 302.5 c 128,-1,39
 544 263 544 263 544 197 c 0,40,41
 544 144 544 144 515.5 97 c 128,-1,42
 487 50 487 50 432.5 21.5 c 128,-1,43
 378 -7 378 -7 304 -7 c 0,44,0
 234 -7 234 -7 178 17.5 c 128,-1,1
365 -145 m 0,46,47
 365 -270 365 -270 252 -270 c 1,48,-1
 252 -220 l 1,49,50
 277 -220 277 -220 289 -206 c 128,-1,51
 301 -192 301 -192 301 -163 c 2,52,-1
 301 -142 l 1,53,-1
 248 -142 l 1,54,-1
 248 -46 l 1,55,-1
 351 -46 l 1,56,45
 365 -98 365 -98 365 -145 c 0,46,47
EndSplineSet
Validated: 1
EndChar

StartChar: uni021A
Encoding: 538 538 315
Width: 564
GlyphClass: 1
Flags: W
LayerCount: 2
Fore
SplineSet
524 695 m 1,0,-1
 524 602 l 1,1,-1
 339 602 l 1,2,-1
 339 0 l 1,3,-1
 225 0 l 1,4,-1
 225 602 l 1,5,-1
 39 602 l 1,6,-1
 39 695 l 1,7,-1
 524 695 l 1,0,-1
344 -145 m 0,9,10
 344 -270 344 -270 232 -270 c 1,11,-1
 232 -220 l 1,12,13
 281 -220 281 -220 281 -163 c 2,14,-1
 281 -142 l 1,15,-1
 228 -142 l 1,16,-1
 228 -46 l 1,17,-1
 331 -46 l 1,18,8
 344 -99 344 -99 344 -145 c 0,9,10
EndSplineSet
Validated: 1
EndChar

StartChar: uni021B
Encoding: 539 539 316
Width: 564
GlyphClass: 1
Flags: W
LayerCount: 2
Fore
SplineSet
524 695 m 1,0,-1
 524 602 l 1,1,-1
 339 602 l 1,2,-1
 339 0 l 1,3,-1
 225 0 l 1,4,-1
 225 602 l 1,5,-1
 39 602 l 1,6,-1
 39 695 l 1,7,-1
 524 695 l 1,0,-1
344 -145 m 0,9,10
 344 -270 344 -270 232 -270 c 1,11,-1
 232 -220 l 1,12,13
 281 -220 281 -220 281 -163 c 2,14,-1
 281 -142 l 1,15,-1
 228 -142 l 1,16,-1
 228 -46 l 1,17,-1
 331 -46 l 1,18,8
 344 -99 344 -99 344 -145 c 0,9,10
EndSplineSet
Validated: 1
EndChar

StartChar: uni0259
Encoding: 601 601 317
Width: 784
GlyphClass: 1
Flags: W
LayerCount: 2
Fore
SplineSet
566 659 m 128,-1,1
 642 614 642 614 684.5 533.5 c 128,-1,2
 727 453 727 453 727 349 c 256,3,4
 727 245 727 245 685.5 164 c 128,-1,5
 644 83 644 83 568 38 c 128,-1,6
 492 -7 492 -7 393 -7 c 0,7,8
 295 -7 295 -7 220 32 c 128,-1,9
 145 71 145 71 103.5 145.5 c 128,-1,10
 62 220 62 220 62 323 c 0,11,12
 62 359 62 359 66 391 c 1,13,-1
 602 391 l 1,14,15
 596 485 596 485 538.5 542.5 c 128,-1,16
 481 600 481 600 392 600 c 0,17,18
 324 600 324 600 275 570 c 128,-1,19
 226 540 226 540 202 485 c 1,20,-1
 70 485 l 1,21,22
 107 587 107 587 191 645.5 c 128,-1,23
 275 704 275 704 392 704 c 0,24,0
 490 704 490 704 566 659 c 128,-1,1
537 147 m 128,-1,26
 595 198 595 198 602 284 c 1,27,-1
 181 284 l 1,28,29
 184 199 184 199 242.5 147.5 c 128,-1,30
 301 96 301 96 393 96 c 0,31,25
 479 96 479 96 537 147 c 128,-1,26
EndSplineSet
Validated: 1
EndChar

StartChar: circumflex
Encoding: 710 710 319
Width: 306
GlyphClass: 1
Flags: W
LayerCount: 2
Fore
SplineSet
153 676 m 1,0,-1
 10 590 l 1,1,-1
 10 679 l 1,2,-1
 153 762 l 1,3,-1
 296 679 l 1,4,-1
 296 590 l 1,5,-1
 153 676 l 1,0,-1
EndSplineSet
Validated: 1
EndChar

StartChar: caron
Encoding: 711 711 320
Width: 306
GlyphClass: 1
Flags: W
LayerCount: 2
Fore
SplineSet
296 673 m 1,0,-1
 153 590 l 1,1,-1
 10 673 l 1,2,-1
 10 762 l 1,3,-1
 153 676 l 1,4,-1
 296 762 l 1,5,-1
 296 673 l 1,0,-1
EndSplineSet
Validated: 1
EndChar

StartChar: breve
Encoding: 728 728 322
Width: 321
GlyphClass: 1
Flags: W
LayerCount: 2
Fore
SplineSet
270.5 635 m 128,-1,1
 230 597 230 597 160 597 c 256,2,3
 90 597 90 597 50 635.5 c 128,-1,4
 10 674 10 674 10 737 c 2,5,-1
 10 758 l 1,6,-1
 75 758 l 1,7,8
 75 722 75 722 94 704 c 128,-1,9
 113 686 113 686 160 686 c 256,10,11
 207 686 207 686 226 704 c 128,-1,12
 245 722 245 722 245 758 c 1,13,-1
 311 758 l 1,14,-1
 311 736 l 2,15,0
 311 673 311 673 270.5 635 c 128,-1,1
EndSplineSet
Validated: 1
EndChar

StartChar: dotaccent
Encoding: 729 729 323
Width: 140
GlyphClass: 1
Flags: W
LayerCount: 2
Fore
SplineSet
27.5 637.5 m 128,-1,1
 10 655 10 655 10 680 c 256,2,3
 10 705 10 705 27.5 722.5 c 128,-1,4
 45 740 45 740 70 740 c 256,5,6
 95 740 95 740 112.5 722.5 c 128,-1,7
 130 705 130 705 130 680 c 256,8,9
 130 655 130 655 112.5 637.5 c 128,-1,10
 95 620 95 620 70 620 c 256,11,0
 45 620 45 620 27.5 637.5 c 128,-1,1
EndSplineSet
Validated: 1
EndChar

StartChar: ring
Encoding: 730 730 324
Width: 238
GlyphClass: 1
Flags: W
LayerCount: 2
Fore
SplineSet
199.5 635 m 128,-1,1
 167 605 167 605 119 605 c 0,2,3
 72 605 72 605 39.5 635 c 128,-1,4
 7 665 7 665 7 714 c 0,5,6
 7 764 7 764 39.5 794 c 128,-1,7
 72 824 72 824 119 824 c 0,8,9
 167 824 167 824 199.5 794 c 128,-1,10
 232 764 232 764 232 714 c 0,11,0
 232 665 232 665 199.5 635 c 128,-1,1
154 752 m 128,-1,13
 140 766 140 766 119 766 c 0,14,15
 99 766 99 766 85 752 c 128,-1,16
 71 738 71 738 71 715 c 0,17,18
 71 693 71 693 85 678.5 c 128,-1,19
 99 664 99 664 119 664 c 0,20,21
 140 664 140 664 154 678.5 c 128,-1,22
 168 693 168 693 168 715 c 0,23,12
 168 738 168 738 154 752 c 128,-1,13
EndSplineSet
Validated: 1
EndChar

StartChar: ogonek
Encoding: 731 731 325
Width: 234
GlyphClass: 1
Flags: W
LayerCount: 2
Fore
SplineSet
209 0 m 1,0,-1
 160 -25 l 2,1,2
 129 -41 129 -41 116 -56.5 c 128,-1,3
 103 -72 103 -72 103 -91 c 0,4,5
 103 -112 103 -112 118 -124.5 c 128,-1,6
 133 -137 133 -137 158 -137 c 0,7,8
 188 -137 188 -137 224 -123 c 1,9,-1
 224 -196 l 1,10,11
 186 -211 186 -211 143 -211 c 0,12,13
 89 -211 89 -211 49.5 -184.5 c 128,-1,14
 10 -158 10 -158 10 -103 c 0,15,16
 10 -63 10 -63 40 -27.5 c 128,-1,17
 70 8 70 8 137 39 c 2,18,-1
 179 58 l 1,19,-1
 209 0 l 1,0,-1
EndSplineSet
Validated: 1
EndChar

StartChar: tilde
Encoding: 732 732 326
Width: 356
GlyphClass: 1
Flags: W
LayerCount: 2
Fore
SplineSet
48 695.5 m 128,-1,1
 78 725 78 725 123 725 c 0,2,3
 142 725 142 725 156 719 c 128,-1,4
 170 713 170 713 190 701 c 0,5,6
 205 691 205 691 215.5 686 c 128,-1,7
 226 681 226 681 239 681 c 0,8,9
 256 681 256 681 267.5 691.5 c 128,-1,10
 279 702 279 702 282 723 c 1,11,-1
 346 723 l 1,12,13
 338 665 338 665 308 635.5 c 128,-1,14
 278 606 278 606 233 606 c 0,15,16
 214 606 214 606 199 612.5 c 128,-1,17
 184 619 184 619 166 631 c 0,18,19
 148 642 148 642 138.5 646.5 c 128,-1,20
 129 651 129 651 117 651 c 0,21,22
 100 651 100 651 88.5 640 c 128,-1,23
 77 629 77 629 74 608 c 1,24,-1
 10 608 l 1,25,0
 18 666 18 666 48 695.5 c 128,-1,1
EndSplineSet
Validated: 1
EndChar

StartChar: hungarumlaut
Encoding: 733 733 327
Width: 365
GlyphClass: 1
Flags: W
LayerCount: 2
Fore
SplineSet
84 601 m 1,0,-1
 10 601 l 1,1,-1
 79 771 l 1,2,-1
 178 771 l 1,3,-1
 84 601 l 1,0,-1
244 601 m 1,4,-1
 170 601 l 1,5,-1
 245 771 l 1,6,-1
 344 771 l 1,7,-1
 244 601 l 1,4,-1
EndSplineSet
Validated: 1
EndChar

StartChar: pi
Encoding: 960 960 328
Width: 706
GlyphClass: 1
Flags: W
LayerCount: 2
Fore
SplineSet
670 551 m 1,0,-1
 670 462 l 1,1,-1
 593 462 l 1,2,-1
 593 0 l 1,3,-1
 480 0 l 1,4,-1
 480 462 l 1,5,-1
 221 462 l 1,6,-1
 221 0 l 1,7,-1
 107 0 l 1,8,-1
 107 462 l 1,9,-1
 31 462 l 1,10,-1
 31 551 l 1,11,-1
 670 551 l 1,0,-1
EndSplineSet
Validated: 1
EndChar

StartChar: endash
Encoding: 8211 8211 341
Width: 708
GlyphClass: 1
Flags: W
LayerCount: 2
Fore
SplineSet
622 410 m 1,0,-1
 622 314 l 1,1,-1
 87 314 l 1,2,-1
 87 410 l 1,3,-1
 622 410 l 1,0,-1
EndSplineSet
Validated: 1
EndChar

StartChar: emdash
Encoding: 8212 8212 342
Width: 924
GlyphClass: 1
Flags: W
LayerCount: 2
Fore
SplineSet
837 410 m 1,0,-1
 837 314 l 1,1,-1
 87 314 l 1,2,-1
 87 410 l 1,3,-1
 837 410 l 1,0,-1
EndSplineSet
Validated: 1
EndChar

StartChar: quoteleft
Encoding: 8216 8216 343
Width: 242
GlyphClass: 1
Flags: W
LayerCount: 2
Fore
SplineSet
149 457 m 1,0,-1
 25 457 l 1,1,-1
 130 695 l 1,2,-1
 210 695 l 1,3,-1
 149 457 l 1,0,-1
EndSplineSet
Validated: 1
Substitution2: "'ss01' Style Set 1 lookup 20 subtable" quoteleft.ss01
EndChar

StartChar: quoteright
Encoding: 8217 8217 344
Width: 242
GlyphClass: 1
Flags: W
LayerCount: 2
Fore
SplineSet
93 695 m 1,0,-1
 217 695 l 1,1,-1
 112 457 l 1,2,-1
 32 457 l 1,3,-1
 93 695 l 1,0,-1
EndSplineSet
Validated: 1
Substitution2: "'ss01' Style Set 1 lookup 20 subtable" quoteright.ss01
EndChar

StartChar: quotesinglbase
Encoding: 8218 8218 345
Width: 215
GlyphClass: 1
Flags: W
LayerCount: 2
Fore
SplineSet
66 135 m 1,0,-1
 190 135 l 1,1,-1
 85 -103 l 1,2,-1
 5 -103 l 1,3,-1
 66 135 l 1,0,-1
EndSplineSet
Validated: 1
EndChar

StartChar: quotedblleft
Encoding: 8220 8220 346
Width: 422
GlyphClass: 1
Flags: W
LayerCount: 2
Fore
SplineSet
149 457 m 1,0,-1
 25 457 l 1,1,-1
 130 695 l 1,2,-1
 210 695 l 1,3,-1
 149 457 l 1,0,-1
329 457 m 1,4,-1
 205 457 l 1,5,-1
 310 695 l 1,6,-1
 390 695 l 1,7,-1
 329 457 l 1,4,-1
EndSplineSet
Validated: 1
Substitution2: "'ss01' Style Set 1 lookup 20 subtable" quotedblleft.ss01
EndChar

StartChar: quotedblright
Encoding: 8221 8221 347
Width: 422
GlyphClass: 1
Flags: W
LayerCount: 2
Fore
SplineSet
93 695 m 1,0,-1
 217 695 l 1,1,-1
 112 457 l 1,2,-1
 32 457 l 1,3,-1
 93 695 l 1,0,-1
273 695 m 1,4,-1
 397 695 l 1,5,-1
 292 457 l 1,6,-1
 212 457 l 1,7,-1
 273 695 l 1,4,-1
EndSplineSet
Validated: 1
Substitution2: "'ss01' Style Set 1 lookup 20 subtable" quotedblright.ss01
EndChar

StartChar: quotedblbase
Encoding: 8222 8222 348
Width: 397
GlyphClass: 1
Flags: W
LayerCount: 2
Fore
SplineSet
66 135 m 1,0,-1
 190 135 l 1,1,-1
 85 -103 l 1,2,-1
 5 -103 l 1,3,-1
 66 135 l 1,0,-1
248 135 m 1,4,-1
 372 135 l 1,5,-1
 267 -103 l 1,6,-1
 187 -103 l 1,7,-1
 248 135 l 1,4,-1
EndSplineSet
Validated: 1
EndChar

StartChar: dagger
Encoding: 8224 8224 349
Width: 584
GlyphClass: 1
Flags: W
LayerCount: 2
Fore
SplineSet
535 462 m 1,0,-1
 337 472 l 1,1,-1
 349 -262 l 1,2,-1
 235 -262 l 1,3,-1
 247 472 l 1,4,-1
 49 462 l 1,5,-1
 49 551 l 1,6,-1
 247 541 l 1,7,-1
 235 783 l 1,8,-1
 349 783 l 1,9,-1
 337 541 l 1,10,-1
 535 551 l 1,11,-1
 535 462 l 1,0,-1
EndSplineSet
Validated: 1
EndChar

StartChar: daggerdbl
Encoding: 8225 8225 350
Width: 585
GlyphClass: 1
Flags: W
LayerCount: 2
Fore
SplineSet
337 472 m 1,0,-1
 337 50 l 1,1,-1
 535 60 l 1,2,-1
 535 -29 l 1,3,-1
 337 -19 l 1,4,-1
 349 -262 l 1,5,-1
 235 -262 l 1,6,-1
 247 -19 l 1,7,-1
 50 -29 l 1,8,-1
 50 60 l 1,9,-1
 247 50 l 1,10,-1
 247 472 l 1,11,-1
 50 462 l 1,12,-1
 50 551 l 1,13,-1
 247 541 l 1,14,-1
 235 783 l 1,15,-1
 349 783 l 1,16,-1
 337 541 l 1,17,-1
 535 551 l 1,18,-1
 535 462 l 1,19,-1
 337 472 l 1,0,-1
EndSplineSet
Validated: 1
EndChar

StartChar: bullet
Encoding: 8226 8226 351
Width: 462
GlyphClass: 1
Flags: W
LayerCount: 2
Fore
SplineSet
164.5 220.5 m 128,-1,1
 135 238 135 238 117.5 267.5 c 128,-1,2
 100 297 100 297 100 333 c 0,3,4
 100 388 100 388 138 426 c 128,-1,5
 176 464 176 464 230 464 c 0,6,7
 286 464 286 464 324 426 c 128,-1,8
 362 388 362 388 362 333 c 256,9,10
 362 278 362 278 324 240.5 c 128,-1,11
 286 203 286 203 230 203 c 0,12,0
 194 203 194 203 164.5 220.5 c 128,-1,1
EndSplineSet
Validated: 1
EndChar

StartChar: perthousand
Encoding: 8240 8240 353
Width: 1062
GlyphClass: 1
Flags: W
LayerCount: 2
Fore
SplineSet
83.5 665 m 128,-1,1
 126 706 126 706 193 706 c 256,2,3
 260 706 260 706 302.5 665 c 128,-1,4
 345 624 345 624 345 553 c 256,5,6
 345 482 345 482 302.5 440.5 c 128,-1,7
 260 399 260 399 193 399 c 256,8,9
 126 399 126 399 83.5 440.5 c 128,-1,10
 41 482 41 482 41 553 c 256,11,0
 41 624 41 624 83.5 665 c 128,-1,1
616 696 m 1,12,-1
 217 0 l 1,13,-1
 105 0 l 1,14,-1
 504 696 l 1,15,-1
 616 696 l 1,12,-1
130 553 m 0,17,18
 130 468 130 468 193 468 c 0,19,20
 223 468 223 468 239.5 489 c 128,-1,21
 256 510 256 510 256 553 c 256,22,23
 256 596 256 596 239.5 616.5 c 128,-1,24
 223 637 223 637 193 637 c 0,25,16
 130 637 130 637 130 553 c 0,17,18
420.5 256 m 128,-1,27
 463 297 463 297 530 297 c 0,28,29
 596 297 596 297 638.5 256 c 128,-1,30
 681 215 681 215 681 144 c 256,31,32
 681 73 681 73 638.5 31.5 c 128,-1,33
 596 -10 596 -10 530 -10 c 0,34,35
 463 -10 463 -10 420.5 31.5 c 128,-1,36
 378 73 378 73 378 144 c 256,37,26
 378 215 378 215 420.5 256 c 128,-1,27
760 256 m 128,-1,39
 803 297 803 297 869 297 c 0,40,41
 936 297 936 297 978.5 256 c 128,-1,42
 1021 215 1021 215 1021 144 c 256,43,44
 1021 73 1021 73 978.5 31.5 c 128,-1,45
 936 -10 936 -10 869 -10 c 0,46,47
 803 -10 803 -10 760 31.5 c 128,-1,48
 717 73 717 73 717 144 c 256,49,38
 717 215 717 215 760 256 c 128,-1,39
482.5 207.5 m 128,-1,51
 466 187 466 187 466 144 c 256,52,53
 466 101 466 101 482.5 80.5 c 128,-1,54
 499 60 499 60 529 60 c 256,55,56
 559 60 559 60 575.5 80.5 c 128,-1,57
 592 101 592 101 592 144 c 256,58,59
 592 187 592 187 575.5 207.5 c 128,-1,60
 559 228 559 228 529 228 c 256,61,50
 499 228 499 228 482.5 207.5 c 128,-1,51
806 144 m 256,63,64
 806 60 806 60 869 60 c 0,65,66
 899 60 899 60 915.5 80.5 c 128,-1,67
 932 101 932 101 932 144 c 256,68,69
 932 187 932 187 915.5 207.5 c 128,-1,70
 899 228 899 228 869 228 c 0,71,62
 806 228 806 228 806 144 c 256,63,64
EndSplineSet
Validated: 1
EndChar

StartChar: guilsinglleft
Encoding: 8249 8249 354
Width: 297
GlyphClass: 1
Flags: W
LayerCount: 2
Fore
SplineSet
137 120 m 1,0,-1
 45 295 l 1,1,-1
 137 470 l 1,2,-1
 247 470 l 1,3,-1
 151 295 l 1,4,-1
 247 120 l 1,5,-1
 137 120 l 1,0,-1
EndSplineSet
Validated: 1
EndChar

StartChar: guilsinglright
Encoding: 8250 8250 355
Width: 297
GlyphClass: 1
Flags: W
LayerCount: 2
Fore
SplineSet
145 295 m 1,0,-1
 50 470 l 1,1,-1
 159 470 l 1,2,-1
 252 295 l 1,3,-1
 159 120 l 1,4,-1
 50 120 l 1,5,-1
 145 295 l 1,0,-1
EndSplineSet
Validated: 1
EndChar

StartChar: fraction
Encoding: 8260 8260 356
Width: 587
GlyphClass: 1
Flags: W
LayerCount: 2
Fore
SplineSet
563 696 m 1,0,-1
 164 0 l 1,1,-1
 51 0 l 1,2,-1
 450 696 l 1,3,-1
 563 696 l 1,0,-1
EndSplineSet
Validated: 1
EndChar

StartChar: Euro
Encoding: 8364 8364 357
Width: 802
GlyphClass: 1
Flags: W
LayerCount: 2
Fore
SplineSet
563.5 123.5 m 128,-1,1
 611 150 611 150 638 202 c 1,2,-1
 775 202 l 1,3,4
 736 102 736 102 650 48 c 128,-1,5
 564 -6 564 -6 453 -6 c 0,6,7
 336 -6 336 -6 245 57.5 c 128,-1,8
 154 121 154 121 118 227 c 1,9,-1
 26 227 l 1,10,-1
 26 305 l 1,11,-1
 100 305 l 1,12,13
 98 333 98 333 98 349 c 256,14,15
 98 365 98 365 100 393 c 1,16,-1
 26 393 l 1,17,-1
 26 471 l 1,18,-1
 118 471 l 1,19,20
 154 577 154 577 245 640.5 c 128,-1,21
 336 704 336 704 453 704 c 0,22,23
 563 704 563 704 649.5 649.5 c 128,-1,24
 736 595 736 595 775 495 c 1,25,-1
 638 495 l 1,26,27
 611 547 611 547 563.5 573.5 c 128,-1,28
 516 600 516 600 453 600 c 0,29,30
 380 600 380 600 324.5 566 c 128,-1,31
 269 532 269 532 240 471 c 1,32,-1
 453 471 l 1,33,-1
 453 393 l 1,34,-1
 218 393 l 1,35,36
 215 372 215 372 215 349 c 256,37,38
 215 326 215 326 218 305 c 1,39,-1
 453 305 l 1,40,-1
 453 227 l 1,41,-1
 240 227 l 1,42,43
 269 165 269 165 324.5 131 c 128,-1,44
 380 97 380 97 453 97 c 0,45,0
 516 97 516 97 563.5 123.5 c 128,-1,1
EndSplineSet
Validated: 1
EndChar

StartChar: uni20BA
Encoding: 8378 8378 358
Width: 850
GlyphClass: 1
Flags: W
LayerCount: 2
Fore
SplineSet
728 428 m 1,0,1
 728 201 728 201 640.5 93 c 128,-1,2
 553 -15 553 -15 359 -15 c 0,3,4
 275 -15 275 -15 164 10 c 1,5,-1
 164 241 l 1,6,-1
 15 207 l 1,7,-1
 15 288 l 1,8,-1
 164 322 l 1,9,-1
 164 407 l 1,10,-1
 11 372 l 1,11,-1
 11 450 l 1,12,-1
 164 485 l 1,13,-1
 164 701 l 1,14,-1
 281 701 l 1,15,-1
 281 512 l 1,16,-1
 445 550 l 1,17,-1
 445 470 l 1,18,-1
 281 433 l 1,19,-1
 281 348 l 1,20,-1
 440 384 l 1,21,-1
 440 304 l 1,22,-1
 281 268 l 1,23,-1
 281 99 l 1,24,25
 314 92 314 92 359 92 c 0,26,27
 495 92 495 92 553 177 c 128,-1,28
 611 262 611 262 611 428 c 1,29,-1
 728 428 l 1,0,1
EndSplineSet
Validated: 1
EndChar

StartChar: uni20BD
Encoding: 8381 8381 359
Width: 635
GlyphClass: 1
Flags: W
LayerCount: 2
Fore
SplineSet
229 282 m 1,0,-1
 229 200 l 1,1,-1
 428 200 l 1,2,-1
 428 109 l 1,3,-1
 229 109 l 1,4,-1
 229 0 l 1,5,-1
 115 0 l 1,6,-1
 115 109 l 1,7,-1
 26 109 l 1,8,-1
 26 200 l 1,9,-1
 115 200 l 1,10,-1
 115 282 l 1,11,-1
 26 282 l 1,12,-1
 26 371 l 1,13,-1
 115 371 l 1,14,-1
 115 695 l 1,15,-1
 355 695 l 2,16,17
 435 695 435 695 490.5 667.5 c 128,-1,18
 546 640 546 640 573.5 593 c 128,-1,19
 601 546 601 546 601 488 c 0,20,21
 601 435 601 435 576 388 c 128,-1,22
 551 341 551 341 496 311.5 c 128,-1,23
 441 282 441 282 355 282 c 2,24,-1
 229 282 l 1,0,-1
229 371 m 1,25,-1
 355 371 l 2,26,27
 420 371 420 371 452 402 c 128,-1,28
 484 433 484 433 484 488 c 0,29,30
 484 544 484 544 452 575 c 128,-1,31
 420 606 420 606 355 606 c 2,32,-1
 229 606 l 1,33,-1
 229 371 l 1,25,-1
EndSplineSet
Validated: 1
EndChar

StartChar: trademark
Encoding: 8482 8482 361
Width: 811
GlyphClass: 1
Flags: W
LayerCount: 2
Fore
SplineSet
24 704 m 1,0,-1
 269 704 l 1,1,-1
 269 636 l 1,2,-1
 190 636 l 1,3,-1
 191 352 l 1,4,-1
 101 352 l 1,5,-1
 103 636 l 1,6,-1
 24 636 l 1,7,-1
 24 704 l 1,0,-1
750 704 m 1,8,-1
 750 352 l 1,9,-1
 668 352 l 1,10,-1
 666 590 l 1,11,-1
 567 352 l 1,12,-1
 506 352 l 1,13,-1
 408 595 l 1,14,-1
 408 352 l 1,15,-1
 327 352 l 1,16,-1
 327 704 l 1,17,-1
 443 704 l 1,18,-1
 539 457 l 1,19,-1
 640 704 l 1,20,-1
 750 704 l 1,8,-1
EndSplineSet
Validated: 1
EndChar

StartChar: uni2126
Encoding: 8486 8486 362
Width: 785
GlyphClass: 1
Flags: W
LayerCount: 2
Fore
SplineSet
714.5 200 m 128,-1,1
 682 132 682 132 620 89 c 1,2,-1
 736 89 l 1,3,-1
 736 0 l 1,4,-1
 463 0 l 1,5,-1
 463 92 l 1,6,7
 538 118 538 118 584.5 184 c 128,-1,8
 631 250 631 250 631 342 c 0,9,10
 631 420 631 420 600.5 478.5 c 128,-1,11
 570 537 570 537 515.5 568.5 c 128,-1,12
 461 600 461 600 392 600 c 256,13,14
 323 600 323 600 269 568.5 c 128,-1,15
 215 537 215 537 184.5 478.5 c 128,-1,16
 154 420 154 420 154 342 c 0,17,18
 154 250 154 250 200.5 184 c 128,-1,19
 247 118 247 118 322 92 c 1,20,-1
 322 0 l 1,21,-1
 48 0 l 1,22,-1
 48 89 l 1,23,-1
 164 89 l 1,24,25
 102 132 102 132 70 200 c 128,-1,26
 38 268 38 268 38 349 c 0,27,28
 38 451 38 451 85 532 c 128,-1,29
 132 613 132 613 213 658.5 c 128,-1,30
 294 704 294 704 392 704 c 256,31,32
 490 704 490 704 571.5 658.5 c 128,-1,33
 653 613 653 613 700 532 c 128,-1,34
 747 451 747 451 747 349 c 0,35,0
 747 268 747 268 714.5 200 c 128,-1,1
EndSplineSet
Validated: 1
EndChar

StartChar: estimated
Encoding: 8494 8494 363
Width: 757
GlyphClass: 1
Flags: W
LayerCount: 2
Fore
SplineSet
387 -7 m 0,1,2
 288 -7 288 -7 210 33 c 128,-1,3
 132 73 132 73 87.5 149.5 c 128,-1,4
 43 226 43 226 43 332 c 0,5,6
 43 437 43 437 82.5 521.5 c 128,-1,7
 122 606 122 606 197.5 655 c 128,-1,8
 273 704 273 704 378 704 c 0,9,10
 482 704 482 704 558 658.5 c 128,-1,11
 634 613 634 613 674 538.5 c 128,-1,12
 714 464 714 464 714 378 c 2,13,-1
 714 316 l 1,14,-1
 194 316 l 1,15,-1
 194 146 l 1,16,17
 232 105 232 105 278.5 85 c 128,-1,18
 325 65 325 65 387 65 c 0,19,20
 459 65 459 65 518.5 95.5 c 128,-1,21
 578 126 578 126 639 187 c 1,22,-1
 685 136 l 1,23,0
 552 -7 552 -7 387 -7 c 0,1,2
556 561 m 1,24,25
 525 596 525 596 479.5 614.5 c 128,-1,26
 434 633 434 633 378 633 c 0,27,28
 258 633 258 633 194 551 c 1,29,-1
 194 387 l 1,30,-1
 556 387 l 1,31,-1
 556 561 l 1,24,25
EndSplineSet
Validated: 1
EndChar

StartChar: partialdiff
Encoding: 8706 8706 364
Width: 585
GlyphClass: 1
Flags: W
LayerCount: 2
Fore
SplineSet
75 394.5 m 128,-1,1
 112 470 112 470 175 515 c 128,-1,2
 238 560 238 560 312 560 c 0,3,4
 350 560 350 560 377.5 547 c 128,-1,5
 405 534 405 534 428 507 c 1,6,7
 422 583 422 583 386.5 628 c 128,-1,8
 351 673 351 673 287 673 c 0,9,10
 253 673 253 673 208 661 c 1,11,-1
 208 725 l 1,12,13
 254 740 254 740 304 740 c 0,14,15
 381 740 381 740 435.5 699 c 128,-1,16
 490 658 490 658 518.5 583.5 c 128,-1,17
 547 509 547 509 547 410 c 0,18,19
 547 284 547 284 506 189 c 128,-1,20
 465 94 465 94 395 42.5 c 128,-1,21
 325 -9 325 -9 242 -9 c 0,22,23
 152 -9 152 -9 95 52 c 128,-1,24
 38 113 38 113 38 231 c 0,25,0
 38 319 38 319 75 394.5 c 128,-1,1
392 427 m 128,-1,27
 364 464 364 464 316 464 c 0,28,29
 270 464 270 464 233 433 c 128,-1,30
 196 402 196 402 175 349 c 128,-1,31
 154 296 154 296 154 231 c 0,32,33
 154 159 154 159 181.5 123 c 128,-1,34
 209 87 209 87 255 87 c 0,35,36
 300 87 300 87 338 119 c 128,-1,37
 376 151 376 151 398 205 c 128,-1,38
 420 259 420 259 420 321 c 0,39,26
 420 390 420 390 392 427 c 128,-1,27
EndSplineSet
Validated: 1
EndChar

StartChar: uni2206
Encoding: 8710 8710 365
Width: 696
GlyphClass: 1
Flags: W
LayerCount: 2
Fore
SplineSet
395 696 m 1,0,-1
 676 88 l 1,1,-1
 676 0 l 1,2,-1
 20 0 l 1,3,-1
 20 88 l 1,4,-1
 301 696 l 1,5,-1
 395 696 l 1,0,-1
137 88 m 1,6,-1
 559 88 l 1,7,-1
 348 566 l 1,8,-1
 137 88 l 1,6,-1
EndSplineSet
Validated: 1
EndChar

StartChar: product
Encoding: 8719 8719 366
Width: 741
GlyphClass: 1
Flags: W
LayerCount: 2
Fore
SplineSet
710 696 m 1,0,-1
 710 607 l 1,1,-1
 633 607 l 1,2,-1
 633 0 l 1,3,-1
 520 0 l 1,4,-1
 520 607 l 1,5,-1
 221 607 l 1,6,-1
 221 0 l 1,7,-1
 107 0 l 1,8,-1
 107 607 l 1,9,-1
 31 607 l 1,10,-1
 31 696 l 1,11,-1
 710 696 l 1,0,-1
EndSplineSet
Validated: 1
EndChar

StartChar: summation
Encoding: 8721 8721 367
Width: 480
GlyphClass: 1
Flags: W
LayerCount: 2
Fore
SplineSet
440 608 m 1,0,-1
 137 608 l 1,1,-1
 399 367 l 1,2,-1
 399 279 l 1,3,-1
 136 32 l 1,4,-1
 440 32 l 1,5,-1
 440 -56 l 1,6,-1
 40 -56 l 1,7,-1
 40 77 l 1,8,-1
 294 321 l 1,9,-1
 40 564 l 1,10,-1
 40 696 l 1,11,-1
 440 696 l 1,12,-1
 440 608 l 1,0,-1
EndSplineSet
Validated: 1
EndChar

StartChar: minus
Encoding: 8722 8722 368
Width: 585
GlyphClass: 1
Flags: W
LayerCount: 2
Fore
SplineSet
498 410 m 1,0,-1
 498 314 l 1,1,-1
 87 314 l 1,2,-1
 87 410 l 1,3,-1
 498 410 l 1,0,-1
EndSplineSet
Validated: 1
EndChar

StartChar: radical
Encoding: 8730 8730 371
Width: 829
GlyphClass: 1
Flags: W
LayerCount: 2
Fore
SplineSet
818 879 m 1,0,-1
 314 -43 l 1,1,-1
 256 -43 l 1,2,-1
 124 190 l 1,3,-1
 55 149 l 1,4,-1
 21 206 l 1,5,-1
 188 305 l 1,6,-1
 307 94 l 1,7,-1
 736 879 l 1,8,-1
 818 879 l 1,0,-1
EndSplineSet
Validated: 1
EndChar

StartChar: infinity
Encoding: 8734 8734 372
Width: 702
GlyphClass: 1
Flags: W
LayerCount: 2
Fore
SplineSet
629 461.5 m 128,-1,1
 675 420 675 420 675 348 c 0,2,3
 675 300 675 300 653.5 265 c 128,-1,4
 632 230 632 230 595 211 c 128,-1,5
 558 192 558 192 514 192 c 0,6,7
 465 192 465 192 425.5 216.5 c 128,-1,8
 386 241 386 241 348 284 c 1,9,10
 321 243 321 243 279 217.5 c 128,-1,11
 237 192 237 192 187 192 c 0,12,13
 117 192 117 192 72 233.5 c 128,-1,14
 27 275 27 275 27 347 c 0,15,16
 27 395 27 395 48.5 430 c 128,-1,17
 70 465 70 465 107 484 c 128,-1,18
 144 503 144 503 188 503 c 0,19,20
 239 503 239 503 277.5 477.5 c 128,-1,21
 316 452 316 452 352 408 c 1,22,23
 379 451 379 451 421.5 477 c 128,-1,24
 464 503 464 503 515 503 c 0,25,0
 583 503 583 503 629 461.5 c 128,-1,1
252.5 292.5 m 128,-1,27
 281 311 281 311 301 341 c 1,28,29
 269 381 269 381 245 401 c 128,-1,30
 221 421 221 421 194 421 c 0,31,32
 162 421 162 421 142 401.5 c 128,-1,33
 122 382 122 382 122 347 c 256,34,35
 122 312 122 312 142 293 c 128,-1,36
 162 274 162 274 194 274 c 0,37,26
 224 274 224 274 252.5 292.5 c 128,-1,27
560 293.5 m 128,-1,39
 580 313 580 313 580 348 c 256,40,41
 580 383 580 383 560 402 c 128,-1,42
 540 421 540 421 508 421 c 0,43,44
 477 421 477 421 447.5 402 c 128,-1,45
 418 383 418 383 398 350 c 1,46,47
 428 312 428 312 453 293 c 128,-1,48
 478 274 478 274 508 274 c 0,49,38
 540 274 540 274 560 293.5 c 128,-1,39
EndSplineSet
Validated: 1
EndChar

StartChar: integral
Encoding: 8747 8747 373
Width: 270
GlyphClass: 1
Flags: W
LayerCount: 2
Fore
SplineSet
177 889.5 m 128,-1,1
 219 925 219 925 296 925 c 2,2,-1
 318 925 l 1,3,-1
 308 830 l 1,4,-1
 292 830 l 2,5,6
 268 830 268 830 256 816.5 c 128,-1,7
 244 803 244 803 240 771 c 2,8,-1
 150 -64 l 2,9,10
 141 -146 141 -146 98.5 -181.5 c 128,-1,11
 56 -217 56 -217 -21 -217 c 2,12,-1
 -42 -217 l 1,13,-1
 -33 -123 l 1,14,-1
 -16 -123 l 2,15,16
 8 -123 8 -123 20 -109 c 128,-1,17
 32 -95 32 -95 35 -64 c 2,18,-1
 126 771 l 2,19,0
 135 854 135 854 177 889.5 c 128,-1,1
EndSplineSet
Validated: 1
EndChar

StartChar: notequal
Encoding: 8800 8800 375
Width: 752
GlyphClass: 1
Flags: W
LayerCount: 2
Fore
SplineSet
571 523 m 1,0,-1
 653 523 l 1,1,-1
 653 427 l 1,2,-1
 487 427 l 1,3,-1
 372 296 l 1,4,-1
 653 296 l 1,5,-1
 653 200 l 1,6,-1
 288 200 l 1,7,-1
 205 105 l 1,8,-1
 121 105 l 1,9,-1
 204 200 l 1,10,-1
 121 200 l 1,11,-1
 121 296 l 1,12,-1
 288 296 l 1,13,-1
 403 427 l 1,14,-1
 121 427 l 1,15,-1
 121 523 l 1,16,-1
 487 523 l 1,17,-1
 569 617 l 1,18,-1
 653 617 l 1,19,-1
 571 523 l 1,0,-1
EndSplineSet
Validated: 1
EndChar

StartChar: lessequal
Encoding: 8804 8804 376
Width: 549
GlyphClass: 1
Flags: W
LayerCount: 2
Fore
SplineSet
236 399 m 1,0,-1
 465 208 l 1,1,-1
 315 208 l 1,2,-1
 85 398 l 1,3,-1
 315 588 l 1,4,-1
 465 588 l 1,5,-1
 236 399 l 1,0,-1
91 153 m 1,6,-1
 460 153 l 1,7,-1
 460 67 l 1,8,-1
 91 67 l 1,9,-1
 91 153 l 1,6,-1
EndSplineSet
Validated: 1
EndChar

StartChar: greaterequal
Encoding: 8805 8805 377
Width: 549
GlyphClass: 1
Flags: W
LayerCount: 2
Fore
SplineSet
85 208 m 1,0,-1
 313 399 l 1,1,-1
 85 588 l 1,2,-1
 234 588 l 1,3,-1
 465 398 l 1,4,-1
 234 208 l 1,5,-1
 85 208 l 1,0,-1
89 153 m 1,6,-1
 458 153 l 1,7,-1
 458 67 l 1,8,-1
 89 67 l 1,9,-1
 89 153 l 1,6,-1
EndSplineSet
Validated: 1
EndChar

StartChar: lozenge
Encoding: 9674 9674 378
Width: 557
GlyphClass: 1
Flags: W
LayerCount: 2
Fore
SplineSet
526 351 m 1,0,-1
 279 103 l 1,1,-1
 31 351 l 1,2,-1
 279 598 l 1,3,-1
 526 351 l 1,0,-1
154 351 m 1,4,-1
 279 225 l 1,5,-1
 404 351 l 1,6,-1
 279 476 l 1,7,-1
 154 351 l 1,4,-1
EndSplineSet
Validated: 1
EndChar

StartChar: fi
Encoding: 64257 64257 379
Width: 596
GlyphClass: 1
Flags: W
LayerCount: 2
Fore
SplineSet
204 551 m 1,0,-1
 521 551 l 1,1,-1
 521 0 l 1,2,-1
 407 0 l 1,3,-1
 407 458 l 1,4,-1
 204 458 l 1,5,-1
 204 0 l 1,6,-1
 89 0 l 1,7,-1
 89 458 l 1,8,-1
 24 458 l 1,9,-1
 24 551 l 1,10,-1
 89 551 l 1,11,-1
 89 590 l 2,12,13
 89 685 89 685 139.5 728.5 c 128,-1,14
 190 772 190 772 298 772 c 1,15,-1
 298 677 l 1,16,17
 246 677 246 677 225 657.5 c 128,-1,18
 204 638 204 638 204 590 c 2,19,-1
 204 551 l 1,0,-1
413 645 m 128,-1,21
 392 666 392 666 392 697 c 256,22,23
 392 728 392 728 413 749 c 128,-1,24
 434 770 434 770 464 770 c 0,25,26
 495 770 495 770 516 749 c 128,-1,27
 537 728 537 728 537 697 c 256,28,29
 537 666 537 666 516 645 c 128,-1,30
 495 624 495 624 464 624 c 0,31,20
 434 624 434 624 413 645 c 128,-1,21
EndSplineSet
Validated: 1
EndChar

StartChar: exclam.ss01
Encoding: 66094 -1 381
Width: 289
GlyphClass: 1
Flags: W
LayerCount: 2
Fore
SplineSet
205 697 m 1,0,-1
 192 210 l 1,1,-1
 97 210 l 1,2,-1
 84 697 l 1,3,-1
 205 697 l 1,0,-1
209 132 m 1,4,-1
 209 0 l 1,5,-1
 80 0 l 1,6,-1
 80 132 l 1,7,-1
 209 132 l 1,4,-1
EndSplineSet
Validated: 1
EndChar

StartChar: comma.ss01
Encoding: 66095 -1 382
Width: 209
GlyphClass: 1
Flags: W
LayerCount: 2
Fore
SplineSet
165 2 m 0,1,2
 165 -138 165 -138 39 -138 c 1,3,-1
 39 -83 l 1,4,5
 93 -83 93 -83 93 -18 c 2,6,-1
 93 5 l 1,7,-1
 32 5 l 1,8,-1
 32 114 l 1,9,-1
 149 114 l 1,10,0
 165 47 165 47 165 2 c 0,1,2
EndSplineSet
Validated: 1
EndChar

StartChar: period.ss01
Encoding: 66096 -1 383
Width: 235
GlyphClass: 1
Flags: W
LayerCount: 2
Fore
SplineSet
182 132 m 1,0,-1
 182 0 l 1,1,-1
 53 0 l 1,2,-1
 53 132 l 1,3,-1
 182 132 l 1,0,-1
EndSplineSet
Validated: 1
EndChar

StartChar: colon.ss01
Encoding: 66097 -1 384
Width: 279
GlyphClass: 1
Flags: W
LayerCount: 2
Fore
SplineSet
199 551 m 1,0,-1
 199 419 l 1,1,-1
 70 419 l 1,2,-1
 70 551 l 1,3,-1
 199 551 l 1,0,-1
199 132 m 1,4,-1
 199 0 l 1,5,-1
 70 0 l 1,6,-1
 70 132 l 1,7,-1
 199 132 l 1,4,-1
EndSplineSet
Validated: 1
EndChar

StartChar: semicolon.ss01
Encoding: 66098 -1 385
Width: 212
GlyphClass: 1
Flags: W
LayerCount: 2
Fore
SplineSet
161 552 m 1,0,-1
 161 420 l 1,1,-1
 32 420 l 1,2,-1
 32 552 l 1,3,-1
 161 552 l 1,0,-1
168 2 m 0,5,6
 168 -138 168 -138 42 -138 c 1,7,-1
 42 -83 l 1,8,9
 96 -83 96 -83 96 -18 c 2,10,-1
 96 5 l 1,11,-1
 35 5 l 1,12,-1
 35 114 l 1,13,-1
 152 114 l 1,14,4
 168 47 168 47 168 2 c 0,5,6
EndSplineSet
Validated: 1
EndChar

StartChar: question.ss01
Encoding: 66099 -1 386
Width: 538
GlyphClass: 1
Flags: W
LayerCount: 2
Fore
SplineSet
425.5 649 m 128,-1,1
 487 593 487 593 487 496 c 0,2,3
 487 395 487 395 423 344 c 128,-1,4
 359 293 359 293 253 293 c 1,5,-1
 253 214 l 1,6,-1
 145 214 l 1,7,-1
 145 371 l 1,8,-1
 178 371 l 2,9,10
 275 371 275 371 326.5 397 c 128,-1,11
 378 423 378 423 378 496 c 0,12,13
 378 549 378 549 347.5 579 c 128,-1,14
 317 609 317 609 263 609 c 256,15,16
 209 609 209 609 178 580 c 128,-1,17
 147 551 147 551 147 499 c 1,18,-1
 40 499 l 1,19,20
 40 559 40 559 67 606 c 128,-1,21
 94 653 94 653 144.5 679 c 128,-1,22
 195 705 195 705 262 705 c 0,23,0
 364 705 364 705 425.5 649 c 128,-1,1
270 132 m 1,24,-1
 270 0 l 1,25,-1
 141 0 l 1,26,-1
 141 132 l 1,27,-1
 270 132 l 1,24,-1
EndSplineSet
Validated: 1
EndChar

StartChar: exclamdown.ss01
Encoding: 66100 -1 387
Width: 289
GlyphClass: 1
Flags: W
LayerCount: 2
Fore
SplineSet
80 558 m 1,0,-1
 209 558 l 1,1,-1
 209 426 l 1,2,-1
 80 426 l 1,3,-1
 80 558 l 1,0,-1
97 348 m 1,4,-1
 192 348 l 1,5,-1
 205 -139 l 1,6,-1
 84 -139 l 1,7,-1
 97 348 l 1,4,-1
EndSplineSet
Validated: 1
EndChar

StartChar: questiondown.ss01
Encoding: 66102 -1 389
Width: 538
GlyphClass: 1
Flags: W
LayerCount: 2
Fore
SplineSet
268 423 m 1,0,-1
 268 555 l 1,1,-1
 397 555 l 1,2,-1
 397 423 l 1,3,-1
 268 423 l 1,0,-1
112.5 -94 m 128,-1,5
 51 -38 51 -38 51 59 c 0,6,7
 51 160 51 160 115 211 c 128,-1,8
 179 262 179 262 285 262 c 1,9,-1
 285 341 l 1,10,-1
 393 341 l 1,11,-1
 393 184 l 1,12,-1
 360 184 l 2,13,14
 263 184 263 184 211.5 158 c 128,-1,15
 160 132 160 132 160 59 c 0,16,17
 160 6 160 6 190.5 -24 c 128,-1,18
 221 -54 221 -54 275 -54 c 256,19,20
 329 -54 329 -54 360 -25 c 128,-1,21
 391 4 391 4 391 56 c 1,22,-1
 498 56 l 1,23,24
 498 -4 498 -4 471 -51 c 128,-1,25
 444 -98 444 -98 393.5 -124 c 128,-1,26
 343 -150 343 -150 276 -150 c 0,27,4
 174 -150 174 -150 112.5 -94 c 128,-1,5
EndSplineSet
Validated: 1
EndChar

StartChar: divide.ss01
Encoding: 66103 -1 390
Width: 679
GlyphClass: 1
Flags: W
LayerCount: 2
Fore
SplineSet
410 640 m 1,0,-1
 410 508 l 1,1,-1
 281 508 l 1,2,-1
 281 640 l 1,3,-1
 410 640 l 1,0,-1
600 412 m 1,4,-1
 600 311 l 1,5,-1
 90 311 l 1,6,-1
 90 412 l 1,7,-1
 600 412 l 1,4,-1
410 215 m 1,8,-1
 410 82 l 1,9,-1
 281 82 l 1,10,-1
 281 215 l 1,11,-1
 410 215 l 1,8,-1
EndSplineSet
Validated: 1
EndChar

StartChar: quoteleft.ss01
Encoding: 66104 -1 391
Width: 175
GlyphClass: 1
Flags: W
LayerCount: 2
Fore
SplineSet
29 675 m 0,1,2
 29 800 29 800 141 800 c 1,3,-1
 141 750 l 1,4,5
 93 750 93 750 93 693 c 2,6,-1
 93 672 l 1,7,-1
 146 672 l 1,8,-1
 146 576 l 1,9,-1
 43 576 l 1,10,0
 29 628 29 628 29 675 c 0,1,2
EndSplineSet
Validated: 1
EndChar

StartChar: quoteright.ss01
Encoding: 66105 -1 392
Width: 175
GlyphClass: 1
Flags: W
LayerCount: 2
Fore
SplineSet
146 700 m 0,1,2
 146 576 146 576 34 576 c 1,3,-1
 34 625 l 1,4,5
 82 625 82 625 82 682 c 2,6,-1
 82 703 l 1,7,-1
 29 703 l 1,8,-1
 29 800 l 1,9,-1
 132 800 l 1,10,0
 146 748 146 748 146 700 c 0,1,2
EndSplineSet
Validated: 1
EndChar

StartChar: quotedblleft.ss01
Encoding: 66106 -1 393
Width: 326
GlyphClass: 1
Flags: W
LayerCount: 2
Fore
SplineSet
29 675 m 0,1,2
 29 800 29 800 141 800 c 1,3,-1
 141 750 l 1,4,5
 93 750 93 750 93 693 c 2,6,-1
 93 672 l 1,7,-1
 146 672 l 1,8,-1
 146 576 l 1,9,-1
 43 576 l 1,10,0
 29 628 29 628 29 675 c 0,1,2
180 675 m 0,12,13
 180 800 180 800 293 800 c 1,14,-1
 293 750 l 1,15,16
 268 750 268 750 256 736 c 128,-1,17
 244 722 244 722 244 693 c 2,18,-1
 244 672 l 1,19,-1
 297 672 l 1,20,-1
 297 576 l 1,21,-1
 194 576 l 1,22,11
 180 628 180 628 180 675 c 0,12,13
EndSplineSet
Validated: 1
EndChar

StartChar: quotedblright.ss01
Encoding: 66107 -1 394
Width: 326
GlyphClass: 1
Flags: W
LayerCount: 2
Fore
SplineSet
146 700 m 0,1,2
 146 576 146 576 34 576 c 1,3,-1
 34 625 l 1,4,5
 82 625 82 625 82 682 c 2,6,-1
 82 703 l 1,7,-1
 29 703 l 1,8,-1
 29 800 l 1,9,-1
 132 800 l 1,10,0
 146 748 146 748 146 700 c 0,1,2
298 700 m 0,12,13
 298 576 298 576 185 576 c 1,14,-1
 185 625 l 1,15,16
 234 625 234 625 234 682 c 2,17,-1
 234 703 l 1,18,-1
 181 703 l 1,19,-1
 181 800 l 1,20,-1
 284 800 l 1,21,11
 298 742 298 742 298 700 c 0,12,13
EndSplineSet
Validated: 1
EndChar

StartChar: a.ss02
Encoding: 66109 -1 396
Width: 606
GlyphClass: 1
Flags: W
LayerCount: 2
Fore
SplineSet
337.5 16 m 128,-1,1
 285 -10 285 -10 224 -10 c 0,2,3
 171 -10 171 -10 128 11.5 c 128,-1,4
 85 33 85 33 61 70.5 c 128,-1,5
 37 108 37 108 37 155 c 0,6,7
 37 231 37 231 92.5 281 c 128,-1,8
 148 331 148 331 259 331 c 2,9,-1
 415 331 l 1,10,11
 413 390 413 390 379.5 426 c 128,-1,12
 346 462 346 462 290 462 c 0,13,14
 239 462 239 462 205.5 434 c 128,-1,15
 172 406 172 406 163 356 c 1,16,-1
 51 356 l 1,17,18
 63 447 63 447 128.5 504 c 128,-1,19
 194 561 194 561 295 561 c 0,20,21
 361 561 361 561 414.5 532.5 c 128,-1,22
 468 504 468 504 499.5 450 c 128,-1,23
 531 396 531 396 531 323 c 2,24,-1
 531 0 l 1,25,-1
 415 0 l 1,26,-1
 415 80 l 1,27,0
 390 42 390 42 337.5 16 c 128,-1,1
325.5 106.5 m 128,-1,29
 364 123 364 123 389.5 156.5 c 128,-1,30
 415 190 415 190 415 238 c 2,31,-1
 415 239 l 1,32,-1
 259 239 l 2,33,34
 205 239 205 239 179.5 218 c 128,-1,35
 154 197 154 197 154 164 c 0,36,37
 154 130 154 130 179 110 c 128,-1,38
 204 90 204 90 248 90 c 0,39,28
 287 90 287 90 325.5 106.5 c 128,-1,29
EndSplineSet
Validated: 1
EndChar

StartChar: aogonek.ss02
Encoding: 66116 -1 403
Width: 606
GlyphClass: 1
Flags: W
LayerCount: 2
Fore
SplineSet
546 -123 m 1,1,-1
 546 -196 l 1,2,3
 508 -211 508 -211 465 -211 c 0,4,5
 411 -211 411 -211 371.5 -184.5 c 128,-1,6
 332 -158 332 -158 332 -103 c 0,7,8
 332 -34 332 -34 415 16 c 1,9,-1
 415 80 l 1,10,11
 390 42 390 42 337.5 16 c 128,-1,12
 285 -10 285 -10 224 -10 c 0,13,14
 171 -10 171 -10 128 11.5 c 128,-1,15
 85 33 85 33 61 70.5 c 128,-1,16
 37 108 37 108 37 155 c 0,17,18
 37 231 37 231 92.5 281 c 128,-1,19
 148 331 148 331 259 331 c 2,20,-1
 415 331 l 1,21,22
 413 390 413 390 379.5 426 c 128,-1,23
 346 462 346 462 290 462 c 0,24,25
 239 462 239 462 205.5 434 c 128,-1,26
 172 406 172 406 163 356 c 1,27,-1
 51 356 l 1,28,29
 63 447 63 447 128.5 504 c 128,-1,30
 194 561 194 561 295 561 c 0,31,32
 361 561 361 561 414.5 532.5 c 128,-1,33
 468 504 468 504 499.5 450 c 128,-1,34
 531 396 531 396 531 323 c 2,35,-1
 531 0 l 1,36,-1
 482 -25 l 2,37,38
 451 -41 451 -41 438 -56.5 c 128,-1,39
 425 -72 425 -72 425 -91 c 0,40,41
 425 -112 425 -112 440 -124.5 c 128,-1,42
 455 -137 455 -137 480 -137 c 0,43,0
 510 -137 510 -137 546 -123 c 1,1,-1
325.5 106.5 m 128,-1,45
 364 123 364 123 389.5 156.5 c 128,-1,46
 415 190 415 190 415 238 c 2,47,-1
 415 239 l 1,48,-1
 259 239 l 2,49,50
 205 239 205 239 179.5 218 c 128,-1,51
 154 197 154 197 154 164 c 0,52,53
 154 130 154 130 179 110 c 128,-1,54
 204 90 204 90 248 90 c 0,55,44
 287 90 287 90 325.5 106.5 c 128,-1,45
EndSplineSet
Validated: 1
EndChar

StartChar: ampersand.ss03
Encoding: 66119 -1 406
Width: 678
GlyphClass: 1
Flags: W
LayerCount: 2
Fore
SplineSet
530 0 m 1,0,-1
 439 123 l 1,1,2
 418 66 418 66 365 29 c 128,-1,3
 312 -8 312 -8 246 -8 c 0,4,5
 188 -8 188 -8 140 19 c 128,-1,6
 92 46 92 46 64 94.5 c 128,-1,7
 36 143 36 143 36 203 c 0,8,9
 36 260 36 260 61 306.5 c 128,-1,10
 86 353 86 353 128.5 380 c 128,-1,11
 171 407 171 407 222 410 c 1,12,-1
 216 418 l 2,13,14
 182 463 182 463 165.5 499.5 c 128,-1,15
 149 536 149 536 149 573 c 0,16,17
 149 617 149 617 171 655 c 128,-1,18
 193 693 193 693 235.5 716.5 c 128,-1,19
 278 740 278 740 336 740 c 256,20,21
 394 740 394 740 436.5 717.5 c 128,-1,22
 479 695 479 695 501.5 658.5 c 128,-1,23
 524 622 524 622 524 581 c 0,24,25
 524 553 524 553 515 530 c 1,26,-1
 403 530 l 1,27,28
 411 548 411 548 411 570 c 0,29,30
 411 602 411 602 390 623 c 128,-1,31
 369 644 369 644 336 644 c 0,32,33
 304 644 304 644 283.5 623 c 128,-1,34
 263 602 263 602 263 571 c 0,35,36
 263 550 263 550 271 530 c 128,-1,37
 279 510 279 510 301 482 c 2,38,-1
 666 0 l 1,39,-1
 530 0 l 1,0,-1
325.5 120.5 m 128,-1,41
 358 155 358 155 358 204 c 256,42,43
 358 253 358 253 325.5 287 c 128,-1,44
 293 321 293 321 247 321 c 0,45,46
 200 321 200 321 168.5 287 c 128,-1,47
 137 253 137 253 137 204 c 0,48,49
 137 154 137 154 169 120 c 128,-1,50
 201 86 201 86 247 86 c 256,51,40
 293 86 293 86 325.5 120.5 c 128,-1,41
EndSplineSet
Validated: 1
EndChar

StartChar: two.ss04
Encoding: 66120 -1 407
Width: 605
GlyphClass: 1
Flags: W
LayerCount: 2
Fore
SplineSet
260 279 m 2,0,1
 344 361 344 361 378 414 c 128,-1,2
 412 467 412 467 412 519 c 256,3,4
 412 571 412 571 383 601.5 c 128,-1,5
 354 632 354 632 292 632 c 0,6,7
 234 632 234 632 202 593.5 c 128,-1,8
 170 555 170 555 168 488 c 1,9,-1
 58 488 l 1,10,11
 61 606 61 606 126.5 667.5 c 128,-1,12
 192 729 192 729 293 729 c 0,13,14
 403 729 403 729 465 671.5 c 128,-1,15
 527 614 527 614 527 519 c 0,16,17
 527 450 527 450 486.5 381.5 c 128,-1,18
 446 313 446 313 346 215 c 2,19,-1
 224 95 l 1,20,-1
 545 95 l 1,21,-1
 545 0 l 1,22,-1
 59 0 l 1,23,-1
 59 83 l 1,24,-1
 260 279 l 2,0,1
EndSplineSet
Validated: 1
EndChar

StartChar: three.ss04
Encoding: 66121 -1 408
Width: 610
GlyphClass: 1
Flags: W
LayerCount: 2
Fore
SplineSet
496 389 m 128,-1,1
 553 330 553 330 553 230 c 0,2,3
 553 122 553 122 485.5 59 c 128,-1,4
 418 -4 418 -4 301 -4 c 0,5,6
 195 -4 195 -4 126.5 51.5 c 128,-1,7
 58 107 58 107 53 211 c 1,8,-1
 167 211 l 1,9,10
 171 158 171 158 206 124.5 c 128,-1,11
 241 91 241 91 303 91 c 0,12,13
 366 91 366 91 402.5 128 c 128,-1,14
 439 165 439 165 439 230 c 0,15,16
 439 294 439 294 403 330.5 c 128,-1,17
 367 367 367 367 304 367 c 2,18,-1
 201 367 l 1,19,-1
 201 448 l 1,20,-1
 381 634 l 1,21,-1
 88 634 l 1,22,-1
 88 729 l 1,23,-1
 519 729 l 1,24,-1
 519 642 l 1,25,-1
 338 456 l 1,26,0
 439 448 439 448 496 389 c 128,-1,1
EndSplineSet
Validated: 1
EndChar

StartChar: six.ss04
Encoding: 66122 -1 409
Width: 594
GlyphClass: 1
Flags: W
LayerCount: 2
Fore
SplineSet
440.5 440.5 m 128,-1,1
 493 411 493 411 522 357.5 c 128,-1,2
 551 304 551 304 551 236 c 0,3,4
 551 166 551 166 519.5 110 c 128,-1,5
 488 54 488 54 431.5 22.5 c 128,-1,6
 375 -9 375 -9 304 -9 c 0,7,8
 231 -9 231 -9 174 23 c 128,-1,9
 117 55 117 55 85.5 111.5 c 128,-1,10
 54 168 54 168 54 238 c 0,11,12
 54 295 54 295 75 352.5 c 128,-1,13
 96 410 96 410 139 472 c 2,14,-1
 319 729 l 1,15,-1
 443 729 l 1,16,-1
 250 460 l 1,17,18
 280 470 280 470 319 470 c 0,19,0
 388 470 388 470 440.5 440.5 c 128,-1,1
410 126.5 m 128,-1,21
 448 167 448 167 448 236 c 256,22,23
 448 305 448 305 410 345.5 c 128,-1,24
 372 386 372 386 304 386 c 256,25,26
 236 386 236 386 196.5 345.5 c 128,-1,27
 157 305 157 305 157 236 c 256,28,29
 157 167 157 167 196.5 126.5 c 128,-1,30
 236 86 236 86 304 86 c 256,31,20
 372 86 372 86 410 126.5 c 128,-1,21
EndSplineSet
Validated: 1
EndChar

StartChar: nine.ss04
Encoding: 66123 -1 410
Width: 594
GlyphClass: 1
Flags: W
LayerCount: 2
Fore
SplineSet
420 703 m 128,-1,1
 477 671 477 671 508.5 614.5 c 128,-1,2
 540 558 540 558 540 487 c 0,3,4
 540 426 540 426 519.5 368.5 c 128,-1,5
 499 311 499 311 455 249 c 2,6,-1
 275 -3 l 1,7,-1
 149 -3 l 1,8,-1
 343 259 l 1,9,10
 313 250 313 250 278 250 c 0,11,12
 207 250 207 250 153.5 280 c 128,-1,13
 100 310 100 310 71 363.5 c 128,-1,14
 42 417 42 417 42 487 c 0,15,16
 42 558 42 558 73.5 614.5 c 128,-1,17
 105 671 105 671 161.5 703 c 128,-1,18
 218 735 218 735 290 735 c 0,19,0
 363 735 363 735 420 703 c 128,-1,1
183.5 375 m 128,-1,21
 222 334 222 334 290 334 c 256,22,23
 358 334 358 334 396.5 375 c 128,-1,24
 435 416 435 416 435 487 c 256,25,26
 435 558 435 558 396.5 599 c 128,-1,27
 358 640 358 640 290 640 c 256,28,29
 222 640 222 640 183.5 599 c 128,-1,30
 145 558 145 558 145 487 c 256,31,20
 145 416 145 416 183.5 375 c 128,-1,21
EndSplineSet
Validated: 1
EndChar

StartChar: acutecomb
Encoding: 769 769 411
Width: 241
Flags: W
LayerCount: 2
Fore
SplineSet
231 699 m 1,0,-1
 10 590 l 1,1,-1
 10 674 l 1,2,-1
 231 796 l 1,3,-1
 231 699 l 1,0,-1
EndSplineSet
EndChar

StartChar: gravecomb
Encoding: 768 768 412
Width: 254
Flags: W
LayerCount: 2
Fore
SplineSet
231 674 m 1,0,-1
 231 590 l 1,1,-1
 10 699 l 1,2,-1
 10 796 l 1,3,-1
 231 674 l 1,0,-1
EndSplineSet
EndChar

StartChar: tildecomb
Encoding: 771 771 413
Width: 356
Flags: W
LayerCount: 2
Fore
SplineSet
48 695.5 m 128,-1,1
 78 725 78 725 123 725 c 0,2,3
 142 725 142 725 156 719 c 128,-1,4
 170 713 170 713 190 701 c 0,5,6
 205 691 205 691 215.5 686 c 128,-1,7
 226 681 226 681 239 681 c 0,8,9
 256 681 256 681 267.5 691.5 c 128,-1,10
 279 702 279 702 282 723 c 1,11,-1
 346 723 l 1,12,13
 338 665 338 665 308 635.5 c 128,-1,14
 278 606 278 606 233 606 c 0,15,16
 214 606 214 606 199 612.5 c 128,-1,17
 184 619 184 619 166 631 c 0,18,19
 148 642 148 642 138.5 646.5 c 128,-1,20
 129 651 129 651 117 651 c 0,21,22
 100 651 100 651 88.5 640 c 128,-1,23
 77 629 77 629 74 608 c 1,24,-1
 10 608 l 1,25,0
 18 666 18 666 48 695.5 c 128,-1,1
EndSplineSet
EndChar

StartChar: uni0302
Encoding: 770 770 414
Width: 306
Flags: W
LayerCount: 2
Fore
SplineSet
153 676 m 1,0,-1
 10 590 l 1,1,-1
 10 679 l 1,2,-1
 153 762 l 1,3,-1
 296 679 l 1,4,-1
 296 590 l 1,5,-1
 153 676 l 1,0,-1
EndSplineSet
EndChar

StartChar: uni0308
Encoding: 776 776 415
Width: 312
Flags: W
LayerCount: 2
Fore
SplineSet
27.5 637.5 m 128,-1,1
 10 655 10 655 10 680 c 256,2,3
 10 705 10 705 27.5 722.5 c 128,-1,4
 45 740 45 740 70 740 c 256,5,6
 95 740 95 740 112.5 722.5 c 128,-1,7
 130 705 130 705 130 680 c 256,8,9
 130 655 130 655 112.5 637.5 c 128,-1,10
 95 620 95 620 70 620 c 256,11,0
 45 620 45 620 27.5 637.5 c 128,-1,1
199.5 637.5 m 128,-1,13
 182 655 182 655 182 680 c 256,14,15
 182 705 182 705 199.5 722.5 c 128,-1,16
 217 740 217 740 242 740 c 256,17,18
 267 740 267 740 284.5 722.5 c 128,-1,19
 302 705 302 705 302 680 c 256,20,21
 302 655 302 655 284.5 637.5 c 128,-1,22
 267 620 267 620 242 620 c 256,23,12
 217 620 217 620 199.5 637.5 c 128,-1,13
EndSplineSet
EndChar

StartChar: uni030A
Encoding: 778 778 416
Width: 238
Flags: W
LayerCount: 2
Fore
SplineSet
199.5 635 m 128,-1,1
 167 605 167 605 119 605 c 0,2,3
 72 605 72 605 39.5 635 c 128,-1,4
 7 665 7 665 7 714 c 0,5,6
 7 764 7 764 39.5 794 c 128,-1,7
 72 824 72 824 119 824 c 0,8,9
 167 824 167 824 199.5 794 c 128,-1,10
 232 764 232 764 232 714 c 0,11,0
 232 665 232 665 199.5 635 c 128,-1,1
154 752 m 128,-1,13
 140 766 140 766 119 766 c 0,14,15
 99 766 99 766 85 752 c 128,-1,16
 71 738 71 738 71 715 c 0,17,18
 71 693 71 693 85 678.5 c 128,-1,19
 99 664 99 664 119 664 c 0,20,21
 140 664 140 664 154 678.5 c 128,-1,22
 168 693 168 693 168 715 c 0,23,12
 168 738 168 738 154 752 c 128,-1,13
EndSplineSet
EndChar

StartChar: uni0306
Encoding: 774 774 418
Width: 321
Flags: W
LayerCount: 2
Fore
SplineSet
270.5 635 m 128,-1,1
 230 597 230 597 160 597 c 256,2,3
 90 597 90 597 50 635.5 c 128,-1,4
 10 674 10 674 10 737 c 2,5,-1
 10 758 l 1,6,-1
 75 758 l 1,7,8
 75 722 75 722 94 704 c 128,-1,9
 113 686 113 686 160 686 c 256,10,11
 207 686 207 686 226 704 c 128,-1,12
 245 722 245 722 245 758 c 1,13,-1
 311 758 l 1,14,-1
 311 736 l 2,15,0
 311 673 311 673 270.5 635 c 128,-1,1
EndSplineSet
EndChar
